<svg width="278" height="263" viewBox="0 0 278 263" fill="none" xmlns="http://www.w3.org/2000/svg">
<g clip-path="url(#clip0_64_3160)">
<path d="M22.6027 213.34C19.3895 213.268 17.2583 210.186 15.8892 207.634C14.4312 204.863 13.3874 201.892 12.7912 198.819C12.775 198.711 12.7374 198.607 12.6806 198.515C12.6237 198.422 12.5487 198.341 12.4601 198.277C12.3715 198.214 12.271 198.169 12.1646 198.145C12.0583 198.121 11.9481 198.118 11.8408 198.138C11.6278 198.112 11.413 198.168 11.2398 198.295C11.0666 198.421 10.9479 198.608 10.9075 198.819C9.48822 204.797 6.58874 211.732 0.785973 214.685C-0.0484081 215.109 0.317165 216.175 1.0193 216.467C4.23306 217.713 6.86052 220.12 8.38057 223.21C9.57994 225.667 10.2083 228.355 11.4316 230.804C11.541 230.989 11.7081 231.133 11.9073 231.214C12.1066 231.295 12.3269 231.308 12.5346 231.252C13.3365 230.99 13.4488 229.839 13.6647 229.144C14.1299 227.618 14.6788 226.118 15.3089 224.652C16.9376 220.918 19.2456 216.933 23.0962 215.157C24.0201 214.731 23.5036 213.36 22.6027 213.34Z" fill="white"/>
<path d="M31.9827 262.097C31.7919 262.097 31.6047 262.045 31.4409 261.948C31.2771 261.85 31.1428 261.71 31.0524 261.542C30.962 261.374 30.9188 261.185 30.9273 260.995C30.9359 260.805 30.996 260.62 31.1011 260.461C32.9482 257.669 32.5572 255.449 31.191 252.329C31.1011 252.124 31.0789 251.896 31.1275 251.678C31.176 251.459 31.2929 251.262 31.4612 251.114C31.6295 250.966 31.8404 250.876 32.0636 250.856C32.2867 250.835 32.5105 250.887 32.7026 251.002L33.0932 251.242C35.4261 252.682 37.7325 253.769 40.3068 251.278C40.4977 251.093 40.7514 250.987 41.0172 250.981C41.283 250.974 41.5414 251.068 41.7408 251.244C41.9402 251.42 42.0659 251.664 42.0929 251.928C42.1198 252.192 42.0461 252.457 41.8862 252.669C41.0694 253.758 40.6114 255.073 40.5754 256.433C40.5394 257.793 40.9273 259.131 41.6854 260.261C41.797 260.417 41.8678 260.599 41.8915 260.789C41.9152 260.98 41.891 261.173 41.8212 261.352C41.7611 261.493 41.6712 261.619 41.5575 261.721C41.4439 261.824 41.3093 261.9 41.1631 261.946C41.0169 261.991 40.8626 262.005 40.7108 261.985C40.5589 261.965 40.4133 261.912 40.2839 261.83C37.4041 260.007 36.8841 259.683 32.4699 261.977C32.3197 262.056 32.1524 262.097 31.9827 262.097ZM34.1021 254.189C34.5491 255.712 34.5699 257.328 34.1622 258.861C34.8692 258.513 35.6396 258.311 36.4269 258.268C37.2142 258.225 38.0021 258.341 38.7429 258.611C38.3963 257.324 38.3649 255.972 38.6511 254.67C37.1247 255.038 35.5175 254.868 34.1021 254.189Z" fill="#B6D3FF"/>
<path d="M266.977 111.382C266.732 111.382 266.495 111.297 266.305 111.143C266.192 111.05 266.1 110.936 266.034 110.805C265.437 109.569 264.92 108.295 264.488 106.991C263.097 103.082 261.784 99.3887 255.965 97.0342C255.776 96.9578 255.613 96.8286 255.497 96.6622C255.38 96.4957 255.314 96.299 255.306 96.0959C255.298 95.8927 255.35 95.6917 255.454 95.517C255.558 95.3423 255.711 95.2014 255.893 95.1112C260.163 93.003 263.857 87.1901 265.536 79.9412C265.59 79.709 265.721 79.502 265.908 79.3538C266.094 79.2055 266.326 79.1248 266.565 79.1248H266.583C266.825 79.1287 267.058 79.2154 267.243 79.3705C267.428 79.5255 267.555 79.7395 267.601 79.9765C268.652 85.333 272.118 93.8318 276.945 93.8318C277.187 93.8318 277.421 93.9148 277.609 94.0669C277.797 94.219 277.927 94.431 277.977 94.6673C278.027 94.9036 277.995 95.15 277.885 95.3652C277.775 95.5803 277.594 95.7513 277.373 95.8493C274.765 97.0075 271.05 100.415 268.169 110.076C267.96 110.778 267.845 111.165 267.286 111.335C267.186 111.367 267.082 111.382 266.977 111.382ZM258.602 95.9352C263.773 98.6784 265.202 102.697 266.478 106.285C266.6 106.628 266.72 106.967 266.842 107.3C269.1 100.738 271.818 97.2122 274.213 95.3283C270.472 93.6001 267.924 88.5253 266.52 84.1723C264.722 89.4024 261.925 93.5665 258.602 95.9352Z" fill="#B6D3FF"/>
<path d="M54.6167 12.4204V219.963C54.6167 224.642 57.6898 231.408 68.6332 231.408H212.924C223.868 231.408 226.206 224.642 226.206 219.963V12.4204C226.206 7.74064 223.868 0.975342 212.924 0.975342H67.8981C56.9548 0.975342 54.6167 7.74064 54.6167 12.4204Z" fill="white"/>
<path d="M224.795 4.79606C221.371 0.304814 215.708 0 210.519 0H77.2573C74.2409 0 71.2245 0 68.208 0C64.9304 0.00477948 61.4963 0.466828 58.7032 2.30897C57.0851 3.44214 55.775 4.9598 54.891 6.72504C54.0071 8.49027 53.5771 10.4475 53.6399 12.4202V213.448C53.6399 215.561 53.6288 217.674 53.6399 219.788C53.614 222.316 54.3709 224.79 55.8069 226.872C58.7525 230.998 63.8059 232.355 68.6601 232.383C71.092 232.397 73.5239 232.383 75.9559 232.383H209.534C214.037 232.383 218.819 232.54 222.627 229.717C226.277 227.011 227.182 222.85 227.182 218.587V14.4572C227.182 11.0395 226.976 7.65848 224.795 4.79606ZM225.229 15.4317V218.779C225.229 219.174 225.233 219.568 225.229 219.962C225.189 224.219 223.077 227.971 218.953 229.49C215.604 230.723 211.796 230.432 208.266 230.432H75.1163C72.9555 230.432 70.7942 230.445 68.6334 230.432C63.4895 230.401 57.9218 228.586 56.1428 223.272C55.7498 222.022 55.5641 220.717 55.5933 219.408V12.4202C55.6201 8.16666 57.754 4.40648 61.8697 2.89246C64.0749 2.17577 66.3902 1.85691 68.7073 1.95081H210.978C211.623 1.95081 212.268 1.947 212.913 1.95081C217.653 1.97851 222.768 3.47829 224.535 8.33667C225.369 10.6299 225.229 13.0399 225.229 15.4317Z" fill="#1F1F1F"/>
<path d="M214.79 16.8869C215.753 16.8761 216.69 16.5742 217.478 16.0211C218.266 15.468 218.868 14.6896 219.205 13.7884C219.526 12.8969 219.569 11.9294 219.329 11.0129C219.089 10.0965 218.577 9.27388 217.861 8.65317C217.002 7.92619 215.916 7.52112 214.791 7.50775C214.174 7.50775 213.563 7.62906 212.994 7.86475C212.424 8.10044 211.906 8.4459 211.47 8.8814C211.034 9.3169 210.688 9.8339 210.452 10.4029C210.216 10.9719 210.095 11.5817 210.095 12.1976C210.097 12.8786 209.845 13.536 209.388 14.0414C208.93 14.5468 208.301 14.8639 207.622 14.931C206.944 14.9981 206.265 14.8103 205.717 14.4043C205.17 13.9982 204.793 13.4031 204.661 12.7348C204.611 11.7326 204.376 10.7482 203.969 9.83058C203.449 8.94088 202.65 8.24714 201.695 7.85656C200.74 7.46598 199.683 7.40031 198.687 7.6697C197.691 7.93909 196.812 8.52854 196.185 9.34696C195.558 10.1654 195.219 11.1672 195.219 12.1976C195.221 12.8786 194.969 13.5358 194.511 14.0411C194.054 14.5463 193.425 14.8634 192.747 14.9305C192.068 14.9976 191.389 14.8099 190.841 14.4039C190.294 13.998 189.917 13.4029 189.786 12.7348C189.735 11.7326 189.5 10.7482 189.094 9.83058C188.573 8.94088 187.774 8.24714 186.819 7.85656C185.864 7.46598 184.807 7.40031 183.811 7.6697C182.816 7.93909 181.936 8.52854 181.309 9.34696C180.683 10.1654 180.343 11.1672 180.343 12.1976C180.345 12.8786 180.093 13.536 179.636 14.0414C179.179 14.5468 178.549 14.8639 177.871 14.931C177.192 14.9981 176.513 14.8103 175.965 14.4043C175.418 13.9982 175.042 13.4031 174.91 12.7348C174.859 11.7326 174.624 10.7482 174.218 9.83058C173.697 8.94093 172.898 8.24723 171.943 7.85669C170.988 7.46614 169.931 7.40049 168.936 7.66987C167.94 7.93926 167.06 8.52868 166.434 9.34707C165.807 10.1654 165.467 11.1672 165.468 12.1976C165.469 12.8786 165.217 13.536 164.76 14.0414C164.303 14.5468 163.674 14.8639 162.995 14.931C162.316 14.9981 161.637 14.8103 161.09 14.4043C160.542 13.9982 160.166 13.4031 160.034 12.7348C159.983 11.7326 159.749 10.7482 159.342 9.83058C158.821 8.94088 158.022 8.24714 157.067 7.85656C156.113 7.46598 155.056 7.40031 154.06 7.6697C153.064 7.93909 152.185 8.52854 151.558 9.34696C150.931 10.1654 150.591 11.1672 150.592 12.1976C150.594 12.8786 150.341 13.536 149.884 14.0414C149.427 14.5468 148.798 14.8639 148.119 14.931C147.441 14.9981 146.761 14.8103 146.214 14.4043C145.666 13.9982 145.29 13.4031 145.158 12.7348C145.107 11.7326 144.873 10.7482 144.466 9.83058C143.946 8.94093 143.146 8.24723 142.191 7.85669C141.237 7.46614 140.18 7.40049 139.184 7.66987C138.188 7.93926 137.309 8.52868 136.682 9.34707C136.055 10.1654 135.716 11.1672 135.716 12.1976C135.718 12.8786 135.465 13.5358 135.008 14.0411C134.551 14.5464 133.922 14.8635 133.243 14.9306C132.565 14.9977 131.885 14.81 131.338 14.404C130.791 13.998 130.414 13.403 130.282 12.7348C130.232 11.7326 129.997 10.7482 129.59 9.83058C129.07 8.94093 128.27 8.24723 127.316 7.85669C126.361 7.46614 125.304 7.40049 124.308 7.66987C123.312 7.93926 122.433 8.52868 121.806 9.34707C121.179 10.1654 120.84 11.1672 120.84 12.1976C120.842 12.8786 120.59 13.536 120.133 14.0414C119.675 14.5468 119.046 14.8639 118.368 14.931C117.689 14.9981 117.01 14.8103 116.462 14.4043C115.915 13.9982 115.538 13.4031 115.406 12.7348C115.356 11.7326 115.121 10.7482 114.714 9.83058C114.194 8.94088 113.395 8.24714 112.44 7.85656C111.485 7.46598 110.428 7.40031 109.432 7.6697C108.436 7.93909 107.557 8.52854 106.93 9.34696C106.303 10.1654 105.964 11.1672 105.964 12.1976C105.966 12.8786 105.714 13.5358 105.257 14.0411C104.799 14.5463 104.17 14.8634 103.492 14.9305C102.813 14.9976 102.134 14.8099 101.586 14.4039C101.039 13.998 100.663 13.4029 100.531 12.7348C100.48 11.7326 100.245 10.7482 99.8386 9.83058C99.3182 8.94088 98.5188 8.24714 97.564 7.85656C96.6093 7.46598 95.5523 7.40031 94.5564 7.6697C93.5606 7.93909 92.6813 8.52854 92.0544 9.34696C91.4276 10.1654 91.0881 11.1672 91.0884 12.1976C91.0903 12.8786 90.8381 13.536 90.381 14.0414C89.9238 14.5468 89.2945 14.8639 88.6159 14.931C87.9373 14.9981 87.2579 14.8103 86.7105 14.4043C86.163 13.9982 85.7866 13.4031 85.6547 12.7348C85.6041 11.7326 85.3695 10.7482 84.9627 9.83058C84.4423 8.94088 83.6429 8.24714 82.6882 7.85656C81.7334 7.46598 80.6764 7.40031 79.6806 7.6697C78.6847 7.93909 77.8054 8.52854 77.1786 9.34696C76.5517 10.1654 76.2122 11.1672 76.2125 12.1976C76.2127 12.8034 76.0117 13.3923 75.641 13.8718C75.2703 14.3514 74.7509 14.6947 74.1639 14.848C73.577 15.0013 72.9558 14.9558 72.3975 14.7189C71.8392 14.4819 71.3753 14.0667 71.0785 13.5383C70.8238 12.9742 70.6948 12.3615 70.7004 11.7428C70.6289 10.9884 70.3746 10.2628 69.9595 9.62857C69.4819 8.89961 68.8104 8.31804 68.0202 7.94914C67.23 7.58023 66.3524 7.43861 65.4861 7.54018C64.6198 7.64174 63.799 7.98246 63.1158 8.52409C62.4326 9.06573 61.9142 9.78682 61.6186 10.6064C61.2979 11.4979 61.2546 12.4653 61.4945 13.3818C61.7344 14.2983 62.2461 15.1208 62.9626 15.7415C63.8211 16.4684 64.9066 16.8734 66.032 16.8869C66.7139 16.8851 67.372 17.137 67.878 17.5936C68.384 18.0501 68.7016 18.6785 68.7688 19.3562C68.836 20.0339 68.648 20.7123 68.2415 21.2591C67.835 21.8058 67.2391 22.1818 66.5701 22.3136C65.5666 22.3638 64.5808 22.5979 63.662 23.0042C62.7712 23.524 62.0766 24.3223 61.6855 25.2758C61.2945 26.2293 61.2287 27.2849 61.4984 28.2794C61.7681 29.274 62.3583 30.1522 63.1777 30.7782C63.9972 31.4043 65.0002 31.7435 66.032 31.7433C66.7139 31.7413 67.3721 31.9932 67.8781 32.4497C68.3842 32.9061 68.7018 33.5345 68.769 34.2123C68.8362 34.89 68.6482 35.5684 68.2417 36.1151C67.8351 36.6619 67.2392 37.0378 66.5701 37.1695C65.5666 37.2203 64.5808 37.4547 63.662 37.861C62.7712 38.3808 62.0766 39.1791 61.6856 40.1326C61.2945 41.086 61.2288 42.1416 61.4985 43.1361C61.7682 44.1306 62.3584 45.0087 63.1778 45.6348C63.9972 46.2608 65.0003 46.5999 66.032 46.5997C66.7139 46.5977 67.3722 46.8496 67.8783 47.3061C68.3843 47.7626 68.702 48.3911 68.7692 49.0688C68.8364 49.7466 68.6484 50.425 68.2418 50.9718C67.8352 51.5186 67.2392 51.8945 66.5701 52.0262C65.5666 52.0765 64.5808 52.3105 63.662 52.7168C62.7712 53.2366 62.0766 54.035 61.6855 54.9885C61.2945 55.942 61.2287 56.9975 61.4984 57.9921C61.7681 58.9866 62.3583 59.8648 63.1777 60.4909C63.9972 61.117 65.0002 61.4561 66.032 61.4559C66.7139 61.454 67.3721 61.7058 67.8781 62.1623C68.3842 62.6188 68.7018 63.2472 68.769 63.9249C68.8362 64.6026 68.6482 65.281 68.2417 65.8278C67.8351 66.3745 67.2392 66.7504 66.5701 66.8821C65.5666 66.9329 64.5808 67.1673 63.662 67.5737C62.7712 68.0934 62.0766 68.8917 61.6856 69.8452C61.2945 70.7987 61.2288 71.8542 61.4985 72.8487C61.7682 73.8432 62.3584 74.7214 63.1778 75.3474C63.9972 75.9734 65.0003 76.3125 66.032 76.3123C66.7139 76.3103 67.3722 76.5622 67.8783 77.0187C68.3843 77.4753 68.702 78.1037 68.7692 78.7815C68.8364 79.4592 68.6484 80.1377 68.2418 80.6845C67.8352 81.2313 67.2392 81.6072 66.5701 81.7389C65.5666 81.7891 64.5808 82.0232 63.662 82.4295C62.7712 82.9493 62.0766 83.7477 61.6855 84.7011C61.2944 85.6546 61.2286 86.7102 61.4983 87.7048C61.768 88.6994 62.3582 89.5775 63.1777 90.2036C63.9971 90.8297 65.0002 91.1688 66.032 91.1686C66.7139 91.1666 67.3721 91.4184 67.8781 91.8749C68.3842 92.3314 68.7018 92.9598 68.769 93.6375C68.8362 94.3152 68.6482 94.9936 68.2417 95.5404C67.8351 96.0872 67.2392 96.4631 66.5701 96.5947C65.5665 96.6453 64.5808 96.8797 63.662 97.2863C62.7712 97.8061 62.0766 98.6044 61.6856 99.5578C61.2945 100.511 61.2288 101.567 61.4985 102.561C61.7682 103.556 62.3584 104.434 63.1778 105.06C63.9972 105.686 65.0003 106.025 66.032 106.025C66.7139 106.023 67.372 106.275 67.878 106.732C68.384 107.188 68.7016 107.816 68.7688 108.494C68.836 109.172 68.648 109.85 68.2415 110.397C67.835 110.944 67.2391 111.32 66.5701 111.452C65.5666 111.502 64.5808 111.736 63.662 112.142C62.7712 112.662 62.0766 113.46 61.6855 114.414C61.2944 115.367 61.2286 116.423 61.4983 117.417C61.768 118.412 62.3582 119.29 63.1777 119.916C63.9971 120.542 65.0002 120.881 66.032 120.881C66.7139 120.879 67.3721 121.131 67.8781 121.588C68.3842 122.044 68.7018 122.672 68.769 123.35C68.8362 124.028 68.6482 124.706 68.2417 125.253C67.8351 125.8 67.2392 126.176 66.5701 126.307C65.5665 126.358 64.5808 126.592 63.662 126.999C62.7712 127.519 62.0766 128.317 61.6856 129.27C61.2945 130.224 61.2288 131.279 61.4985 132.274C61.7682 133.269 62.3584 134.147 63.1778 134.773C63.9972 135.399 65.0003 135.738 66.032 135.738C66.7139 135.736 67.3721 135.987 67.8781 136.444C68.3842 136.9 68.7018 137.529 68.769 138.207C68.8362 138.884 68.6482 139.563 68.2417 140.109C67.8351 140.656 67.2392 141.032 66.5701 141.164C65.5666 141.214 64.5809 141.449 63.662 141.855C62.7712 142.375 62.0766 143.173 61.6855 144.126C61.2945 145.08 61.2287 146.136 61.4984 147.13C61.7681 148.125 62.3583 149.003 63.1777 149.629C63.9972 150.255 65.0002 150.594 66.032 150.594C66.714 150.592 67.3722 150.844 67.8784 151.3C68.3845 151.757 68.7022 152.385 68.7694 153.063C68.8367 153.741 68.6486 154.419 68.242 154.966C67.8353 155.513 67.2393 155.888 66.5701 156.02C65.5666 156.071 64.5809 156.305 63.662 156.711C62.7712 157.231 62.0766 158.029 61.6855 158.983C61.2945 159.936 61.2287 160.992 61.4984 161.986C61.7681 162.981 62.3583 163.859 63.1777 164.485C63.9972 165.111 65.0002 165.45 66.032 165.45C66.7139 165.448 67.3721 165.7 67.8781 166.157C68.3842 166.613 68.7018 167.241 68.769 167.919C68.8362 168.597 68.6482 169.275 68.2417 169.822C67.8351 170.369 67.2392 170.745 66.5701 170.876C65.5666 170.927 64.5809 171.161 63.662 171.567C62.7712 172.087 62.0766 172.886 61.6855 173.839C61.2945 174.793 61.2287 175.848 61.4984 176.843C61.7681 177.837 62.3583 178.715 63.1777 179.342C63.9972 179.968 65.0002 180.307 66.032 180.307C66.7139 180.305 67.3721 180.556 67.8781 181.013C68.3842 181.469 68.7018 182.098 68.769 182.776C68.8362 183.453 68.6482 184.132 68.2417 184.678C67.8351 185.225 67.2392 185.601 66.5701 185.733C65.5666 185.783 64.5809 186.018 63.662 186.424C62.7712 186.944 62.0766 187.742 61.6855 188.695C61.2944 189.649 61.2286 190.704 61.4983 191.699C61.768 192.694 62.3582 193.572 63.1777 194.198C63.9971 194.824 65.0002 195.163 66.032 195.163C66.7139 195.161 67.3721 195.413 67.8781 195.869C68.3842 196.326 68.7018 196.954 68.769 197.632C68.8362 198.309 68.6482 198.988 68.2417 199.535C67.8351 200.081 67.2392 200.457 66.5701 200.589C65.5666 200.64 64.5809 200.874 63.662 201.28C62.7712 201.8 62.0766 202.598 61.6855 203.552C61.2945 204.505 61.2287 205.561 61.4984 206.555C61.7681 207.55 62.3583 208.428 63.1777 209.054C63.9972 209.68 65.0002 210.019 66.032 210.019C66.7139 210.017 67.3721 210.269 67.8781 210.726C68.3842 211.182 68.7018 211.81 68.769 212.488C68.8362 213.166 68.6482 213.844 68.2417 214.391C67.8351 214.938 67.2392 215.314 66.5701 215.445C65.5666 215.496 64.5809 215.73 63.662 216.136C63.0505 216.493 62.5277 216.983 62.1328 217.57C61.7378 218.157 61.4809 218.826 61.3813 219.526C61.2817 220.226 61.3419 220.94 61.5575 221.614C61.7731 222.287 62.1385 222.904 62.6263 223.416C63.1141 223.929 63.7117 224.325 64.3744 224.574C65.0371 224.824 65.7477 224.92 66.453 224.857C67.1582 224.793 67.84 224.571 68.4472 224.207C69.0543 223.843 69.5712 223.346 69.9591 222.755C70.3743 222.12 70.6286 221.395 70.7 220.64C70.6944 220.022 70.8234 219.409 71.0781 218.845C71.3749 218.316 71.8387 217.901 72.397 217.664C72.9554 217.427 73.5767 217.382 74.1636 217.535C74.7506 217.688 75.2701 218.032 75.6408 218.511C76.0114 218.991 76.2124 219.58 76.2121 220.186C76.2118 221.216 76.5513 222.218 77.1781 223.036C77.805 223.855 78.6843 224.444 79.6801 224.714C80.676 224.983 81.733 224.917 82.6878 224.527C83.6425 224.136 84.4419 223.442 84.9623 222.553C85.3686 221.635 85.6032 220.651 85.6543 219.648C85.7862 218.98 86.1626 218.385 86.71 217.979C87.2575 217.573 87.9368 217.385 88.6155 217.452C89.2941 217.519 89.9234 217.837 90.3805 218.342C90.8377 218.847 91.0899 219.505 91.088 220.186C91.0877 221.216 91.4272 222.218 92.054 223.036C92.6808 223.855 93.5601 224.444 94.556 224.714C95.5519 224.983 96.6089 224.917 97.5636 224.527C98.5184 224.136 99.3178 223.442 99.8382 222.553C100.244 221.635 100.479 220.651 100.53 219.648C100.662 218.98 101.039 218.385 101.586 217.979C102.133 217.573 102.813 217.386 103.491 217.453C104.17 217.52 104.799 217.837 105.256 218.342C105.713 218.847 105.966 219.505 105.964 220.186C105.963 221.216 106.303 222.218 106.93 223.036C107.557 223.855 108.436 224.444 109.432 224.714C110.428 224.983 111.485 224.917 112.439 224.527C113.394 224.136 114.194 223.442 114.714 222.553C115.12 221.635 115.355 220.651 115.406 219.648C115.538 218.98 115.914 218.385 116.462 217.979C117.009 217.573 117.688 217.385 118.367 217.452C119.046 217.519 119.675 217.837 120.132 218.342C120.589 218.847 120.842 219.505 120.84 220.186C120.839 221.216 121.179 222.218 121.806 223.036C122.433 223.855 123.312 224.444 124.308 224.713C125.303 224.983 126.36 224.917 127.315 224.527C128.27 224.136 129.069 223.442 129.59 222.553C129.996 221.635 130.231 220.651 130.282 219.648C130.414 218.98 130.79 218.385 131.338 217.979C131.885 217.573 132.564 217.386 133.243 217.453C133.921 217.52 134.551 217.837 135.008 218.342C135.465 218.847 135.717 219.505 135.716 220.186C135.715 221.216 136.055 222.218 136.682 223.036C137.308 223.855 138.188 224.444 139.184 224.713C140.179 224.983 141.236 224.917 142.191 224.527C143.146 224.136 143.945 223.442 144.466 222.553C144.872 221.635 145.106 220.651 145.158 219.648C145.289 218.98 145.666 218.385 146.213 217.979C146.761 217.573 147.44 217.385 148.119 217.452C148.797 217.519 149.427 217.837 149.884 218.342C150.341 218.847 150.593 219.505 150.591 220.186C150.591 221.216 150.93 222.218 151.557 223.036C152.184 223.855 153.063 224.444 154.059 224.714C155.055 224.983 156.112 224.917 157.067 224.527C158.022 224.136 158.821 223.442 159.341 222.553C159.748 221.635 159.982 220.651 160.033 219.648C160.165 218.98 160.542 218.385 161.089 217.979C161.637 217.573 162.316 217.385 162.995 217.452C163.673 217.519 164.303 217.837 164.76 218.342C165.217 218.847 165.469 219.505 165.467 220.186C165.467 221.216 165.806 222.218 166.433 223.036C167.06 223.855 167.939 224.444 168.935 224.713C169.931 224.983 170.988 224.917 171.943 224.527C172.897 224.136 173.697 223.442 174.217 222.553C174.624 221.635 174.858 220.651 174.909 219.648C175.041 218.98 175.417 218.385 175.965 217.979C176.512 217.573 177.192 217.385 177.87 217.452C178.549 217.519 179.178 217.837 179.635 218.342C180.093 218.847 180.345 219.505 180.343 220.186C180.343 221.216 180.682 222.218 181.309 223.036C181.936 223.855 182.815 224.444 183.811 224.714C184.807 224.983 185.864 224.917 186.819 224.527C187.773 224.136 188.573 223.442 189.093 222.553C189.499 221.635 189.734 220.651 189.785 219.648C189.917 218.98 190.294 218.385 190.841 217.979C191.388 217.573 192.068 217.386 192.746 217.453C193.425 217.52 194.054 217.837 194.511 218.342C194.968 218.847 195.22 219.505 195.219 220.186C195.218 221.216 195.558 222.218 196.185 223.036C196.812 223.855 197.691 224.444 198.687 224.714C199.683 224.983 200.74 224.917 201.694 224.527C202.649 224.136 203.448 223.442 203.969 222.553C204.375 221.635 204.61 220.651 204.661 219.648C204.793 218.98 205.169 218.385 205.717 217.979C206.264 217.573 206.943 217.385 207.622 217.452C208.301 217.519 208.93 217.837 209.387 218.342C209.844 218.847 210.096 219.505 210.095 220.186C210.095 221.008 210.311 221.816 210.722 222.528C211.133 223.24 211.725 223.832 212.437 224.245C213.15 224.657 213.958 224.874 214.781 224.876C215.605 224.878 216.414 224.663 217.128 224.254C217.842 223.845 218.436 223.255 218.85 222.544C219.264 221.834 219.484 221.027 219.487 220.204C219.49 219.382 219.277 218.573 218.869 217.859C218.46 217.145 217.871 216.551 217.16 216.136C216.241 215.731 215.256 215.497 214.252 215.445C213.583 215.314 212.987 214.938 212.58 214.391C212.174 213.844 211.986 213.166 212.053 212.488C212.12 211.81 212.438 211.182 212.944 210.726C213.45 210.269 214.108 210.017 214.79 210.019C215.822 210.019 216.825 209.68 217.644 209.054C218.464 208.428 219.054 207.55 219.324 206.555C219.594 205.561 219.528 204.505 219.137 203.552C218.746 202.598 218.051 201.8 217.16 201.28C216.241 200.874 215.256 200.64 214.252 200.589C213.583 200.457 212.987 200.081 212.58 199.535C212.174 198.988 211.986 198.309 212.053 197.632C212.12 196.954 212.438 196.326 212.944 195.869C213.45 195.413 214.108 195.161 214.79 195.163C215.822 195.163 216.825 194.824 217.644 194.198C218.464 193.572 219.054 192.694 219.324 191.699C219.593 190.705 219.528 189.649 219.137 188.695C218.746 187.742 218.051 186.944 217.16 186.424C216.241 186.018 215.256 185.784 214.252 185.733C213.583 185.601 212.987 185.225 212.58 184.678C212.174 184.132 211.986 183.453 212.053 182.776C212.12 182.098 212.438 181.469 212.944 181.013C213.45 180.556 214.108 180.305 214.79 180.307C215.822 180.307 216.825 179.968 217.644 179.342C218.464 178.715 219.054 177.837 219.324 176.843C219.594 175.848 219.528 174.793 219.137 173.839C218.746 172.886 218.051 172.087 217.16 171.567C216.241 171.162 215.256 170.928 214.252 170.876C213.583 170.745 212.987 170.369 212.58 169.822C212.174 169.275 211.986 168.597 212.053 167.919C212.12 167.241 212.438 166.613 212.944 166.157C213.45 165.7 214.108 165.448 214.79 165.45C215.822 165.45 216.825 165.111 217.644 164.485C218.464 163.859 219.054 162.981 219.324 161.986C219.594 160.992 219.528 159.936 219.137 158.983C218.746 158.029 218.051 157.231 217.16 156.711C216.241 156.306 215.256 156.071 214.252 156.02C213.583 155.888 212.987 155.513 212.58 154.966C212.174 154.419 211.986 153.741 212.053 153.063C212.12 152.385 212.438 151.757 212.944 151.3C213.45 150.844 214.108 150.592 214.79 150.594C215.822 150.594 216.825 150.255 217.644 149.629C218.464 149.003 219.054 148.125 219.324 147.13C219.594 146.136 219.528 145.08 219.137 144.126C218.746 143.173 218.051 142.375 217.16 141.855C216.241 141.449 215.256 141.215 214.252 141.164C213.583 141.032 212.987 140.656 212.58 140.109C212.174 139.563 211.986 138.884 212.053 138.207C212.12 137.529 212.438 136.9 212.944 136.444C213.45 135.987 214.108 135.736 214.79 135.738C215.822 135.738 216.825 135.399 217.644 134.773C218.464 134.147 219.054 133.269 219.324 132.274C219.594 131.28 219.528 130.224 219.137 129.271C218.746 128.317 218.051 127.519 217.16 126.999C216.241 126.593 215.256 126.359 214.252 126.307C213.583 126.176 212.987 125.8 212.58 125.253C212.174 124.706 211.986 124.028 212.053 123.35C212.12 122.672 212.438 122.044 212.944 121.588C213.45 121.131 214.108 120.879 214.79 120.881C215.822 120.881 216.825 120.542 217.645 119.916C218.464 119.29 219.054 118.412 219.324 117.417C219.594 116.423 219.528 115.367 219.137 114.414C218.746 113.46 218.051 112.662 217.16 112.142C216.241 111.737 215.256 111.502 214.252 111.452C213.583 111.32 212.987 110.944 212.581 110.397C212.174 109.85 211.986 109.172 212.053 108.494C212.121 107.816 212.438 107.188 212.944 106.732C213.45 106.275 214.108 106.023 214.79 106.025C215.822 106.025 216.825 105.686 217.644 105.06C218.464 104.434 219.054 103.556 219.324 102.561C219.594 101.567 219.528 100.511 219.137 99.5579C218.746 98.6044 218.051 97.8061 217.16 97.2863C216.241 96.8804 215.256 96.646 214.252 96.5947C213.583 96.4631 212.987 96.0872 212.58 95.5404C212.174 94.9936 211.986 94.3152 212.053 93.6375C212.12 92.9598 212.438 92.3314 212.944 91.8749C213.45 91.4184 214.108 91.1666 214.79 91.1686C215.822 91.1687 216.825 90.8296 217.644 90.2035C218.464 89.5774 219.054 88.6993 219.324 87.7048C219.593 86.7103 219.528 85.6547 219.137 84.7012C218.746 83.7477 218.051 82.9494 217.16 82.4295C216.241 82.0239 215.256 81.7898 214.252 81.7389C213.583 81.6072 212.987 81.2313 212.58 80.6845C212.174 80.1377 211.986 79.4592 212.053 78.7815C212.12 78.1037 212.438 77.4753 212.944 77.0187C213.45 76.5622 214.108 76.3103 214.79 76.3123C215.822 76.3126 216.825 75.9735 217.644 75.3474C218.464 74.7214 219.054 73.8433 219.324 72.8488C219.594 71.8542 219.528 70.7987 219.137 69.8452C218.746 68.8918 218.051 68.0934 217.16 67.5737C216.241 67.1677 215.256 66.9333 214.252 66.8821C213.583 66.7504 212.987 66.3745 212.58 65.8278C212.174 65.281 211.986 64.6026 212.053 63.9249C212.12 63.2472 212.438 62.6188 212.944 62.1623C213.45 61.7058 214.108 61.454 214.79 61.4559C215.822 61.4561 216.825 61.117 217.644 60.4909C218.464 59.8649 219.054 58.9867 219.324 57.9921C219.594 56.9976 219.528 55.942 219.137 54.9885C218.746 54.035 218.051 53.2366 217.16 52.7168C216.241 52.3112 215.256 52.0772 214.252 52.0262C213.583 51.8945 212.987 51.5186 212.58 50.9718C212.174 50.425 211.986 49.7466 212.053 49.0688C212.12 48.3911 212.438 47.7626 212.944 47.3061C213.45 46.8496 214.108 46.5977 214.79 46.5997C215.822 46.5999 216.825 46.2608 217.644 45.6348C218.464 45.0088 219.054 44.1307 219.324 43.1361C219.594 42.1416 219.528 41.0861 219.137 40.1326C218.746 39.1791 218.051 38.3808 217.16 37.861C216.241 37.4551 215.256 37.2207 214.252 37.1695C213.583 37.0378 212.987 36.6619 212.58 36.1151C212.174 35.5684 211.986 34.89 212.053 34.2123C212.12 33.5345 212.438 32.9061 212.944 32.4497C213.45 31.9932 214.108 31.7413 214.79 31.7433C215.822 31.7435 216.825 31.4044 217.644 30.7783C218.464 30.1522 219.054 29.2741 219.324 28.2795C219.594 27.2849 219.528 26.2294 219.137 25.2758C218.746 24.3223 218.051 23.524 217.16 23.0042C216.241 22.5986 215.256 22.3645 214.252 22.3136C213.583 22.1818 212.987 21.8058 212.581 21.2591C212.174 20.7123 211.986 20.0339 212.053 19.3562C212.121 18.6785 212.438 18.0501 212.944 17.5936C213.45 17.137 214.108 16.8851 214.79 16.8869ZM213.746 9.6592C213.608 9.72631 213.683 9.68534 213.746 9.6592V9.6592ZM212.249 11.1537C212.276 11.0899 212.315 11.0172 212.249 11.1537V11.1537ZM212.249 221.229C212.275 221.292 212.315 221.366 212.249 221.229V221.229ZM213.746 222.724C213.607 222.657 213.682 222.698 213.746 222.724V222.724ZM212.42 23.6747C213.339 24.0805 214.325 24.3147 215.328 24.3657C215.998 24.4973 216.594 24.8732 217 25.42C217.407 25.9668 217.595 26.6454 217.528 27.3232C217.461 28.0011 217.143 28.6296 216.637 29.0861C216.131 29.5427 215.472 29.7945 214.79 29.7924C213.758 29.7921 212.755 30.1312 211.936 30.7573C211.117 31.3833 210.526 32.2614 210.257 33.2559C209.987 34.2504 210.053 35.306 210.444 36.2595C210.835 37.2129 211.529 38.0113 212.42 38.531C213.339 38.9368 214.325 39.171 215.328 39.2221C215.998 39.3537 216.594 39.7296 217 40.2764C217.407 40.8232 217.595 41.5018 217.528 42.1796C217.461 42.8575 217.143 43.486 216.637 43.9425C216.131 44.399 215.472 44.6508 214.79 44.6488C213.758 44.6485 212.755 44.9875 211.936 45.6135C211.116 46.2396 210.526 47.1177 210.257 48.1122C209.987 49.1067 210.053 50.1623 210.444 51.1158C210.835 52.0692 211.529 52.8675 212.42 53.3873C213.339 53.7931 214.325 54.0273 215.328 54.0784C215.998 54.2099 216.594 54.5858 217 55.1327C217.407 55.6795 217.595 56.358 217.528 57.0359C217.461 57.7137 217.143 58.3422 216.637 58.7988C216.131 59.2553 215.472 59.5071 214.79 59.505C213.758 59.5048 212.755 59.8439 211.936 60.4699C211.117 61.0959 210.526 61.974 210.257 62.9686C209.987 63.9631 210.053 65.0186 210.444 65.9721C210.835 66.9256 211.529 67.7239 212.42 68.2437C213.339 68.6494 214.325 68.8836 215.328 68.9347C215.998 69.0663 216.594 69.4422 217 69.989C217.407 70.5358 217.595 71.2144 217.528 71.8922C217.461 72.5701 217.143 73.1986 216.637 73.6551C216.131 74.1117 215.472 74.3635 214.79 74.3614C213.758 74.3611 212.755 74.7002 211.936 75.3262C211.117 75.9523 210.526 76.8304 210.257 77.8249C209.987 78.8195 210.053 79.875 210.444 80.8285C210.835 81.7819 211.529 82.5802 212.42 83.1C213.339 83.5057 214.325 83.7399 215.328 83.791C215.998 83.9226 216.594 84.2985 217 84.8453C217.407 85.3921 217.595 86.0707 217.528 86.7485C217.461 87.4264 217.143 88.0549 216.637 88.5114C216.131 88.9679 215.472 89.2197 214.79 89.2177C213.758 89.2174 212.755 89.5565 211.936 90.1825C211.117 90.8085 210.526 91.6867 210.257 92.6812C209.987 93.6757 210.053 94.7313 210.444 95.6847C210.835 96.6382 211.529 97.4365 212.42 97.9563C213.339 98.3621 214.325 98.5963 215.328 98.6474C215.998 98.779 216.594 99.1548 217 99.7017C217.407 100.248 217.595 100.927 217.528 101.605C217.461 102.283 217.143 102.911 216.637 103.368C216.131 103.824 215.472 104.076 214.79 104.074C213.758 104.074 212.755 104.413 211.936 105.039C211.117 105.665 210.526 106.543 210.257 107.538C209.987 108.532 210.053 109.588 210.444 110.541C210.835 111.495 211.529 112.293 212.42 112.813C213.339 113.218 214.325 113.453 215.328 113.504C215.997 113.635 216.593 114.011 217 114.558C217.407 115.105 217.595 115.783 217.527 116.461C217.46 117.139 217.143 117.767 216.636 118.224C216.13 118.68 215.472 118.932 214.79 118.93C213.758 118.93 212.755 119.269 211.936 119.895C211.117 120.521 210.526 121.399 210.257 122.394C209.987 123.388 210.053 124.444 210.444 125.397C210.835 126.351 211.529 127.149 212.42 127.669C213.339 128.075 214.325 128.309 215.328 128.36C215.998 128.492 216.594 128.867 217 129.414C217.407 129.961 217.595 130.64 217.528 131.318C217.461 131.995 217.143 132.624 216.637 133.08C216.131 133.537 215.472 133.789 214.79 133.787C213.758 133.786 212.755 134.125 211.936 134.752C211.117 135.378 210.526 136.256 210.257 137.25C209.987 138.245 210.053 139.3 210.444 140.254C210.835 141.207 211.529 142.006 212.42 142.525C213.339 142.931 214.325 143.165 215.328 143.216C215.998 143.348 216.594 143.724 217 144.271C217.407 144.817 217.595 145.496 217.528 146.174C217.461 146.852 217.143 147.48 216.637 147.937C216.131 148.393 215.472 148.645 214.79 148.643C213.758 148.643 212.755 148.982 211.936 149.608C211.116 150.234 210.526 151.112 210.257 152.106C209.987 153.101 210.053 154.157 210.444 155.11C210.835 156.064 211.529 156.862 212.42 157.382C213.339 157.787 214.325 158.022 215.328 158.073C215.998 158.204 216.594 158.58 217 159.127C217.407 159.674 217.595 160.352 217.528 161.03C217.461 161.708 217.143 162.337 216.637 162.793C216.131 163.25 215.472 163.501 214.79 163.499C213.758 163.499 212.755 163.838 211.936 164.464C211.117 165.09 210.526 165.968 210.257 166.963C209.987 167.957 210.053 169.013 210.444 169.966C210.835 170.92 211.529 171.718 212.42 172.238C213.339 172.644 214.325 172.878 215.328 172.929C215.998 173.061 216.594 173.436 217 173.983C217.407 174.53 217.595 175.209 217.528 175.887C217.461 176.564 217.143 177.193 216.637 177.649C216.131 178.106 215.472 178.358 214.79 178.356C213.758 178.355 212.755 178.694 211.936 179.321C211.117 179.947 210.526 180.825 210.257 181.819C209.987 182.814 210.053 183.869 210.444 184.823C210.835 185.776 211.529 186.575 212.42 187.094C213.339 187.5 214.325 187.734 215.328 187.785C215.998 187.917 216.594 188.293 217 188.84C217.407 189.386 217.595 190.065 217.528 190.743C217.461 191.421 217.143 192.049 216.637 192.506C216.131 192.962 215.472 193.214 214.79 193.212C213.758 193.212 212.755 193.551 211.936 194.177C211.117 194.803 210.526 195.681 210.257 196.675C209.987 197.67 210.053 198.726 210.444 199.679C210.835 200.632 211.529 201.431 212.42 201.951C213.339 202.356 214.325 202.591 215.328 202.642C215.998 202.773 216.594 203.149 217 203.696C217.407 204.243 217.595 204.921 217.528 205.599C217.461 206.277 217.143 206.906 216.637 207.362C216.131 207.819 215.472 208.07 214.79 208.068C213.758 208.068 212.755 208.407 211.936 209.033C211.117 209.659 210.526 210.537 210.257 211.532C209.987 212.526 210.053 213.582 210.444 214.535C210.835 215.489 211.529 216.287 212.42 216.807C213.339 217.213 214.325 217.447 215.328 217.498C215.997 217.63 216.593 218.006 217 218.552C217.407 219.099 217.595 219.778 217.527 220.455C217.46 221.133 217.143 221.762 216.636 222.218C216.13 222.675 215.472 222.927 214.79 222.925C214.67 222.924 214.549 222.919 214.429 222.907H214.424C214.379 222.899 214.333 222.891 214.288 222.882C214.174 222.858 214.061 222.829 213.95 222.795C213.89 222.777 213.831 222.756 213.773 222.735C213.58 222.646 213.393 222.544 213.214 222.431C213.176 222.405 213.14 222.378 213.103 222.353L213.101 222.351C213.014 222.279 212.931 222.203 212.851 222.123C212.771 222.043 212.695 221.96 212.623 221.874C212.595 221.836 212.567 221.796 212.543 221.761C212.429 221.582 212.327 221.395 212.238 221.202C212.217 221.144 212.197 221.085 212.178 221.025C212.144 220.914 212.115 220.801 212.091 220.688C212.082 220.645 212.075 220.602 212.067 220.56C212.055 220.436 212.049 220.311 212.047 220.186C212.048 219.156 211.708 218.154 211.081 217.336C210.454 216.517 209.575 215.928 208.579 215.659C207.583 215.389 206.526 215.455 205.572 215.846C204.617 216.236 203.818 216.93 203.297 217.82C202.891 218.737 202.656 219.722 202.605 220.724C202.473 221.392 202.097 221.987 201.549 222.393C201.002 222.799 200.323 222.987 199.644 222.92C198.965 222.853 198.336 222.536 197.879 222.03C197.422 221.525 197.17 220.867 197.172 220.186C197.172 219.156 196.832 218.154 196.205 217.336C195.578 216.517 194.699 215.928 193.703 215.659C192.708 215.389 191.651 215.455 190.696 215.846C189.741 216.236 188.942 216.93 188.421 217.82C188.015 218.737 187.781 219.722 187.729 220.724C187.597 221.392 187.221 221.987 186.673 222.393C186.126 222.799 185.447 222.987 184.768 222.92C184.089 222.852 183.46 222.535 183.003 222.03C182.546 221.524 182.294 220.867 182.296 220.186C182.296 219.156 181.956 218.154 181.33 217.336C180.703 216.517 179.823 215.928 178.828 215.659C177.832 215.389 176.775 215.455 175.82 215.846C174.865 216.236 174.066 216.93 173.546 217.82C173.139 218.737 172.905 219.722 172.854 220.724C172.722 221.392 172.345 221.987 171.798 222.393C171.25 222.799 170.571 222.987 169.892 222.92C169.214 222.852 168.585 222.535 168.127 222.03C167.67 221.524 167.418 220.867 167.42 220.186C167.42 219.156 167.081 218.154 166.454 217.336C165.827 216.517 164.948 215.928 163.952 215.659C162.956 215.389 161.899 215.455 160.944 215.846C159.99 216.236 159.19 216.93 158.67 217.82C158.263 218.737 158.029 219.722 157.978 220.724C157.846 221.392 157.47 221.987 156.922 222.393C156.374 222.799 155.695 222.987 155.016 222.92C154.338 222.853 153.708 222.536 153.251 222.03C152.794 221.525 152.542 220.867 152.544 220.186C152.544 219.156 152.205 218.154 151.578 217.336C150.951 216.517 150.072 215.928 149.076 215.659C148.08 215.389 147.023 215.455 146.068 215.846C145.114 216.236 144.314 216.93 143.794 217.82C143.388 218.737 143.153 219.722 143.102 220.724C142.97 221.392 142.594 221.987 142.046 222.393C141.499 222.799 140.819 222.987 140.141 222.92C139.462 222.852 138.833 222.535 138.376 222.03C137.919 221.524 137.667 220.867 137.668 220.186C137.669 219.156 137.329 218.154 136.702 217.336C136.075 216.517 135.196 215.928 134.2 215.659C133.204 215.389 132.147 215.455 131.193 215.846C130.238 216.236 129.439 216.93 128.918 217.82C128.512 218.737 128.277 219.722 128.226 220.724C128.094 221.392 127.718 221.987 127.17 222.393C126.623 222.799 125.943 222.987 125.265 222.92C124.586 222.853 123.957 222.536 123.5 222.03C123.043 221.525 122.791 220.867 122.793 220.186C122.793 219.156 122.453 218.154 121.826 217.336C121.199 216.517 120.32 215.928 119.324 215.659C118.328 215.389 117.271 215.455 116.317 215.846C115.362 216.236 114.563 216.93 114.042 217.82C113.636 218.737 113.401 219.722 113.35 220.724C113.218 221.392 112.842 221.987 112.295 222.393C111.747 222.799 111.068 222.987 110.389 222.92C109.71 222.853 109.081 222.536 108.624 222.03C108.167 221.525 107.915 220.867 107.917 220.186C107.917 219.156 107.577 218.154 106.95 217.336C106.324 216.517 105.444 215.928 104.448 215.659C103.453 215.389 102.396 215.455 101.441 215.846C100.486 216.236 99.6869 216.93 99.1665 217.82C98.7601 218.737 98.5256 219.722 98.4745 220.724C98.3425 221.392 97.9661 221.987 97.4185 222.393C96.871 222.799 96.1917 222.987 95.5131 222.92C94.8346 222.852 94.2053 222.535 93.7483 222.03C93.2912 221.524 93.039 220.867 93.0409 220.186C93.0411 219.156 92.7015 218.154 92.0746 217.336C91.4478 216.517 90.5684 215.928 89.5726 215.659C88.5768 215.389 87.5198 215.455 86.5651 215.846C85.6104 216.236 84.8111 216.93 84.2907 217.82C83.8843 218.737 83.6498 219.722 83.5987 220.724C83.4668 221.392 83.0904 221.987 82.5429 222.393C81.9953 222.799 81.3159 222.987 80.6373 222.92C79.9586 222.853 79.3293 222.536 78.8722 222.03C78.4151 221.525 78.163 220.867 78.165 220.186C78.1654 219.127 77.8069 218.099 77.1477 217.27C76.4885 216.44 75.5676 215.858 74.5348 215.618C73.5021 215.378 72.4184 215.495 71.4603 215.948C70.5022 216.402 69.7261 217.166 69.2583 218.116C68.951 218.872 68.7826 219.676 68.7614 220.491C68.7061 220.995 68.5118 221.475 68.2003 221.875C67.8887 222.276 67.472 222.583 66.9964 222.762C66.5209 222.94 66.005 222.984 65.5062 222.888C65.0073 222.791 64.5449 222.559 64.1704 222.216C63.7959 221.873 63.5238 221.433 63.3845 220.945C63.2451 220.457 63.2439 219.94 63.3809 219.451C63.518 218.963 63.7879 218.521 64.1608 218.177C64.5337 217.832 64.9949 217.597 65.4933 217.499C66.4969 217.448 67.4826 217.214 68.4015 216.808C69.2923 216.288 69.9869 215.489 70.378 214.536C70.769 213.582 70.8348 212.527 70.5651 211.532C70.2953 210.538 69.7051 209.66 68.8857 209.034C68.0663 208.408 67.0632 208.069 66.0315 208.069C65.3496 208.071 64.6914 207.819 64.1854 207.362C63.6794 206.906 63.3619 206.277 63.2947 205.6C63.2275 204.922 63.4154 204.244 63.8219 203.697C64.2284 203.15 64.8243 202.774 65.4933 202.642C66.4969 202.592 67.4826 202.357 68.4015 201.951C69.2923 201.431 69.9869 200.633 70.378 199.68C70.769 198.726 70.8348 197.671 70.5651 196.676C70.2953 195.682 69.7051 194.803 68.8857 194.177C68.0663 193.551 67.0632 193.212 66.0315 193.213C65.3496 193.214 64.6914 192.962 64.1854 192.506C63.6794 192.049 63.3619 191.421 63.2947 190.743C63.2275 190.066 63.4154 189.387 63.8219 188.84C64.2284 188.294 64.8243 187.918 65.4933 187.786C66.4969 187.735 67.4826 187.501 68.4015 187.095C69.2923 186.575 69.9869 185.777 70.378 184.823C70.769 183.87 70.8348 182.814 70.5651 181.82C70.2953 180.825 69.7051 179.947 68.8857 179.321C68.0663 178.695 67.0632 178.356 66.0315 178.356C65.3496 178.358 64.6914 178.106 64.1854 177.65C63.6794 177.193 63.3619 176.565 63.2947 175.887C63.2275 175.209 63.4154 174.531 63.8219 173.984C64.2284 173.437 64.8243 173.061 65.4933 172.93C66.4969 172.879 67.4826 172.645 68.4015 172.239C69.2923 171.719 69.9869 170.92 70.378 169.967C70.769 169.013 70.8348 167.958 70.5651 166.963C70.2953 165.969 69.7051 165.091 68.8857 164.465C68.0663 163.839 67.0632 163.5 66.0315 163.5C65.3496 163.502 64.6914 163.25 64.1854 162.793C63.6794 162.337 63.3619 161.708 63.2947 161.031C63.2275 160.353 63.4154 159.675 63.8219 159.128C64.2284 158.581 64.8243 158.205 65.4933 158.073C66.4969 158.023 67.4827 157.788 68.4015 157.382C69.2923 156.862 69.987 156.064 70.378 155.111C70.7691 154.157 70.8349 153.102 70.5652 152.107C70.2954 151.113 69.7052 150.234 68.8858 149.608C68.0663 148.982 67.0632 148.643 66.0315 148.644C65.3496 148.645 64.6914 148.394 64.1854 147.937C63.6794 147.48 63.3619 146.852 63.2947 146.174C63.2275 145.497 63.4154 144.818 63.8219 144.271C64.2284 143.725 64.8243 143.349 65.4933 143.217C66.4969 143.166 67.4826 142.932 68.4015 142.526C69.2923 142.006 69.9869 141.208 70.378 140.254C70.769 139.301 70.8348 138.245 70.5651 137.251C70.2953 136.256 69.7051 135.378 68.8857 134.752C68.0663 134.126 67.0632 133.787 66.0315 133.787C65.3496 133.789 64.6914 133.537 64.1854 133.081C63.6794 132.624 63.3619 131.996 63.2947 131.318C63.2275 130.64 63.4154 129.962 63.8219 129.415C64.2284 128.868 64.8243 128.492 65.4933 128.361C66.4969 128.31 67.4826 128.076 68.4015 127.67C69.2923 127.15 69.9869 126.351 70.378 125.398C70.769 124.444 70.8348 123.389 70.5651 122.394C70.2953 121.4 69.7051 120.522 68.8857 119.896C68.0663 119.27 67.0632 118.931 66.0315 118.931C65.3495 118.933 64.6913 118.681 64.1852 118.224C63.6791 117.768 63.3615 117.139 63.2942 116.462C63.227 115.784 63.4151 115.106 63.8217 114.559C64.2282 114.012 64.8242 113.636 65.4933 113.504C66.4969 113.454 67.4826 113.219 68.4015 112.813C69.2923 112.293 69.9869 111.495 70.378 110.542C70.769 109.588 70.8348 108.533 70.5651 107.538C70.2953 106.544 69.7051 105.665 68.8857 105.039C68.0663 104.413 67.0632 104.074 66.0315 104.075C65.3496 104.076 64.6914 103.825 64.1854 103.368C63.6794 102.911 63.3619 102.283 63.2947 101.605C63.2275 100.928 63.4154 100.249 63.8219 99.7025C64.2284 99.1557 64.8243 98.7798 65.4933 98.648C66.4969 98.5973 67.4826 98.3631 68.4015 97.9569C69.2923 97.4371 69.9869 96.6388 70.378 95.6853C70.769 94.7318 70.8348 93.6763 70.5651 92.6818C70.2953 91.6873 69.7051 90.8091 68.8857 90.1831C68.0663 89.5571 67.0632 89.218 66.0315 89.2183C65.3496 89.2201 64.6914 88.9681 64.1854 88.5116C63.6794 88.0551 63.3619 87.4267 63.2947 86.749C63.2275 86.0713 63.4154 85.3929 63.8219 84.8461C64.2284 84.2993 64.8243 83.9234 65.4933 83.7916C66.4969 83.741 67.4826 83.5068 68.4015 83.1006C69.2923 82.5808 69.9869 81.7825 70.378 80.8291C70.769 79.8756 70.8348 78.82 70.5651 77.8255C70.2953 76.831 69.7051 75.9529 68.8857 75.3268C68.0663 74.7008 67.0632 74.3617 66.0315 74.362C65.3496 74.3638 64.6914 74.1119 64.1854 73.6554C63.6794 73.1988 63.3619 72.5704 63.2947 71.8927C63.2275 71.215 63.4154 70.5366 63.8219 69.9898C64.2284 69.4431 64.8243 69.0671 65.4933 68.9353C66.4969 68.8847 67.4826 68.6504 68.4015 68.2443C69.2923 67.7245 69.9869 66.9262 70.378 65.9727C70.769 65.0192 70.8348 63.9637 70.5651 62.9691C70.2953 61.9746 69.7051 61.0965 68.8857 60.4705C68.0663 59.8444 67.0632 59.5054 66.0315 59.5056C65.3496 59.5074 64.6914 59.2555 64.1854 58.799C63.6794 58.3425 63.3619 57.7141 63.2947 57.0364C63.2275 56.3587 63.4154 55.6803 63.8219 55.1335C64.2284 54.5867 64.8243 54.2108 65.4933 54.079C66.4969 54.0284 67.4827 53.7941 68.4015 53.3879C69.2923 52.8681 69.987 52.0698 70.378 51.1164C70.7691 50.1629 70.8349 49.1073 70.5652 48.1128C70.2954 47.1183 69.7052 46.2401 68.8858 45.6141C68.0663 44.9881 67.0632 44.649 66.0315 44.6493C65.3496 44.6512 64.6914 44.3993 64.1854 43.9427C63.6794 43.4862 63.3619 42.8578 63.2947 42.1801C63.2275 41.5024 63.4154 40.824 63.8219 40.2772C64.2284 39.7304 64.8243 39.3545 65.4933 39.2227C66.4971 39.172 67.483 38.9375 68.402 38.5311C69.2928 38.0114 69.9874 37.213 70.3785 36.2596C70.7695 35.3061 70.8353 34.2505 70.5655 33.256C70.2958 32.2615 69.7056 31.3834 68.8862 30.7573C68.0668 30.1313 67.0637 29.7922 66.032 29.7925C65.3501 29.7943 64.6919 29.5424 64.1859 29.0859C63.6799 28.6293 63.3624 28.0009 63.2951 27.3232C63.2279 26.6455 63.4159 25.9672 63.8224 25.4204C64.2289 24.8736 64.8248 24.4976 65.4938 24.3658C66.4974 24.3152 67.4831 24.081 68.402 23.6748C69.2928 23.155 69.9874 22.3567 70.3785 21.4032C70.7695 20.4497 70.8353 19.3942 70.5655 18.3997C70.2958 17.4051 69.7056 16.527 68.8862 15.901C68.0668 15.275 67.0637 14.9359 66.032 14.9361C65.9074 14.9343 65.7826 14.929 65.6587 14.9156C65.6287 14.9085 65.4952 14.8857 65.4807 14.8824C65.297 14.8382 65.116 14.7831 64.9388 14.7175C64.6088 14.5692 64.3102 14.3594 64.059 14.0993C64.0022 14.0413 63.9486 13.9803 63.8958 13.9189C63.8882 13.905 63.7871 13.775 63.7847 13.7717C63.7214 13.6774 63.6628 13.5804 63.6089 13.4807C63.5971 13.4593 63.5286 13.3174 63.5101 13.285C63.4398 13.1108 63.3842 12.9311 63.344 12.7477C63.3308 12.6882 63.3194 12.6281 63.3092 12.5677L63.303 12.5072C63.2972 12.4038 63.2901 12.301 63.2903 12.1976C63.2905 12.0942 63.2968 11.9909 63.303 11.8876L63.3092 11.8262C63.3165 11.7823 63.3244 11.739 63.3339 11.6961C63.3749 11.4954 63.434 11.2989 63.5107 11.1088C63.5293 11.0736 63.5761 10.975 63.5857 10.957C63.6463 10.8423 63.7129 10.7308 63.7853 10.6231C63.7986 10.6036 63.8854 10.4931 63.8957 10.4768C63.9488 10.4148 64.0026 10.3534 64.0596 10.2953C64.3118 10.022 64.6213 9.80756 64.9658 9.6671C64.8258 9.73138 65.157 9.5999 65.1922 9.58907C65.2874 9.55948 65.3838 9.53393 65.4813 9.5124C65.4835 9.51191 65.63 9.48665 65.6605 9.47904C65.7841 9.46568 65.9085 9.46051 66.0325 9.45856C66.7057 9.46471 67.3537 9.71501 67.8559 10.1629C68.358 10.6107 68.68 11.2255 68.7619 11.8929C68.7826 12.7079 68.951 13.5125 69.2588 14.2676C69.7268 15.2177 70.5029 15.9816 71.461 16.435C72.419 16.8883 73.5026 17.0045 74.5351 16.7645C75.5677 16.5246 76.4886 15.9426 77.1478 15.1134C77.8069 14.2841 78.1657 13.2565 78.1655 12.1977C78.1635 11.5166 78.4156 10.8592 78.8728 10.3537C79.3299 9.84826 79.9591 9.53101 80.6378 9.46386C81.3165 9.39671 81.9958 9.58448 82.5434 9.99053C83.0909 10.3966 83.4673 10.9918 83.5992 11.66C83.6498 12.6623 83.8844 13.6467 84.2912 14.5643C84.8116 15.454 85.6109 16.1477 86.5656 16.5383C87.5204 16.9289 88.5773 16.9946 89.5731 16.7252C90.569 16.4559 91.4483 15.8665 92.0752 15.0482C92.702 14.2298 93.0416 13.228 93.0414 12.1977C93.0395 11.5167 93.2917 10.8594 93.7488 10.354C94.2059 9.84869 94.8351 9.5315 95.5137 9.46436C96.1923 9.39722 96.8715 9.58493 97.419 9.99088C97.9665 10.3968 98.343 10.9919 98.475 11.66C98.5256 12.6623 98.7602 13.6467 99.1669 14.5643C99.6874 15.454 100.487 16.1477 101.441 16.5383C102.396 16.9289 103.453 16.9946 104.449 16.7252C105.445 16.4559 106.324 15.8665 106.951 15.0482C107.578 14.2298 107.917 13.228 107.917 12.1977C107.915 11.5166 108.167 10.8592 108.624 10.3537C109.082 9.84826 109.711 9.53101 110.389 9.46386C111.068 9.39671 111.747 9.58448 112.295 9.99053C112.843 10.3966 113.219 10.9918 113.351 11.66C113.401 12.6623 113.636 13.6467 114.043 14.5643C114.563 15.454 115.363 16.1477 116.317 16.5383C117.272 16.9289 118.329 16.9946 119.325 16.7252C120.321 16.4559 121.2 15.8665 121.827 15.0482C122.454 14.2298 122.793 13.228 122.793 12.1977C122.791 11.5166 123.043 10.8592 123.5 10.3537C123.957 9.84826 124.587 9.53101 125.265 9.46386C125.944 9.39671 126.623 9.58448 127.171 9.99053C127.718 10.3966 128.095 10.9918 128.227 11.66C128.277 12.6623 128.512 13.6467 128.919 14.5643C129.439 15.4539 130.238 16.1476 131.193 16.5382C132.148 16.9288 133.205 16.9945 134.201 16.7251C135.196 16.4558 136.076 15.8664 136.703 15.0481C137.329 14.2298 137.669 13.228 137.669 12.1977C137.667 11.5167 137.919 10.8594 138.376 10.354C138.833 9.84869 139.463 9.5315 140.141 9.46436C140.82 9.39722 141.499 9.58493 142.047 9.99088C142.594 10.3968 142.971 10.9919 143.102 11.66C143.153 12.6623 143.388 13.6467 143.794 14.5643C144.315 15.454 145.114 16.1477 146.069 16.5383C147.024 16.9289 148.081 16.9946 149.076 16.7252C150.072 16.4559 150.952 15.8665 151.578 15.0482C152.205 14.2298 152.545 13.228 152.545 12.1977C152.543 11.5166 152.795 10.8592 153.252 10.3537C153.709 9.84826 154.338 9.53101 155.017 9.46386C155.696 9.39671 156.375 9.58448 156.923 9.99053C157.47 10.3966 157.846 10.9918 157.978 11.66C158.029 12.6623 158.263 13.6467 158.67 14.5643C159.191 15.454 159.99 16.1477 160.945 16.5383C161.9 16.9289 162.956 16.9946 163.952 16.7252C164.948 16.4559 165.827 15.8665 166.454 15.0482C167.081 14.2298 167.421 13.228 167.421 12.1977C167.419 11.5167 167.671 10.8594 168.128 10.354C168.585 9.84869 169.214 9.5315 169.893 9.46436C170.571 9.39722 171.251 9.58493 171.798 9.99088C172.346 10.3968 172.722 10.9919 172.854 11.66C172.905 12.6623 173.139 13.6467 173.546 14.5643C174.067 15.454 174.866 16.1477 175.821 16.5383C176.775 16.9289 177.832 16.9946 178.828 16.7252C179.824 16.4559 180.703 15.8665 181.33 15.0482C181.957 14.2298 182.297 13.228 182.296 12.1977C182.294 11.5167 182.547 10.8594 183.004 10.354C183.461 9.84869 184.09 9.5315 184.769 9.46436C185.447 9.39722 186.126 9.58493 186.674 9.99088C187.221 10.3968 187.598 10.9919 187.73 11.66C187.781 12.6623 188.015 13.6467 188.422 14.5643C188.942 15.4539 189.742 16.1476 190.696 16.5382C191.651 16.9287 192.708 16.9944 193.704 16.7251C194.7 16.4557 195.579 15.8664 196.206 15.0481C196.833 14.2297 197.172 13.228 197.172 12.1977C197.17 11.5166 197.422 10.8592 197.879 10.3537C198.336 9.84826 198.966 9.53101 199.644 9.46386C200.323 9.39671 201.002 9.58448 201.55 9.99053C202.098 10.3966 202.474 10.9918 202.606 11.66C202.656 12.6623 202.891 13.6467 203.298 14.5643C203.818 15.454 204.618 16.1477 205.572 16.5383C206.527 16.9289 207.584 16.9946 208.58 16.7252C209.576 16.4559 210.455 15.8665 211.082 15.0482C211.709 14.2298 212.048 13.228 212.048 12.1977C212.049 12.0767 212.054 11.9568 212.065 11.8368V11.8325C212.074 11.7867 212.081 11.7416 212.091 11.6959C212.115 11.5821 212.144 11.4695 212.178 11.3583C212.197 11.2987 212.217 11.2396 212.238 11.1815C212.327 10.9888 212.429 10.8023 212.543 10.6234C212.568 10.5862 212.595 10.55 212.621 10.5129L212.623 10.5109C212.695 10.4243 212.771 10.3411 212.851 10.2614C212.931 10.1818 213.014 10.1053 213.1 10.0338C213.138 10.0057 213.178 9.97757 213.214 9.95328C213.393 9.83943 213.58 9.73789 213.773 9.64935C213.831 9.62802 213.89 9.60802 213.95 9.58936C214.061 9.55516 214.174 9.52612 214.288 9.50226C214.33 9.49319 214.373 9.48607 214.416 9.47836C214.54 9.46597 214.665 9.45983 214.79 9.45885C214.915 9.4608 215.04 9.46597 215.163 9.47934C215.194 9.48694 215.327 9.50938 215.341 9.5127C215.525 9.5569 215.706 9.61191 215.883 9.67744C216.213 9.82563 216.512 10.0355 216.763 10.2957C216.82 10.3542 216.874 10.4152 216.927 10.4767C216.935 10.4914 217.035 10.62 217.037 10.623C217.101 10.7172 217.159 10.8145 217.214 10.914C217.225 10.9354 217.294 11.0773 217.312 11.1097C217.383 11.2838 217.438 11.4636 217.479 11.647C217.492 11.7065 217.503 11.7669 217.514 11.8269L217.52 11.8875C217.525 11.9908 217.532 12.0937 217.532 12.1975C217.532 12.3013 217.526 12.4033 217.52 12.5071L217.513 12.568C217.506 12.6118 217.498 12.6558 217.489 12.6986C217.448 12.8992 217.389 13.0958 217.312 13.2857C217.293 13.3211 217.247 13.4197 217.237 13.4377C217.176 13.5525 217.11 13.6639 217.037 13.7716C217.024 13.7911 216.937 13.9026 216.927 13.9179C216.874 13.9794 216.82 14.0408 216.763 14.0988C216.511 14.3721 216.201 14.5866 215.857 14.7271C215.997 14.6628 215.666 14.7942 215.63 14.8051C215.535 14.8346 215.439 14.8601 215.341 14.8818C215.339 14.8818 215.192 14.9075 215.162 14.9151C215.038 14.9284 214.914 14.9337 214.79 14.9355C213.758 14.9353 212.755 15.2744 211.936 15.9004C211.116 16.5264 210.526 17.4046 210.256 18.3991C209.987 19.3936 210.052 20.4491 210.443 21.4026C210.835 22.3561 211.529 23.1549 212.42 23.6747Z" fill="#1F1F1F"/>
<path d="M89.4274 96.5275C89.6515 96.6561 89.9173 96.6915 90.1673 96.626C90.4174 96.5605 90.6316 96.3994 90.7637 96.1775C92.2184 92.9269 93.4734 89.5931 94.8545 86.312C96.0525 89.5559 97.1371 92.8421 98.4113 96.0584C98.4866 96.3036 98.653 96.5108 98.8764 96.6374C99.0998 96.764 99.3632 96.8005 99.6126 96.7395C99.8614 96.6692 100.073 96.5039 100.2 96.2794C100.328 96.0548 100.362 95.7891 100.295 95.5397C98.7139 91.5489 97.4351 87.4469 95.8542 83.4562C95.5849 82.7766 94.4503 82.3713 94.0691 83.2233C92.3026 87.1702 90.8433 91.2461 89.0769 95.1929C88.954 95.4181 88.9218 95.6816 88.9869 95.9297C89.052 96.1778 89.2096 96.3916 89.4274 96.5275Z" fill="#1F1F1F"/>
<path d="M104.058 96.5793C106.883 95.0248 109.207 92.6983 110.757 89.8725C110.853 91.8294 111.013 93.7845 111.216 95.7368C111.223 95.9933 111.328 96.2373 111.51 96.4187C111.691 96.6001 111.936 96.7052 112.192 96.7122C112.451 96.7104 112.698 96.6071 112.881 96.4246C113.064 96.242 113.167 95.9949 113.169 95.7368C112.723 91.7541 112.546 87.7458 112.641 83.7393C112.681 82.47 110.792 82.5053 110.687 83.7393C110.45 85.8427 109.75 87.8678 108.639 89.6702C107.527 91.4725 106.031 93.0078 104.257 94.1664C103.755 90.7297 103.6 87.2512 103.797 83.7836C103.841 82.5282 101.888 82.5296 101.844 83.7836C101.598 87.8711 101.86 91.9733 102.623 95.9966C102.664 96.1396 102.738 96.2714 102.837 96.3821C102.937 96.4927 103.061 96.5793 103.199 96.6354C103.337 96.6915 103.486 96.7156 103.635 96.7059C103.783 96.6961 103.928 96.6529 104.058 96.5793Z" fill="#1F1F1F"/>
<path d="M170.456 96.559C173.282 95.0044 175.606 92.6778 177.155 89.8516C177.252 91.8091 177.411 93.7638 177.614 95.7164C177.621 95.9729 177.726 96.2169 177.908 96.3983C178.09 96.5797 178.334 96.6847 178.591 96.6918C178.849 96.6901 179.097 96.5868 179.279 96.4042C179.462 96.2217 179.566 95.9746 179.567 95.7164C179.121 91.7338 178.944 87.7255 179.039 83.719C179.079 82.4492 177.191 82.485 177.086 83.719C176.848 85.8224 176.148 87.8475 175.037 89.6499C173.925 91.4522 172.429 92.9874 170.656 94.146C170.153 90.7094 169.999 87.2308 170.195 83.7633C170.239 82.5073 168.286 82.5093 168.242 83.7633C167.996 87.8508 168.258 91.953 169.021 95.9763C169.063 96.1192 169.136 96.2509 169.236 96.3615C169.336 96.472 169.459 96.5586 169.597 96.6146C169.735 96.6707 169.884 96.6948 170.033 96.6852C170.182 96.6755 170.326 96.6324 170.456 96.559Z" fill="#1F1F1F"/>
<path d="M116.897 96.5795C119.721 95.0253 122.043 92.7007 123.593 89.8774C123.628 90.5536 123.666 91.2295 123.71 91.9053C123.755 92.5859 123.796 93.0398 124.434 93.4441C124.963 93.7371 125.525 93.9688 126.107 94.1347C126.451 94.2548 127.068 94.3981 127.255 94.7434C127.317 94.9388 127.314 95.1491 127.245 95.3423C127.177 95.5356 127.047 95.7012 126.876 95.8141C126.556 95.9841 126.198 96.0671 125.837 96.0547C125.475 96.0423 125.123 95.935 124.816 95.7435C123.695 95.1844 122.704 96.8666 123.83 97.4277C124.396 97.7526 125.03 97.9417 125.682 97.9802C126.334 98.0187 126.986 97.9055 127.587 97.6496C128.077 97.4037 128.492 97.03 128.788 96.568C129.083 96.106 129.248 95.5728 129.265 95.0249C129.262 94.5331 129.117 94.0526 128.848 93.6409C128.579 93.2291 128.197 92.9034 127.747 92.7026C127.086 92.3739 126.325 92.2187 125.667 91.8806C125.633 90.747 125.516 89.6092 125.48 88.4764C125.429 86.8975 125.429 85.3186 125.48 83.7398C125.519 82.4701 123.632 82.5062 123.526 83.7398C123.288 85.8428 122.589 87.8674 121.477 89.6694C120.366 91.4714 118.871 93.0065 117.097 94.1652C116.595 90.7289 116.441 87.2507 116.637 83.7834C116.681 82.528 114.727 82.5295 114.684 83.7834C114.439 87.8709 114.7 91.973 115.463 95.9965C115.504 96.1395 115.577 96.2713 115.677 96.3819C115.777 96.4926 115.9 96.5792 116.038 96.6353C116.176 96.6914 116.325 96.7155 116.474 96.7059C116.623 96.6962 116.768 96.653 116.897 96.5795Z" fill="#1F1F1F"/>
<path d="M139.719 84.705C139.972 84.6962 140.212 84.5896 140.388 84.4076C140.564 84.2257 140.662 83.9826 140.662 83.7296C140.662 83.4766 140.564 83.2335 140.388 83.0515C140.212 82.8695 139.972 82.7629 139.719 82.7542C137.054 82.7551 134.388 82.7932 131.723 82.7723C131.465 82.7759 131.219 82.8799 131.037 83.062C130.854 83.2442 130.75 83.4901 130.746 83.7477C130.743 85.6099 130.731 87.4726 130.725 89.3348C130.725 89.3446 130.719 89.3525 130.719 89.3624C130.719 89.3701 130.724 89.3767 130.725 89.3844C130.718 91.4885 130.718 93.5927 130.746 95.6964C130.75 95.9538 130.855 96.1996 131.037 96.3816C131.219 96.5636 131.465 96.6677 131.723 96.6718C134.682 96.6975 137.641 96.6632 140.6 96.6718C140.854 96.663 141.094 96.5564 141.27 96.3745C141.446 96.1925 141.544 95.9494 141.544 95.6964C141.544 95.4434 141.446 95.2003 141.27 95.0183C141.094 94.8364 140.854 94.7297 140.6 94.721C137.966 94.7134 135.331 94.7343 132.696 94.7224C132.682 93.2612 132.676 91.7997 132.679 90.3378H137.672C137.931 90.3378 138.18 90.2351 138.363 90.0521C138.546 89.8692 138.649 89.6211 138.649 89.3624C138.649 89.1037 138.546 88.8556 138.363 88.6727C138.18 88.4898 137.931 88.387 137.672 88.387H132.682C132.687 87.1654 132.691 85.9441 132.696 84.7231C135.037 84.7297 137.378 84.7059 139.719 84.705Z" fill="#1F1F1F"/>
<path d="M151.757 90.4307C151.788 92.21 151.824 93.9888 151.935 95.7661C152.013 97.013 153.966 97.0216 153.888 95.7661C153.639 91.764 153.754 87.7509 153.504 83.7492C153.426 82.5023 151.473 82.4937 151.551 83.7492C151.649 85.3261 151.687 86.9044 151.717 88.4833C149.502 88.6393 147.271 88.6462 145.051 88.6181C145.043 87.0011 145.031 85.3841 144.984 83.7677C144.976 83.5148 144.869 83.2753 144.687 83.0995C144.504 82.9237 144.261 82.8255 144.008 82.8255C143.754 82.8255 143.511 82.9237 143.329 83.0995C143.146 83.2753 143.04 83.5148 143.031 83.7677C143.145 87.7668 143.063 91.7676 143.177 95.7664C143.186 96.0193 143.293 96.2588 143.475 96.4346C143.657 96.6104 143.901 96.7086 144.154 96.7086C144.407 96.7086 144.651 96.6104 144.833 96.4346C145.015 96.2588 145.122 96.0193 145.131 95.7664C145.081 94.0342 145.07 92.3015 145.062 90.5694C147.293 90.5964 149.532 90.5897 151.757 90.4307Z" fill="#1F1F1F"/>
<path d="M155.826 94.4949C157.41 95.6647 159.322 96.3087 161.293 96.3361C162.215 96.3559 163.13 96.1606 163.964 95.7658C164.797 95.3709 165.527 94.7873 166.096 94.0614C166.55 93.3841 166.766 92.5757 166.71 91.7627C166.655 90.9497 166.332 90.1778 165.791 89.5678C165.402 89.1449 164.919 88.8202 164.38 88.6205C165.822 87.4913 166.68 85.9153 165.387 84.2259C164.44 83.1518 163.108 82.4925 161.679 82.3906C160.25 82.2886 158.838 82.7522 157.748 83.6811C156.83 84.5422 158.213 85.9196 159.129 85.0604C159.803 84.5355 160.643 84.2722 161.496 84.319C162.349 84.3658 163.156 84.7198 163.767 85.3152C164.406 86.061 163.653 86.7569 163.03 87.2393C162.195 87.8553 161.219 88.2546 160.191 88.4014C159.117 88.582 159.354 90.4408 160.451 90.3175C161.632 90.1841 163.293 89.8931 164.259 90.7871C164.421 90.9482 164.549 91.1397 164.637 91.3506C164.725 91.5615 164.77 91.7877 164.77 92.0161C164.77 92.2445 164.725 92.4706 164.637 92.6815C164.549 92.8924 164.421 93.0839 164.259 93.2451C162.25 95.3459 158.837 94.2277 156.811 92.8107C155.779 92.0887 154.802 93.779 155.826 94.4949Z" fill="#1F1F1F"/>
<path d="M190.427 82.3883C188.882 82.3422 187.336 82.45 185.813 82.7102C184.434 82.8166 183.129 83.375 182.1 84.2985C181.619 84.9341 181.337 85.698 181.291 86.4936C181.244 87.2892 181.435 88.0807 181.839 88.7679C182.696 90.1304 184.244 90.4038 185.722 90.5896C186.466 90.6834 187.213 90.7334 187.961 90.7734C187.476 91.1673 186.999 91.5588 186.529 91.9084C185.095 93.0171 183.472 93.8576 181.739 94.3893C181.497 94.4649 181.294 94.6314 181.172 94.8536C181.051 95.0759 181.021 95.3365 181.088 95.5805C181.155 95.8245 181.315 96.0329 181.533 96.1616C181.752 96.2904 182.011 96.3295 182.258 96.2706C184.12 95.7136 185.869 94.8302 187.422 93.6616C188.11 93.1553 188.774 92.6166 189.438 92.0794C189.564 91.9775 189.675 91.887 189.784 91.7994C189.831 92.9901 189.878 94.1806 189.926 95.3709C189.978 96.6216 191.932 96.6283 191.879 95.3709C191.712 91.3688 191.571 87.3658 191.403 83.3637C191.398 83.1066 191.294 82.8616 191.112 82.6798C190.93 82.498 190.684 82.3935 190.427 82.3883ZM187.062 88.7708C186.456 88.7328 185.853 88.6637 185.254 88.5637C184.995 88.5169 184.736 88.4627 184.482 88.3912C184.188 88.3317 183.915 88.1956 183.691 87.9968C183.466 87.7979 183.299 87.5433 183.205 87.2588C183.111 86.9743 183.093 86.67 183.155 86.3768C183.217 86.0836 183.355 85.8119 183.556 85.5894C183.573 85.5779 183.649 85.4984 183.678 85.476C183.713 85.4512 183.805 85.387 183.824 85.3751C184.012 85.2593 184.211 85.1604 184.416 85.0797C184.987 84.8706 185.577 84.7162 186.177 84.6187C187.27 84.4278 188.378 84.3314 189.488 84.3306C189.55 85.8579 189.611 87.3853 189.669 88.9128C188.8 88.8708 187.931 88.8366 187.062 88.7708Z" fill="#1F1F1F"/>
<path d="M189.028 167.186C185.004 166.004 180.716 166.07 176.73 167.377C172.745 168.683 169.251 171.167 166.711 174.5C165.744 175.784 164.936 177.181 164.307 178.659C162.194 176.899 160.052 175.172 157.926 173.428C154.948 170.986 151.97 168.543 148.992 166.101C148.313 165.545 147.641 164.977 146.954 164.43C146.352 163.894 145.618 163.528 144.828 163.368C144.037 163.208 143.219 163.261 142.456 163.522C141.693 163.782 141.012 164.24 140.485 164.849C139.957 165.458 139.601 166.196 139.453 166.987C138.425 173.195 137.397 179.402 136.369 185.61C135.976 187.981 134.892 191.185 136.397 193.33C136.987 194.155 137.833 194.763 138.803 195.06C139.773 195.357 140.814 195.327 141.766 194.975C142.663 194.667 143.546 194.306 144.434 193.972C150.513 191.689 156.623 189.477 162.676 187.126C162.725 191.078 163.927 194.931 166.135 198.211C167.971 200.923 170.432 203.155 173.312 204.72C176.191 206.285 179.405 207.136 182.682 207.202C185.96 207.269 189.205 206.548 192.146 205.102C195.086 203.655 197.636 201.525 199.581 198.889C201.526 196.254 202.808 193.19 203.321 189.957C203.834 186.723 203.562 183.414 202.528 180.307C201.494 177.201 199.728 174.388 197.379 172.104C195.029 169.821 192.166 168.134 189.028 167.186ZM141.984 192.817C141.125 193.295 140.112 193.415 139.165 193.15C136.58 192.102 137.841 188.612 138.174 186.599L141.337 167.505C141.406 167.047 141.596 166.616 141.885 166.254C142.175 165.892 142.554 165.612 142.986 165.443C143.418 165.273 143.886 165.22 144.345 165.288C144.804 165.357 145.237 165.544 145.6 165.832C146.229 166.301 146.819 166.831 147.425 167.328C150.062 169.491 152.699 171.653 155.336 173.816L162.514 179.702C162.862 179.987 163.258 180.282 163.604 180.612C163.158 182.044 162.87 183.519 162.743 185.013C162.725 185.021 162.71 185.032 162.693 185.039C157.034 187.372 151.205 189.354 145.475 191.506C144.311 191.943 143.147 192.379 141.984 192.817ZM190.126 203.882C187.263 205.059 184.15 205.498 181.072 205.161C177.995 204.824 175.051 203.72 172.512 201.951C169.972 200.182 167.918 197.805 166.538 195.037C165.158 192.27 164.496 189.2 164.612 186.11C165.481 185.441 166.076 184.479 166.288 183.404C166.501 182.328 166.315 181.213 165.766 180.264C166.053 179.482 166.394 178.72 166.787 177.986C168.196 175.374 170.213 173.139 172.667 171.468C175.122 169.798 177.943 168.742 180.893 168.388C183.842 168.035 186.833 168.395 189.614 169.438C192.395 170.481 194.884 172.177 196.871 174.382C198.858 176.587 200.286 179.237 201.032 182.108C201.779 184.979 201.824 187.988 201.163 190.88C200.501 193.772 199.153 196.463 197.233 198.726C195.312 200.989 192.874 202.757 190.126 203.882Z" fill="#B6D3FF"/>
<path d="M187.812 171.18C184.598 170.209 181.161 170.253 177.972 171.307C174.784 172.36 171.999 174.372 169.999 177.066C167.999 179.761 166.881 183.007 166.798 186.36C166.716 189.713 167.673 193.01 169.538 195.799C171.403 198.589 174.086 200.735 177.219 201.943C180.352 203.152 183.782 203.365 187.04 202.552C190.299 201.739 193.227 199.941 195.423 197.404C197.619 194.866 198.977 191.713 199.31 188.375C199.649 184.628 198.693 180.879 196.601 177.75C194.509 174.622 191.408 172.303 187.812 171.18ZM188.625 199.982C185.811 201.154 182.697 201.401 179.733 200.686C176.769 199.971 174.111 198.332 172.143 196.006C170.176 193.68 169.002 190.788 168.791 187.751C168.581 184.713 169.345 181.688 170.972 179.113C172.6 176.539 175.007 174.549 177.843 173.433C180.68 172.317 183.799 172.133 186.748 172.907C189.696 173.681 192.321 175.373 194.242 177.738C196.162 180.103 197.278 183.017 197.428 186.059C197.552 188.998 196.776 191.905 195.203 194.393C193.63 196.88 191.335 198.83 188.625 199.982Z" fill="#B6D3FF"/>
<path d="M181.14 178.326C180.59 178.001 180.041 177.676 179.491 177.35C179.268 177.229 179.006 177.199 178.761 177.267C178.516 177.334 178.307 177.495 178.178 177.714C178.05 177.934 178.012 178.194 178.073 178.441C178.134 178.687 178.289 178.9 178.504 179.035L190.167 185.929C190.717 186.254 191.267 186.579 191.817 186.904C192.04 187.026 192.301 187.055 192.546 186.987C192.791 186.919 193 186.759 193.128 186.54C193.256 186.321 193.294 186.061 193.233 185.814C193.173 185.568 193.018 185.355 192.803 185.22L181.14 178.326Z" fill="#B6D3FF"/>
<path d="M190.044 189.876C186.156 187.578 182.269 185.28 178.381 182.981C177.831 182.657 177.281 182.331 176.731 182.006C176.508 181.884 176.246 181.854 176.001 181.922C175.756 181.99 175.547 182.151 175.419 182.37C175.291 182.589 175.253 182.85 175.314 183.096C175.375 183.343 175.529 183.556 175.745 183.691L187.408 190.585C187.957 190.91 188.507 191.235 189.057 191.56C189.28 191.679 189.541 191.708 189.784 191.639C190.028 191.571 190.236 191.411 190.363 191.193C190.491 190.975 190.529 190.715 190.47 190.47C190.41 190.224 190.257 190.011 190.044 189.876Z" fill="#B6D3FF"/>
<path d="M187.313 194.482L175.651 187.588C175.101 187.263 174.551 186.938 174.001 186.613C173.778 186.492 173.516 186.462 173.271 186.53C173.027 186.598 172.818 186.759 172.69 186.978C172.562 187.197 172.524 187.457 172.584 187.704C172.645 187.95 172.799 188.163 173.014 188.298L184.677 195.192C185.227 195.517 185.777 195.842 186.327 196.167C186.55 196.291 186.813 196.323 187.059 196.255C187.306 196.188 187.516 196.027 187.645 195.806C187.774 195.586 187.811 195.324 187.749 195.077C187.687 194.829 187.531 194.616 187.313 194.482Z" fill="#B6D3FF"/>
<path d="M155.753 176.975L148.52 171.042C147.875 170.513 147.234 169.978 146.584 169.454C146.346 169.222 146.056 169.05 145.738 168.951C145.42 168.853 145.084 168.831 144.756 168.888C144.428 168.944 144.118 169.078 143.852 169.277C143.586 169.477 143.371 169.737 143.225 170.035C143.139 170.153 143.083 170.289 143.062 170.433C142.342 174.776 141.623 179.119 140.904 183.461C140.64 185.055 140.318 186.651 140.11 188.252C140.043 188.61 140.07 188.978 140.189 189.322C140.308 189.666 140.515 189.972 140.789 190.212C141.063 190.451 141.396 190.614 141.753 190.685C142.11 190.757 142.479 190.734 142.825 190.618C143.394 190.446 143.953 190.195 144.509 189.986C149.263 188.2 154.017 186.415 158.771 184.63C159.327 184.477 159.855 184.239 160.337 183.925C160.575 183.727 160.766 183.478 160.896 183.197C161.026 182.916 161.091 182.61 161.087 182.3C161.082 181.99 161.009 181.686 160.871 181.408C160.734 181.131 160.536 180.888 160.292 180.697C158.821 179.411 157.263 178.213 155.753 176.975ZM158.018 182.837C153.663 184.472 149.309 186.108 144.955 187.742C144.622 187.868 142.205 189.009 142.005 188.705C141.866 188.494 142.229 187.355 142.269 187.115C142.432 186.127 142.595 185.14 142.759 184.153C143.488 179.753 144.217 175.352 144.945 170.951C145.074 170.49 145.536 171.108 145.789 171.315C146.455 171.861 147.12 172.407 147.786 172.952C149.762 174.573 151.738 176.194 153.714 177.814C155.297 179.112 156.88 180.41 158.462 181.708C158.591 181.814 159.227 182.238 159.169 182.404C159.119 182.548 158.149 182.788 158.018 182.837Z" fill="#B6D3FF"/>
<path d="M152.919 179.709C150.656 180.559 148.393 181.409 146.13 182.259C145.809 182.379 145.487 182.5 145.165 182.62C144.919 182.695 144.712 182.862 144.585 183.085C144.458 183.308 144.422 183.571 144.483 183.821C144.554 184.069 144.72 184.279 144.944 184.407C145.169 184.534 145.435 184.568 145.685 184.502C147.948 183.652 150.211 182.802 152.474 181.952C152.795 181.831 153.117 181.711 153.439 181.59C153.684 181.515 153.892 181.349 154.019 181.126C154.146 180.903 154.182 180.639 154.121 180.39C154.05 180.142 153.884 179.931 153.66 179.804C153.435 179.676 153.169 179.642 152.919 179.709Z" fill="#B6D3FF"/>
<path d="M146.124 181.055L150.248 179.506L150.834 179.286C151.08 179.212 151.289 179.046 151.416 178.823C151.543 178.599 151.579 178.335 151.516 178.086C151.445 177.838 151.279 177.628 151.054 177.501C150.83 177.374 150.564 177.339 150.315 177.405L146.191 178.954L145.605 179.174C145.358 179.247 145.15 179.413 145.022 179.637C144.895 179.86 144.86 180.124 144.923 180.374C144.994 180.621 145.16 180.831 145.384 180.959C145.609 181.086 145.874 181.12 146.124 181.055Z" fill="#B6D3FF"/>
<path d="M190.902 120.7H89.9204C89.6672 120.709 89.4273 120.816 89.2513 120.998C89.0753 121.179 88.977 121.423 88.977 121.676C88.977 121.929 89.0753 122.172 89.2513 122.354C89.4273 122.536 89.6672 122.642 89.9204 122.651H190.902C191.155 122.642 191.395 122.536 191.571 122.354C191.747 122.172 191.845 121.929 191.845 121.676C191.845 121.423 191.747 121.179 191.571 120.998C191.395 120.816 191.155 120.709 190.902 120.7Z" fill="#1F1F1F"/>
<path d="M159.332 132.256H174.372C174.625 132.247 174.865 132.14 175.041 131.958C175.217 131.776 175.316 131.533 175.316 131.28C175.316 131.027 175.217 130.784 175.041 130.602C174.865 130.42 174.625 130.314 174.372 130.305H106.45C106.197 130.314 105.957 130.42 105.781 130.602C105.605 130.784 105.507 131.027 105.507 131.28C105.507 131.533 105.605 131.776 105.781 131.958C105.957 132.14 106.197 132.247 106.45 132.256H159.332Z" fill="#1F1F1F"/>
<path d="M90.2208 141.26H190.602C190.855 141.252 191.095 141.145 191.271 140.963C191.447 140.781 191.545 140.538 191.545 140.285C191.545 140.032 191.447 139.789 191.271 139.607C191.095 139.425 190.855 139.318 190.602 139.31H90.2208C89.9676 139.318 89.7277 139.425 89.5517 139.607C89.3757 139.789 89.2774 140.032 89.2774 140.285C89.2774 140.538 89.3757 140.781 89.5517 140.963C89.7277 141.145 89.9676 141.252 90.2208 141.26Z" fill="#1F1F1F"/>
<path d="M111.259 148.314C111.005 148.322 110.766 148.429 110.59 148.611C110.414 148.793 110.315 149.036 110.315 149.289C110.315 149.542 110.414 149.785 110.59 149.967C110.766 150.149 111.005 150.256 111.259 150.265H169.564C169.817 150.256 170.057 150.149 170.233 149.967C170.409 149.785 170.507 149.542 170.507 149.289C170.507 149.036 170.409 148.793 170.233 148.611C170.057 148.429 169.817 148.322 169.564 148.314H111.259Z" fill="#1F1F1F"/>
<path d="M190.902 158.589H89.9204C89.6672 158.598 89.4273 158.704 89.2513 158.886C89.0753 159.068 88.977 159.311 88.977 159.564C88.977 159.817 89.0753 160.06 89.2513 160.242C89.4273 160.424 89.6672 160.531 89.9204 160.54H190.902C191.155 160.531 191.395 160.424 191.571 160.242C191.747 160.06 191.845 159.817 191.845 159.564C191.845 159.311 191.747 159.068 191.571 158.886C191.395 158.704 191.155 158.598 190.902 158.589Z" fill="#1F1F1F"/>
<path d="M159.332 170.145H174.372C174.625 170.136 174.865 170.029 175.041 169.847C175.217 169.665 175.316 169.422 175.316 169.169C175.316 168.916 175.217 168.673 175.041 168.491C174.865 168.309 174.625 168.203 174.372 168.194H106.45C106.197 168.203 105.957 168.309 105.781 168.491C105.605 168.673 105.507 168.916 105.507 169.169C105.507 169.422 105.605 169.665 105.781 169.847C105.957 170.029 106.197 170.136 106.45 170.145H159.332Z" fill="#1F1F1F"/>
<path d="M190.602 177.198H90.2208C89.9676 177.207 89.7277 177.314 89.5517 177.496C89.3757 177.678 89.2774 177.921 89.2774 178.174C89.2774 178.427 89.3757 178.67 89.5517 178.852C89.7277 179.034 89.9676 179.14 90.2208 179.149H190.602C190.855 179.14 191.095 179.034 191.271 178.852C191.447 178.67 191.545 178.427 191.545 178.174C191.545 177.921 191.447 177.678 191.271 177.496C191.095 177.314 190.855 177.207 190.602 177.198Z" fill="#1F1F1F"/>
<path d="M169.564 186.203H111.259C111.005 186.211 110.766 186.318 110.59 186.5C110.414 186.682 110.315 186.925 110.315 187.178C110.315 187.431 110.414 187.674 110.59 187.856C110.766 188.038 111.005 188.145 111.259 188.153H169.564C169.817 188.145 170.057 188.038 170.233 187.856C170.409 187.674 170.507 187.431 170.507 187.178C170.507 186.925 170.409 186.682 170.233 186.5C170.057 186.318 169.817 186.211 169.564 186.203Z" fill="#1F1F1F"/>
<path d="M153.655 51.3988C152.888 51.3058 152.141 51.0862 151.446 50.7491C152.364 50.5903 153.23 50.2158 153.974 49.6567C154.731 49.0918 155.799 47.9998 155.766 46.9524C155.743 46.2327 155.151 46.0379 154.541 46.2119C153.509 46.5061 152.663 47.1678 151.649 47.3834C152.103 46.7861 152.558 46.1887 153.013 45.5912C153.774 44.7663 154.429 43.8505 154.963 42.8646C155.452 41.681 154.752 40.4094 153.38 40.6714C152.296 40.879 151.715 41.9296 151.136 42.7664C150.181 44.1496 149.247 45.5658 148.176 46.8631C147.381 47.8999 146.496 48.8642 145.53 49.7446C143.51 51.4383 142.886 46.6135 144.452 46.0726C145.161 45.8273 146.653 46.5069 147.202 45.9497C147.863 45.2801 146.428 43.9422 146.017 43.5635C145.585 43.1214 145.017 42.8361 144.404 42.7531C143.792 42.67 143.168 42.7939 142.634 43.1051C142.09 43.5287 141.637 44.0569 141.301 44.6585C140.965 45.2601 140.753 45.9228 140.679 46.6076C140.642 47.0673 140.581 47.5247 140.495 47.9778C140.085 49.2068 139.728 47.9402 139.665 47.3259C139.592 46.4689 139.393 45.6275 139.073 44.8288C138.883 44.3034 138.554 43.8396 138.12 43.487C137.686 43.1345 137.164 42.9065 136.61 42.8275C135.924 42.8029 135.244 42.971 134.647 43.3126C134.051 43.6542 133.563 44.1557 133.238 44.7603C132.861 45.3146 132.603 46.0966 133.505 46.2619C133.888 46.2715 134.27 46.2305 134.642 46.14C135.048 46.0794 135.461 46.0679 135.87 46.1057C136.636 46.2239 136.62 46.6529 136.645 47.3164C136.781 48.0802 136.74 48.8649 136.526 49.6106C135.99 50.5545 135.09 50.0168 134.521 49.4678C133.003 47.9186 131.638 46.2277 130.443 44.4183C129.692 43.3438 128.952 41.7959 127.85 41.0225C126.699 40.2152 124.938 40.7148 125.206 42.3527C125.51 43.2837 126.031 44.1296 126.725 44.8212L128.676 47.383C127.662 47.1669 126.814 46.5057 125.784 46.212C125.165 46.0357 124.59 46.2376 124.559 46.9525C124.513 47.9946 125.599 49.0967 126.351 49.6568C127.094 50.2158 127.96 50.5903 128.877 50.7492C128.183 51.087 127.437 51.3066 126.67 51.3989C126.075 51.5332 125.474 51.7988 125.439 52.4924C125.396 53.3617 126.414 53.9269 127.12 54.1684C128.004 54.4615 128.952 54.5024 129.858 54.2865C129.777 55.7204 128.368 57.9876 130.597 58.3139C131.051 58.312 131.498 58.1992 131.899 57.9851C132.3 57.7711 132.642 57.4625 132.896 57.086C133.058 56.8237 133.242 56.5759 133.447 56.3454C134.676 55.4773 134.795 56.5745 134.823 57.1751C134.832 58.0228 134.653 58.8621 134.298 59.6322C133.967 60.0674 133.6 60.4733 133.2 60.8457C132.834 61.2004 132.428 61.5116 131.99 61.7731C131.883 61.8368 131.773 61.8973 131.661 61.9531C131.607 61.9802 131.552 62.006 131.497 62.0316C131.473 62.0422 131.466 62.046 131.46 62.0493C131.446 62.053 131.432 62.0577 131.418 62.0635C131.193 62.15 130.96 62.2104 130.721 62.2436C130.572 62.2857 130.445 62.3849 130.368 62.5197C130.292 62.6545 130.271 62.814 130.312 62.9637C130.357 63.1111 130.456 63.2357 130.59 63.3118C130.725 63.3878 130.883 63.4095 131.033 63.3723C132.158 63.1284 133.184 62.5531 133.978 61.7207C134.415 61.3164 134.818 60.8766 135.182 60.4056C135.215 60.3796 135.245 60.3506 135.272 60.319C136.096 59.1983 137.899 60.1261 138.232 61.1801C138.359 61.7474 138.303 62.3404 138.071 62.8737C137.839 63.407 137.444 63.853 136.942 64.1473C136.232 64.5618 135.475 64.8902 134.687 65.1255C134.491 65.1791 134.316 65.2886 134.182 65.4407C134.048 65.5927 133.962 65.7805 133.933 65.9809C133.846 67.0539 135.224 67.5445 136.066 67.5416C136.993 67.5158 137.9 67.2688 138.712 66.8211C138.521 68.2265 138.629 69.8482 140.289 69.7715C141.982 69.6935 142.042 68.1418 141.81 66.7596C142.596 67.1659 143.462 67.3931 144.347 67.4249C145.201 67.4373 146.509 67.0063 146.371 65.9109C146.33 65.712 146.236 65.5275 146.101 65.3759C145.965 65.2243 145.792 65.111 145.599 65.0474C144.814 64.7639 144.051 64.4242 143.315 64.031C142.826 63.7558 142.441 63.3273 142.221 62.8119C142 62.2965 141.955 61.7228 142.094 61.1796C142.426 60.1256 144.229 59.1978 145.053 60.3185C145.095 60.4156 145.166 60.4968 145.258 60.55C145.592 60.9669 145.956 61.3585 146.348 61.7215C147.142 62.5531 148.168 63.1279 149.292 63.3718C149.442 63.408 149.599 63.3859 149.733 63.31C149.867 63.2341 149.967 63.1101 150.013 62.9632C150.053 62.8136 150.033 62.6541 149.956 62.5193C149.88 62.3845 149.753 62.2853 149.604 62.2431C149.161 62.1866 148.737 62.0315 148.362 61.7892C147.914 61.5253 147.499 61.2089 147.126 60.8467C146.725 60.4727 146.356 60.0648 146.025 59.6275C145.673 58.8579 145.495 58.0206 145.502 57.1746C145.528 56.5141 145.643 55.5939 146.877 56.3449C147.061 56.4569 147.246 56.8603 147.383 57.0265C147.637 57.4178 147.984 57.7402 148.393 57.9647C148.802 58.1893 149.261 58.3091 149.727 58.3134C151.956 57.9862 150.547 55.7201 150.467 54.2856C151.372 54.5011 152.32 54.4604 153.204 54.1679C153.91 53.9279 154.93 53.3597 154.885 52.4919C154.849 51.7984 154.25 51.5355 153.655 51.3988Z" fill="#1F1F1F"/>
<path d="M140.292 40.9508C142.687 41.8824 145.561 42.1715 147.057 39.6744C147.129 39.5407 147.147 39.3842 147.106 39.2378C147.065 39.0914 146.969 38.9667 146.837 38.89C146.706 38.8132 146.55 38.7905 146.402 38.8266C146.254 38.8627 146.126 38.9548 146.045 39.0834C145.043 40.7555 143.214 40.6603 141.557 40.1583C142.022 39.644 142.327 39.0044 142.432 38.319C142.481 38.0438 142.47 37.7614 142.401 37.4908C142.331 37.2202 142.204 36.9677 142.028 36.7502C141.853 36.5327 141.632 36.3553 141.382 36.2301C141.132 36.1048 140.858 36.0344 140.578 36.0238C139.985 35.9485 139.385 36.1025 138.901 36.4545C138.418 36.8064 138.087 37.3296 137.977 37.917C137.951 38.3645 138.036 38.8115 138.224 39.2185C138.412 39.6254 138.698 39.9798 139.056 40.2503C137.593 40.8298 135.65 40.8608 134.911 39.3015C134.589 38.6213 133.578 39.2143 133.899 39.8926C135.03 42.2796 138.313 42.1067 140.292 40.9508ZM140.569 37.1973C141.902 37.4255 141.149 39.2787 140.238 39.6673C139.923 39.5283 139.653 39.3044 139.458 39.0207C139.263 38.7369 139.151 38.4045 139.135 38.0608C139.203 37.4121 139.999 37.0997 140.569 37.1973Z" fill="#1F1F1F"/>
<path d="M199.305 162.125C192.94 162.125 186.835 164.653 182.335 169.154C177.834 173.655 175.305 179.759 175.305 186.124V234.125C175.305 240.49 177.834 246.595 182.335 251.095C186.835 255.596 192.94 258.125 199.305 258.125H247.304C250.455 258.125 253.576 257.504 256.488 256.298C259.4 255.092 262.046 253.325 264.275 251.096C266.504 248.867 268.272 246.222 269.478 243.31C270.684 240.398 271.305 237.277 271.305 234.125V162.125H199.305Z" fill="#1F1F1F"/>
<path d="M201.542 200.461C200.756 197.025 204.183 193.989 208.613 193.989C212.605 193.989 216.605 194.881 218.129 200.447H223.243V208.94C216.866 203.698 203.036 206.986 201.542 200.461ZM254.631 198.109H243.106L232.139 210.117V186.125H223.243V191.938C222.954 191.563 222.647 191.191 222.305 190.828C220.484 189.047 218.31 187.668 215.924 186.779C213.538 185.89 210.991 185.511 208.449 185.667C206.009 185.544 203.573 185.993 201.336 186.977C199.1 187.962 197.123 189.454 195.565 191.337C194.304 192.879 193.389 194.675 192.884 196.602C192.378 198.529 192.294 200.543 192.635 202.505C194.698 211.75 203.279 213.228 209.58 214.048C214.556 214.696 219.317 215.598 219.19 220.033C219.058 224.637 213.872 225.767 210.466 225.767C201.596 225.767 201.295 219.212 201.295 219.212H191.757C191.916 222.828 193.295 226.285 195.669 229.018C198.99 232.734 203.968 234.618 210.466 234.618C215.132 234.722 219.675 233.118 223.243 230.109V234.075H232.139V222.749L235.288 219.306L244.274 234.075H254.628L241.553 212.443L254.631 198.109Z" fill="white"/>
</g>
<defs>
<clipPath id="clip0_64_3160">
<rect width="277.695" height="262.097" fill="white" transform="translate(0.305298)"/>
</clipPath>
</defs>
</svg>
