<svg xmlns="http://www.w3.org/2000/svg" width="63" height="77" fill="none"><path fill="#fff" d="M.26 74.57c3.527-3.628 2.238-9.837.065-13.826a.897.897 0 0 1-.175-.908c.022-.082.052-.163.087-.24a1.18 1.18 0 0 1 .59-.514 1.005 1.005 0 0 1 .972.099c4.48 2.186 9.985 2.732 14.562.535a1.091 1.091 0 0 1 1.496 1.487c-1.42 2.557-2.512 5.41-2.043 8.372.328 2.066 1.268 3.979 1.595 6.045a1.149 1.149 0 0 1-.502 1.235c-.612.382-1.366-.088-1.945-.306a25.272 25.272 0 0 0-3.43-1.093 14.575 14.575 0 0 0-9.995.82A1.092 1.092 0 0 1 .26 74.57Zm16.232.175c.295.164.262-.12-.131 0h.13Z"/><path fill="#B6D3FF" d="M45.028 52.66a1.731 1.731 0 0 1-1.536-.942 51.793 51.793 0 0 1-2.521-6.227c-2.268-6.381-4.408-12.41-13.896-16.254a1.723 1.723 0 0 1-.117-3.14c6.961-3.441 12.984-12.93 15.721-24.764A1.722 1.722 0 0 1 44.357 0h.03a1.72 1.72 0 0 1 1.66 1.39c1.712 8.745 7.364 22.619 15.232 22.619a1.72 1.72 0 0 1 .699 3.293c-4.252 1.891-10.308 7.454-15.006 23.225-.34 1.146-.528 1.777-1.439 2.056-.163.05-.333.077-.505.077ZM31.376 27.443c8.43 4.478 10.76 11.038 12.839 16.896.2.56.395 1.113.593 1.656 3.682-10.711 8.114-16.468 12.018-19.543-6.098-2.821-10.253-11.106-12.543-18.212-2.93 8.538-7.49 15.336-12.907 19.203Z"/></svg>