<svg width="14" height="16" viewBox="0 0 14 16" fill="none" xmlns="http://www.w3.org/2000/svg">
<path fill-rule="evenodd" clip-rule="evenodd" d="M7.11334 3.30137L7.07101 3.36778L7.02869 3.30137C6.73454 2.84224 6.3199 2.24573 5.85092 1.72513C5.39814 1.22251 4.82873 0.714564 4.21476 0.542259C3.88892 0.450815 3.53406 0.449608 3.19009 0.609492C2.85311 0.76613 2.5826 1.05136 2.3675 1.42782C2.15157 1.80573 2.04391 2.18363 2.07063 2.55414C2.09772 2.92979 2.25915 3.24446 2.48635 3.49667C2.91845 3.97634 3.6155 4.26156 4.25827 4.44195C4.92139 4.62805 5.62249 4.72772 6.14985 4.78132C6.38688 4.80541 6.5919 4.8205 6.74676 4.82983H7.39527C7.55013 4.8205 7.75515 4.80541 7.99218 4.78132C8.51954 4.72772 9.22064 4.62805 9.88376 4.44195C10.5265 4.26156 11.2236 3.97634 11.6557 3.49667C11.8829 3.24446 12.0443 2.92979 12.0714 2.55414C12.0981 2.18363 11.9905 1.80573 11.7745 1.42782C11.5594 1.05136 11.2889 0.76613 10.9519 0.609492C10.608 0.449608 10.2531 0.450815 9.92727 0.542259C9.3133 0.714564 8.74389 1.22251 8.29111 1.72513C7.82213 2.24573 7.40749 2.84224 7.11334 3.30137ZM5.10793 2.39444C5.50469 2.83486 5.86877 3.34982 6.14439 3.77519C5.66272 3.72244 5.07288 3.63193 4.52847 3.47915C3.92286 3.30918 3.46201 3.08566 3.22933 2.82736C3.12415 2.7106 3.07646 2.599 3.06804 2.48221C3.05925 2.36029 3.08968 2.1796 3.23577 1.92393C3.38268 1.6668 3.51712 1.56023 3.6116 1.51632C3.6991 1.47564 3.80224 1.46512 3.94455 1.50506C4.26688 1.59552 4.67434 1.91312 5.10793 2.39444ZM7.99764 3.77519C8.27326 3.34982 8.63734 2.83486 9.03409 2.39444C9.46769 1.91312 9.87515 1.59552 10.1975 1.50506C10.3398 1.46512 10.4429 1.47564 10.5304 1.51632C10.6249 1.56023 10.7593 1.6668 10.9063 1.92393C11.0524 2.1796 11.0828 2.36029 11.074 2.48221C11.0656 2.599 11.0179 2.7106 10.9127 2.82736C10.68 3.08566 10.2192 3.30918 9.61356 3.47915C9.06915 3.63193 8.47931 3.72244 7.99764 3.77519Z" fill="white"/>
<path d="M7.5715 4.83228V10.1899H12.8417V10.1851C13.2389 9.91532 13.4999 9.45983 13.4999 8.94339V6.33228C13.4999 5.50385 12.8284 4.83228 11.9999 4.83228H7.5715Z" fill="white"/>
<path d="M12.8417 11.1899H7.5715V15.7132H11.3417C12.1701 15.7132 12.8417 15.0416 12.8417 14.2132V11.1899Z" fill="white"/>
<path d="M6.5715 15.7132V11.1899H1.30197V14.2132C1.30197 15.0416 1.97355 15.7132 2.80197 15.7132H6.5715Z" fill="white"/>
<path d="M1.30197 10.1899H6.5715V4.83228H2.14279C1.31436 4.83228 0.642792 5.50385 0.642792 6.33228V8.94339C0.642792 9.46022 0.90418 9.91601 1.30197 10.1858V10.1899Z" fill="white"/>
</svg>
