<svg width="24" height="15" viewBox="0 0 24 15" fill="none" xmlns="http://www.w3.org/2000/svg">
<path fill-rule="evenodd" clip-rule="evenodd" d="M0.5 1.27783C0.5 1.00169 0.723858 0.777832 1 0.777832H23C23.2761 0.777832 23.5 1.00169 23.5 1.27783C23.5 1.55397 23.2761 1.77783 23 1.77783H1C0.723858 1.77783 0.5 1.55397 0.5 1.27783ZM0.5 7.6665C0.5 7.39036 0.723858 7.1665 1 7.1665H23C23.2761 7.1665 23.5 7.39036 23.5 7.6665C23.5 7.94265 23.2761 8.1665 23 8.1665H1C0.723858 8.1665 0.5 7.94265 0.5 7.6665ZM0.5 14.0554C0.5 13.7793 0.723858 13.5554 1 13.5554H23C23.2761 13.5554 23.5 13.7793 23.5 14.0554C23.5 14.3316 23.2761 14.5554 23 14.5554H1C0.723858 14.5554 0.5 14.3316 0.5 14.0554Z" fill="#1F1F1F"/>
</svg>
