<svg width="16" height="16" viewBox="0 0 16 16" fill="none" xmlns="http://www.w3.org/2000/svg">
<g clip-path="url(#clip0_2002_1481)">
<path fill-rule="evenodd" clip-rule="evenodd" d="M2.61076 1.32251C2.3341 1.32251 2.10982 1.54679 2.10982 1.82345V10.2923C2.10982 10.569 2.3341 10.7932 2.61076 10.7932C4.2894 10.7932 5.93898 11.2313 7.39645 12.0641L7.74756 12.2648L7.74854 12.2654C7.80747 12.2995 7.87166 12.3208 7.93711 12.3291C7.98261 12.3348 8.02872 12.3343 8.07412 12.3275C8.13568 12.3183 8.196 12.2975 8.25155 12.2653L8.25288 12.2645L8.60355 12.0641C10.061 11.2313 11.7106 10.7932 13.3892 10.7932C13.6659 10.7932 13.8902 10.569 13.8902 10.2923V1.82345C13.8902 1.54679 13.6659 1.32251 13.3892 1.32251C11.5362 1.32251 9.71533 1.80608 8.10648 2.72542L8 2.78627L7.89352 2.72542C6.28467 1.80608 4.46376 1.32251 2.61076 1.32251ZM3.1117 2.40474V2.3374C4.61635 2.41564 6.08426 2.84547 7.39645 3.5953L7.49904 3.65392V10.8322V10.9798C6.13811 10.2765 4.64151 9.87519 3.1117 9.80314V2.40474ZM8.60355 3.5953C9.91574 2.84547 11.3837 2.41564 12.8883 2.3374V9.80314C11.3585 9.87519 9.86189 10.2765 8.50097 10.9798V3.65392L8.60355 3.5953Z" fill="#1F1F1F"/>
<path d="M0.440942 3.63206C0.164281 3.63206 -0.0599976 3.85634 -0.0599976 4.133V12.2519C-0.0599976 12.5286 0.164281 12.7528 0.440942 12.7528H0.572107C3.08624 12.7528 5.55889 13.3936 7.75663 14.6145C7.83373 14.6574 7.91741 14.6777 7.99994 14.6776C8.0825 14.6777 8.16623 14.6574 8.24337 14.6145C10.4411 13.3936 12.9138 12.7528 15.4279 12.7528H15.5591C15.8357 12.7528 16.06 12.5286 16.06 12.2519V4.133C16.06 3.85634 15.8357 3.63206 15.5591 3.63206C15.2824 3.63206 15.0581 3.85634 15.0581 4.133V11.7553C12.5937 11.813 10.1763 12.4468 8 13.6064C5.82368 12.4468 3.40635 11.813 0.941882 11.7553V4.133C0.941882 3.85634 0.717604 3.63206 0.440942 3.63206Z" fill="#1F1F1F"/>
</g>
<defs>
<clipPath id="clip0_2002_1481">
<rect width="16" height="16" fill="white"/>
</clipPath>
</defs>
</svg>
