<svg width="38" height="37" viewBox="0 0 38 37" fill="none" xmlns="http://www.w3.org/2000/svg">
<path d="M28.7092 8.62403C26.6153 3.60735 22.976 0.28418 18.8334 0.28418C14.6908 0.28418 11.0514 3.60735 8.95756 8.62403C3.94085 10.7179 0.617676 14.3573 0.617676 18.4999C0.617676 22.6425 3.94081 26.2818 8.95756 28.3757C11.0514 33.3924 14.6908 36.7156 18.8334 36.7156C22.976 36.7156 26.6153 33.3924 28.7092 28.3757C33.7259 26.2818 37.0491 22.6425 37.0491 18.4999C37.0491 14.3573 33.7259 10.7179 28.7092 8.62403Z" fill="url(#paint0_linear_2020_580)"/>
<path d="M14.1253 23.0582C14.1253 23.1039 14.1134 23.1488 14.0907 23.1884C14.0681 23.2281 14.0355 23.2612 13.9962 23.2845C13.9569 23.3078 13.9122 23.3204 13.8666 23.3212C13.8209 23.322 13.7758 23.3108 13.7357 23.2889L12.3038 22.5042C12.1383 22.4135 12.0002 22.28 11.904 22.1176C11.8078 21.9553 11.7571 21.77 11.7571 21.5813V17.3398C11.7571 17.2941 11.769 17.2493 11.7915 17.2096C11.8141 17.17 11.8467 17.1369 11.8859 17.1136C11.9252 17.0904 11.9698 17.0777 12.0155 17.0769C12.0611 17.0762 12.1061 17.0873 12.1462 17.1092L13.8521 18.0434C13.9348 18.0889 14.0038 18.1556 14.0518 18.2368C14.0999 18.318 14.1253 18.4106 14.1253 18.505V23.0582Z" fill="white"/>
<path d="M25.9095 21.581C25.9094 21.7699 25.8586 21.9552 25.7624 22.1176C25.6661 22.2801 25.528 22.4137 25.3624 22.5044L23.9308 23.2889C23.8907 23.3109 23.8456 23.322 23.8 23.3213C23.7543 23.3205 23.7096 23.3079 23.6702 23.2846C23.6309 23.2613 23.5983 23.2282 23.5757 23.1885C23.5531 23.1488 23.5412 23.1039 23.5412 23.0582V17.4378C23.5412 17.3921 23.5293 17.3473 23.5067 17.3076C23.4841 17.2679 23.4516 17.2348 23.4123 17.2115C23.373 17.1882 23.3283 17.1756 23.2826 17.1748C23.237 17.174 23.1919 17.1852 23.1518 17.2071L20.5647 18.6249C20.3992 18.7156 20.2611 18.8491 20.1649 19.0115C20.0687 19.1739 20.018 19.3592 20.018 19.548V25.1228C20.018 25.2171 19.9926 25.3098 19.9445 25.3909C19.8963 25.4721 19.8273 25.5389 19.7445 25.5842L19.3386 25.8063C19.1834 25.8913 19.0094 25.9357 18.8325 25.9357C18.6557 25.9356 18.4817 25.8909 18.3266 25.8058L17.9232 25.5843C17.8404 25.539 17.7714 25.4722 17.7233 25.391C17.6753 25.3098 17.6499 25.2171 17.6499 25.1228V19.548C17.6499 19.3592 17.5992 19.174 17.503 19.0116C17.4068 18.8492 17.2688 18.7156 17.1032 18.6249L11.7573 15.6952V15.4182C11.7573 15.2295 11.808 15.0442 11.9042 14.8818C12.0004 14.7194 12.1385 14.5859 12.304 14.4953L12.8943 14.172C13.0493 14.0871 13.2232 14.0426 13.3999 14.0426C13.5766 14.0426 13.7505 14.0871 13.9055 14.172L18.3278 16.5954C18.4828 16.6804 18.6568 16.7249 18.8335 16.7249C19.0103 16.7249 19.1843 16.6804 19.3393 16.5954L21.3827 15.4756C21.4241 15.4529 21.4586 15.4195 21.4827 15.3789C21.5067 15.3383 21.5194 15.292 21.5194 15.2448C21.5194 15.1976 21.5067 15.1513 21.4827 15.1107C21.4586 15.0701 21.4241 15.0367 21.3827 15.0141L16.7911 12.4973C16.7498 12.4746 16.7152 12.4412 16.6912 12.4006C16.6671 12.36 16.6545 12.3137 16.6545 12.2665C16.6545 12.2193 16.6671 12.173 16.6912 12.1324C16.7152 12.0918 16.7498 12.0584 16.7911 12.0358L18.3276 11.1935C18.4827 11.1085 18.6567 11.064 18.8335 11.064C19.0103 11.064 19.1843 11.1085 19.3394 11.1935L25.3624 14.4947C25.528 14.5854 25.6662 14.7191 25.7625 14.8816C25.8588 15.0441 25.9096 15.2295 25.9096 15.4183L25.9095 21.581Z" fill="white"/>
<defs>
<linearGradient id="paint0_linear_2020_580" x1="10.7463" y1="26.3483" x2="28.9412" y2="8.69019" gradientUnits="userSpaceOnUse">
<stop stop-color="#005FF4"/>
<stop offset="0.0333" stop-color="#0065F5"/>
<stop offset="0.2742" stop-color="#008EF9"/>
<stop offset="0.4937" stop-color="#00ABFC"/>
<stop offset="0.6829" stop-color="#00BDFE"/>
<stop offset="0.8199" stop-color="#00C3FF"/>
</linearGradient>
</defs>
</svg>
