<svg width="37" height="37" viewBox="0 0 37 37" fill="none" xmlns="http://www.w3.org/2000/svg">
<path d="M35.9613 17.1859C36.208 17.3208 36.4139 17.5196 36.5573 17.7614C36.7007 18.0033 36.7764 18.2793 36.7764 18.5605C36.7764 18.8417 36.7007 19.1177 36.5573 19.3596C36.4139 19.6014 36.208 19.8002 35.9613 19.9351C29.1968 23.6348 23.6349 29.1966 19.9353 35.9612C19.8004 36.2079 19.6016 36.4138 19.3597 36.5572C19.1178 36.7006 18.8418 36.7763 18.5606 36.7763C18.2794 36.7763 18.0034 36.7006 17.7616 36.5572C17.5197 36.4138 17.3209 36.2079 17.186 35.9612C13.4863 29.1966 7.92449 23.6348 1.15993 19.9351C0.913215 19.8002 0.707351 19.6014 0.563938 19.3596C0.420525 19.1177 0.344849 18.8417 0.344849 18.5605C0.344849 18.2793 0.420525 18.0033 0.563938 17.7614C0.707351 17.5196 0.913215 17.3208 1.15993 17.1859C7.92449 13.4862 13.4863 7.92437 17.186 1.15981C17.3209 0.913093 17.5197 0.707229 17.7616 0.563816C18.0034 0.420403 18.2794 0.344727 18.5606 0.344727C18.8418 0.344727 19.1178 0.420403 19.3597 0.563816C19.6016 0.707229 19.8004 0.913093 19.9353 1.15981C23.6349 7.92437 29.1968 13.4862 35.9613 17.1859Z" fill="url(#paint0_linear_2020_1277)"/>
<path fill-rule="evenodd" clip-rule="evenodd" d="M23.7906 13.4418C23.7756 13.307 23.7106 13.1827 23.6086 13.0934C23.4632 12.9924 23.2896 12.9401 23.1127 12.9438C22.6314 12.9523 21.8931 13.2105 18.3396 14.6967C17.0951 15.2172 14.6077 16.2946 10.8775 17.9288C10.2718 18.1709 9.9545 18.4078 9.92561 18.6396C9.87014 19.0845 10.507 19.223 11.3084 19.4849C11.9514 19.717 12.6187 19.8758 13.2974 19.9582C13.8024 19.9355 14.2876 19.7553 14.685 19.4428C18.1702 17.0772 19.9693 15.8814 20.0822 15.8556C20.1253 15.8387 20.1717 15.8323 20.2178 15.8367C20.2638 15.8412 20.3082 15.8565 20.3472 15.8814C20.374 15.9122 20.3934 15.9487 20.4037 15.9882C20.414 16.0276 20.4151 16.069 20.4067 16.1089C20.3433 16.3806 17.0694 19.375 16.881 19.5718C16.161 20.3238 15.342 20.7839 16.6053 21.6211C17.6984 22.3454 18.3346 22.8075 19.4608 23.5498C20.1806 24.0242 20.7448 24.5868 21.4878 24.518C21.8297 24.4863 22.1828 24.1631 22.3622 23.1989C22.7862 20.9202 23.6194 15.9829 23.8119 13.9484C23.8237 13.7793 23.8165 13.6094 23.7906 13.4418Z" fill="white"/>
<defs>
<linearGradient id="paint0_linear_2020_1277" x1="5.19986" y1="30.9875" x2="31.8761" y2="6.17568" gradientUnits="userSpaceOnUse">
<stop stop-color="#00CCFF"/>
<stop offset="0.9965" stop-color="#0095FF"/>
</linearGradient>
</defs>
</svg>
