<svg width="37" height="37" viewBox="0 0 37 37" fill="none" xmlns="http://www.w3.org/2000/svg">
<path d="M35.902 19.875C29.1366 23.5743 23.5743 29.1366 19.875 35.902C19.7402 36.1489 19.5414 36.355 19.2994 36.4986C19.0574 36.6421 18.7813 36.7179 18.4999 36.7179C18.2186 36.7179 17.9424 36.6421 17.7005 36.4986C17.4585 36.355 17.2597 36.1489 17.1248 35.902C13.4256 29.1366 7.86328 23.5743 1.09787 19.875C0.850934 19.7402 0.644867 19.5414 0.501304 19.2994C0.357742 19.0574 0.281982 18.7813 0.281982 18.4999C0.281982 18.2186 0.357742 17.9424 0.501304 17.7005C0.644867 17.4585 0.850934 17.2597 1.09787 17.1248C7.86328 13.4256 13.4256 7.86328 17.1248 1.09787C17.2597 0.850934 17.4585 0.644867 17.7005 0.501304C17.9424 0.357742 18.2186 0.281982 18.4999 0.281982C18.7813 0.281982 19.0574 0.357742 19.2994 0.501304C19.5414 0.644867 19.7402 0.850934 19.875 1.09787C23.5743 7.86328 29.1366 13.4256 35.902 17.1248C36.1489 17.2597 36.355 17.4585 36.4986 17.7005C36.6421 17.9424 36.7179 18.2186 36.7179 18.4999C36.7179 18.7813 36.6421 19.0574 36.4986 19.2994C36.355 19.5414 36.1489 19.7402 35.902 19.875Z" fill="url(#paint0_linear_2020_950)"/>
<path d="M15.0538 23.022C14.8252 22.6387 14.6873 22.1983 14.4654 21.8285C14.367 21.6364 14.1985 21.4895 13.9947 21.4183C13.7695 21.3645 13.7258 21.5696 13.6216 21.7243C13.4994 21.8649 13.35 21.9794 13.1825 22.0609C13.0149 22.1424 12.8326 22.1891 12.6466 22.1983C12.4551 22.2159 12.269 22.2707 12.0985 22.3597C11.8901 22.4908 11.9069 22.6959 11.9607 22.8976C12.0522 23.1092 12.0858 23.3412 12.0582 23.57C12.0212 23.7718 11.9035 23.9533 11.8464 24.1517C11.7892 24.35 11.9103 24.4139 12.1019 24.4879C12.3348 24.5556 12.5717 24.6084 12.8113 24.6459C13.2576 24.725 13.6887 24.8736 14.0889 25.0863C14.2922 25.2149 14.5222 25.2954 14.7613 25.3217C14.9911 25.3222 15.2163 25.2568 15.4102 25.1334C15.5982 25.0474 15.7452 24.8914 15.8199 24.6986C15.8947 24.5058 15.8912 24.2915 15.8103 24.1012C15.5784 23.7277 15.3259 23.3674 15.0538 23.022Z" fill="white"/>
<path d="M18.9673 23.6137C18.5544 23.7735 18.1184 23.8654 17.6762 23.886C17.3677 23.8789 17.0623 23.8222 16.7718 23.7179C16.5835 23.6473 16.4659 23.5968 16.4356 23.6338C16.4054 23.6708 16.4793 23.8524 16.5331 23.97C16.61 24.2378 16.6485 24.5152 16.6474 24.7937C16.647 24.8285 16.654 24.863 16.6679 24.8949C16.6818 24.9268 16.7023 24.9553 16.7281 24.9787C16.7516 25.0006 16.7802 25.0164 16.8113 25.0246C16.8424 25.0328 16.875 25.0332 16.9063 25.0257C17.1417 24.9955 17.377 24.9282 17.6157 24.9148C18.2007 24.8778 18.7554 25.1568 19.3337 25.251C19.38 25.2666 19.4301 25.2664 19.4763 25.2506C19.5225 25.2348 19.5622 25.2042 19.5892 25.1636C19.647 25.0958 19.6843 25.013 19.6968 24.9249C19.7942 24.4883 19.9223 24.0591 20.0801 23.6406C20.0937 23.5995 20.0958 23.5556 20.0861 23.5134C20.0764 23.4713 20.0553 23.4327 20.0251 23.4018C19.9949 23.3709 19.9567 23.3489 19.9148 23.3382C19.8729 23.3275 19.8289 23.3286 19.7876 23.3413C19.4682 23.4523 19.1925 23.5431 18.9673 23.6137Z" fill="white"/>
<path d="M13.6384 20.6483C13.7993 20.6044 13.9686 20.6011 14.1312 20.6386C14.2937 20.6762 14.4444 20.7534 14.5697 20.8635C14.6605 20.9341 14.6672 20.9644 14.7479 20.9341C14.8286 20.9039 14.7983 20.8837 14.7983 20.7761C14.7934 20.5988 14.8001 20.4213 14.8185 20.2449C15.0001 18.3521 16.2373 17.3602 16.6172 15.8002C16.6542 15.6422 16.6643 15.5447 16.7786 15.4943C16.8929 15.4439 16.977 15.464 17.098 15.538L17.2661 15.6456C17.4124 15.772 17.5842 15.8653 17.7699 15.9193C17.9556 15.9733 18.1507 15.9865 18.3419 15.9583C18.6537 15.8455 18.948 15.6893 19.2161 15.4943C19.401 15.3934 19.6061 15.3464 19.7977 15.2623C19.8288 15.246 19.8631 15.2368 19.8981 15.2354C19.9332 15.234 19.9681 15.2405 20.0003 15.2544C20.0326 15.2682 20.0613 15.2891 20.0844 15.3155C20.1075 15.3419 20.1244 15.3731 20.1339 15.4069C20.2987 15.9179 20.4701 16.3516 20.608 16.6946C21.2333 18.1772 21.7309 18.7589 21.862 20.0566C21.8788 20.2591 21.8788 20.4627 21.862 20.6652C21.8533 20.7369 21.8699 20.8095 21.9091 20.8702C21.9394 20.9202 21.9768 20.9655 22.0201 21.0047C22.1033 21.0815 22.2054 21.1348 22.3159 21.1594C22.4643 21.1795 22.6147 21.1795 22.7631 21.1594C22.9643 21.1248 23.1676 21.1035 23.3716 21.0955C23.4042 21.0954 23.4364 21.0888 23.4665 21.0761C23.4965 21.0634 23.5237 21.0449 23.5464 21.0215C23.5753 20.9978 23.5986 20.968 23.6149 20.9343C23.6311 20.9007 23.6399 20.8639 23.6406 20.8265C23.7741 19.5717 23.5145 18.3064 22.8976 17.2056C22.3697 16.2844 21.5897 15.4808 21.3443 14.4487C21.0988 13.4165 21.3981 12.3743 21.082 11.4027C20.9002 10.8856 20.5592 10.4395 20.108 10.1284C19.6567 9.81728 19.1185 9.65722 18.5706 9.67119C18.0334 9.65535 17.507 9.82382 17.0789 10.1486C16.6507 10.4734 16.3466 10.9349 16.2171 11.4564C16.0188 12.4483 16.3617 13.514 16.0826 14.4823C15.7464 15.7095 14.6807 16.5937 14.0351 17.6931C13.5795 18.5019 13.3474 19.4175 13.3627 20.3458C13.3557 20.396 13.3612 20.4471 13.3788 20.4947C13.3964 20.5422 13.4255 20.5846 13.4636 20.6181C13.4881 20.6368 13.5168 20.6494 13.5473 20.6547C13.5777 20.6599 13.609 20.6578 13.6384 20.6483ZM19.5624 14.7177C19.3674 14.8286 19.1354 14.8589 18.937 14.9597C18.7387 15.0606 18.5571 15.2186 18.352 15.3161C18.2466 15.361 18.1306 15.375 18.0175 15.3566C17.9045 15.3381 17.7989 15.2879 17.7132 15.2119C17.4644 15.0505 17.2089 14.8925 16.9702 14.7177C16.829 14.6134 16.7147 14.4991 16.8526 14.3377C16.935 14.2623 17.0251 14.1958 17.1215 14.1394C17.2257 14.0587 17.3199 13.9679 17.4174 13.8805C17.5087 13.784 17.6243 13.7137 17.752 13.6771C17.8797 13.6404 18.015 13.6387 18.1436 13.6721C18.4563 13.746 18.6916 13.9646 18.9908 14.0587C19.213 14.0787 19.424 14.1654 19.596 14.3075C19.7137 14.4655 19.7305 14.6202 19.5624 14.7177ZM18.4495 12.4146C18.5069 12.288 18.593 12.1765 18.7009 12.089C18.8089 12.0014 18.9358 11.9403 19.0715 11.9103C19.1688 11.904 19.2663 11.9189 19.3573 11.954C19.5861 12.0475 19.7711 12.224 19.8751 12.4483C19.9341 12.5985 19.959 12.76 19.9479 12.9211C19.9369 13.0822 19.8902 13.2388 19.8112 13.3796C19.7864 13.4302 19.7443 13.4703 19.6924 13.4925C19.6406 13.5147 19.5825 13.5176 19.5288 13.5006C19.4145 13.4602 19.2968 13.4266 19.1926 13.3964C19.053 13.3347 18.9181 13.2628 18.7891 13.1812C18.696 13.1353 18.5993 13.0971 18.5 13.0669C18.4498 13.0509 18.4066 13.0181 18.3778 12.974C18.3491 12.9299 18.3364 12.8772 18.3419 12.8248C18.3502 12.6823 18.3868 12.5429 18.4495 12.4146ZM16.513 12.7845C16.513 12.6702 16.597 12.1121 16.9501 12.0112C17.0959 11.98 17.2482 12.0078 17.3737 12.0885C17.5448 12.1981 17.6657 12.3709 17.7099 12.5693C17.7317 12.6462 17.7463 12.725 17.7536 12.8046C17.7653 12.8729 17.7496 12.943 17.7099 12.9996C17.6359 13.077 17.5619 13.0568 17.4779 13.0871C17.3362 13.1345 17.205 13.2087 17.0913 13.3056C17.0341 13.3527 16.9837 13.4031 16.9332 13.4535C16.9133 13.4771 16.8878 13.4952 16.859 13.5064C16.8302 13.5176 16.7991 13.5213 16.7685 13.5174C16.6979 13.5174 16.6643 13.4905 16.6307 13.4098C16.5376 13.2152 16.497 12.9996 16.513 12.7845Z" fill="white"/>
<path d="M24.0709 23.2708C23.9523 23.1446 23.8612 22.9952 23.8033 22.832C23.7454 22.6688 23.7221 22.4954 23.7347 22.3227C23.7145 22.0806 23.6507 21.9058 23.3985 21.8621C23.1903 21.8452 22.9808 21.8588 22.7765 21.9024C22.5551 21.9514 22.3256 21.9514 22.1041 21.9024C21.913 21.8199 21.7369 21.7063 21.583 21.5662C21.3712 21.4284 21.1728 21.7141 21.0988 21.9024C21.0152 22.1173 20.9675 22.3445 20.9576 22.5748C20.9198 23.0705 20.8204 23.5595 20.6618 24.0306C20.5206 24.424 20.2886 24.9417 20.6214 25.3048C20.7747 25.4456 20.9614 25.5448 21.1639 25.593C21.3663 25.6413 21.5777 25.637 21.778 25.5805C22.1882 25.4629 22.4504 25.056 22.7463 24.7871C23.0913 24.5229 23.4592 24.29 23.8457 24.0911C23.9734 24.0172 24.2457 23.8827 24.2995 23.7314C24.3533 23.5801 24.1583 23.3716 24.0709 23.2708Z" fill="white"/>
<path d="M18.7252 12.9324V12.9526C18.7252 13.003 18.7252 12.8652 18.7252 12.9156C18.7252 12.9661 18.7252 12.9728 18.7252 13.003C18.7252 13.0333 18.7252 13.1005 18.7017 13.1476C18.668 13.309 18.7824 13.4098 18.9572 13.4502C19.132 13.4905 19.2598 13.5813 19.2934 13.4065C19.327 13.2317 19.3539 13.0703 19.3674 12.9324C19.3634 12.8496 19.3289 12.7711 19.2705 12.7122C19.2122 12.6532 19.1341 12.6179 19.0513 12.613C18.9679 12.6171 18.889 12.6521 18.83 12.7111C18.771 12.7701 18.736 12.849 18.7319 12.9324H18.7252Z" fill="white"/>
<path d="M16.819 13.0131C16.819 13.1073 16.8761 13.3494 16.8929 13.4603C16.9097 13.5712 16.9299 13.4603 16.9871 13.4771C17.0442 13.4939 17.1451 13.3594 17.2157 13.3359C17.2863 13.3124 17.3199 13.3359 17.3569 13.2586C17.3939 13.1813 17.4308 13.2283 17.4208 13.1443V13.1207V13.2014C17.4109 13.139 17.4042 13.0762 17.4006 13.0131C17.405 12.9719 17.4007 12.9301 17.3879 12.8906C17.3752 12.8511 17.3542 12.8148 17.3265 12.7839C17.2987 12.753 17.2648 12.7283 17.2269 12.7114C17.189 12.6945 17.1479 12.6858 17.1064 12.6858C17.0649 12.6858 17.0239 12.6945 16.9859 12.7114C16.948 12.7283 16.9141 12.753 16.8864 12.7839C16.8586 12.8148 16.8377 12.8511 16.8249 12.8906C16.8121 12.9301 16.8078 12.9719 16.8122 13.0131H16.819Z" fill="white"/>
<defs>
<linearGradient id="paint0_linear_2020_950" x1="36.7179" y1="0.282365" x2="-1.80377" y2="1.06982" gradientUnits="userSpaceOnUse">
<stop stop-color="#FBD72B"/>
<stop offset="1" stop-color="#F9484A"/>
</linearGradient>
</defs>
</svg>
