<svg width="38" height="37" viewBox="0 0 38 37" fill="none" xmlns="http://www.w3.org/2000/svg">
<path d="M36.5688 17.1248C36.8157 17.2597 37.0217 17.4585 37.1653 17.7005C37.3089 17.9424 37.3846 18.2186 37.3846 18.4999C37.3846 18.7813 37.3089 19.0574 37.1653 19.2994C37.0217 19.5414 36.8157 19.7402 36.5688 19.875C29.8033 23.5743 24.241 29.1366 20.5418 35.902C20.4069 36.1489 20.2081 36.355 19.9661 36.4986C19.7242 36.6421 19.448 36.7179 19.1667 36.7179C18.8853 36.7179 18.6092 36.6421 18.3672 36.4986C18.1253 36.355 17.9264 36.1489 17.7916 35.902C14.0923 29.1366 8.53003 23.5743 1.76461 19.875C1.51768 19.7402 1.31161 19.5414 1.16805 19.2994C1.02449 19.0574 0.94873 18.7813 0.94873 18.4999C0.94873 18.2186 1.02449 17.9424 1.16805 17.7005C1.31161 17.4585 1.51768 17.2597 1.76461 17.1248C8.53003 13.4256 14.0923 7.86328 17.7916 1.09787C17.9264 0.850934 18.1253 0.644867 18.3672 0.501304C18.6092 0.357742 18.8853 0.281982 19.1667 0.281982C19.448 0.281982 19.7242 0.357742 19.9661 0.501304C20.2081 0.644867 20.4069 0.850934 20.5418 1.09787C24.241 7.86328 29.8033 13.4256 36.5688 17.1248Z" fill="url(#paint0_linear_2020_2410)"/>
<path d="M23.5441 18.0662L23.84 16.1599L24.304 18.0662L26.1195 16.9601L24.7477 18.5066L26.2439 19.021L24.6234 18.9336L25.484 20.6853L24.23 19.2934L22.8078 20.8399L23.5206 18.9101L22.4178 18.9773L23.2012 18.4999L22.1455 17.8006L23.5441 18.0662Z" fill="white"/>
<path d="M15.102 22.1309L16.3594 23.1026L14.7994 22.6789L14.8767 24.4306L14.3051 22.8235L13.3402 23.6976L14.0496 22.5646L12.4459 22.4873L13.9454 22.1376L13.3974 20.4969L14.5069 21.7779L14.8969 20.9542L14.9271 21.7107L15.8517 21.2299L15.102 22.1309Z" fill="white"/>
<path d="M24.6838 13.7426C22.7873 13.0713 21.0572 12.0004 19.6104 10.6024L19.5297 10.5251C19.4345 10.4333 19.3073 10.382 19.175 10.382C19.0427 10.382 18.9156 10.4333 18.8203 10.5251L18.7396 10.6024C17.2935 12.0011 15.5632 13.0721 13.6663 13.7426C13.5679 13.7789 13.483 13.8444 13.4229 13.9304C13.3628 14.0163 13.3304 14.1185 13.3301 14.2234V17.5148C13.3309 18.155 13.3951 18.7936 13.5217 19.4211L14.3959 20.4298L14.527 20.1574C14.5772 20.0553 14.6553 19.9695 14.7523 19.91C14.8493 19.8505 14.9612 19.8197 15.075 19.8212C15.1152 19.8163 15.1558 19.8163 15.196 19.8212C15.3286 19.8482 15.4484 19.9188 15.5361 20.0218C15.6239 20.1248 15.6746 20.2542 15.6802 20.3894V20.4566L16.0803 20.2482C16.2065 20.1755 16.3546 20.1504 16.4977 20.1776C16.6408 20.2048 16.7694 20.2824 16.8601 20.3963C16.9509 20.5103 16.9978 20.653 16.9922 20.7985C16.9867 20.9441 16.9291 21.0829 16.83 21.1896L16.2181 21.9259L17.4184 22.8538C17.5302 22.9396 17.6088 23.0617 17.6407 23.199C17.6726 23.3364 17.6558 23.4806 17.5932 23.6069C17.53 23.7321 17.4257 23.8319 17.2978 23.8894C17.1699 23.9469 17.0261 23.9588 16.8905 23.9229L15.5827 23.5666V23.7851C16.1269 24.4427 16.7541 25.027 17.4486 25.5233L18.8708 26.5319C18.9568 26.5942 19.0604 26.6278 19.1666 26.6278C19.2729 26.6278 19.3764 26.5942 19.4625 26.5319L20.8813 25.5233C22.5475 24.3409 23.8038 22.6686 24.4753 20.7391L24.24 20.4768L22.7674 22.0704C22.6729 22.1748 22.5447 22.2428 22.4053 22.2624C22.2658 22.2821 22.1239 22.2522 22.0042 22.178C21.885 22.1045 21.7949 21.9921 21.7489 21.8598C21.703 21.7275 21.7041 21.5834 21.7521 21.4518L22.3909 19.717L21.826 19.7506H21.7924C21.6603 19.7498 21.5321 19.706 21.427 19.6259C21.322 19.5458 21.2459 19.4337 21.2102 19.3065C21.1745 19.1793 21.1812 19.044 21.2292 18.9209C21.2772 18.7978 21.364 18.6937 21.4764 18.6243L21.7184 18.4764L21.0897 18.0629C20.9821 17.9901 20.9005 17.8849 20.8569 17.7625C20.8134 17.6401 20.8102 17.5069 20.8477 17.3825C20.8853 17.2582 20.9617 17.1491 21.0658 17.0713C21.1698 16.9934 21.296 16.9509 21.4259 16.95C21.464 16.9468 21.5022 16.9468 21.5402 16.95L22.8111 17.1921L23.1137 15.2354C23.1353 15.0964 23.2044 14.9692 23.3092 14.8754C23.414 14.7816 23.5481 14.7271 23.6886 14.721H23.7155C23.8513 14.7216 23.983 14.7676 24.0896 14.8517C24.1962 14.9357 24.2716 15.053 24.3039 15.1849L24.7376 16.9534L25.0234 16.7785V14.2234C25.0232 14.118 24.9905 14.0153 24.9297 13.9292C24.8689 13.8431 24.783 13.778 24.6838 13.7426Z" fill="white"/>
<defs>
<linearGradient id="paint0_linear_2020_2410" x1="37.3846" y1="0.282365" x2="-1.13702" y2="1.06982" gradientUnits="userSpaceOnUse">
<stop stop-color="#41DBF0"/>
<stop offset="1" stop-color="#4B4E99"/>
</linearGradient>
</defs>
</svg>
