<svg width="32" height="33" viewBox="0 0 32 33" fill="none" xmlns="http://www.w3.org/2000/svg">
<path d="M30.3765 2.04471C27.7843 -0.547443 22.0553 0.733505 16.044 4.76799C10.0326 0.733505 4.30362 -0.547443 1.71146 2.04471C-0.880695 4.63687 0.400253 10.3658 4.43474 16.3772C0.400253 22.3886 -0.880695 28.1176 1.71146 30.7097C4.30362 33.3019 10.0326 32.0209 16.044 27.9864C22.0553 32.0209 27.7843 33.3019 30.3765 30.7097C32.9686 28.1176 31.6877 22.3886 27.6532 16.3772C31.6877 10.3658 32.9686 4.63687 30.3765 2.04471Z" fill="url(#paint0_linear_2020_1161)"/>
<path d="M20.6735 14.9417C20.0634 14.5869 19.4989 14.159 18.9924 13.6675C18.1721 12.8707 17.2408 11.9629 17.261 10.5139C17.261 10.4365 17.261 10.3592 17.261 10.2785C16.8327 10.1568 16.3914 10.0869 15.9464 10.0701C14.4885 10.08 13.0869 10.6339 12.0162 11.6233C10.13 13.4355 10.3553 15.9066 10.5705 18.2668C10.6848 19.4906 10.9403 20.0083 11.337 20.1933C11.8682 20.4421 13.1223 20.321 13.3778 20.5799C13.3932 20.595 13.4068 20.6119 13.4181 20.6303C13.5201 20.7857 13.5781 20.9658 13.5862 21.1514C13.6008 21.7287 13.6661 22.3036 13.7812 22.8695C13.8317 22.8695 13.7274 22.0895 14.1679 21.7163C14.3805 21.5586 14.6409 21.4789 14.9054 21.4905C15.1699 21.5021 15.4223 21.6044 15.6203 21.7802C15.9834 22.1769 15.7817 22.93 15.8355 22.9333C15.8893 22.9367 15.8355 22.0088 16.3263 21.6524C16.5207 21.5331 16.7481 21.4789 16.9755 21.4976C17.2028 21.5163 17.4182 21.6071 17.5905 21.7566C18.0141 22.1735 17.8191 22.9972 17.8695 23.0006C17.92 23.0039 17.9603 22.3282 18.1519 21.4608C18.2629 20.9665 18.3167 20.711 18.4444 20.5799C18.9487 20.0655 19.7893 20.6001 20.4818 20.1933C20.9424 19.9176 21.1206 19.3191 21.2114 18.3643C21.3387 17.3711 21.3926 16.3698 21.3728 15.3687L20.6735 14.9417ZM14.6789 17.944C14.4705 18.0348 14.2587 18.1121 14.0502 18.1928C13.8107 18.2963 13.5782 18.4154 13.3543 18.5492C13.1135 18.7135 12.8344 18.8131 12.544 18.8383C11.7606 18.872 11.1555 18.1121 11.0075 17.4061C10.9599 17.2081 10.9407 17.0043 10.9504 16.8009C10.9703 16.5226 11.041 16.2503 11.1588 15.9974C11.2488 15.8091 11.3731 15.6392 11.5253 15.4964C11.6665 15.3593 11.8288 15.2458 12.0061 15.1602C12.2176 15.0559 12.4447 14.9867 12.6785 14.9552C12.9215 14.9238 13.168 14.9329 13.4081 14.9821C13.7787 15.0643 14.1245 15.2338 14.4167 15.4763C14.7273 15.6814 14.989 15.9522 15.1832 16.2697C15.3429 16.5549 15.3897 16.8897 15.3143 17.2077C15.276 17.3318 15.2118 17.4464 15.1261 17.5439C15.0169 17.7161 14.8621 17.8546 14.6789 17.944ZM16.908 19.8571C16.6627 20.0733 16.3426 20.1852 16.0161 20.1688C15.6895 20.1525 15.3822 20.0093 15.1597 19.7696C14.8874 19.3998 14.9815 18.8182 15.2437 17.9575C15.4354 17.3422 15.7279 17.2111 16.0843 17.1842C16.5045 17.1506 16.7735 17.5204 16.8945 17.9171C17.1433 18.7308 17.3148 19.457 16.908 19.8571ZM20.6937 18.0987C20.4851 18.4433 20.1534 18.6957 19.7657 18.8047C19.3971 18.875 19.0156 18.7977 18.7033 18.5896C18.4556 18.4397 18.1984 18.306 17.9334 18.1895C17.7249 18.1088 17.5131 18.0348 17.3081 17.944C17.1305 17.8579 16.9795 17.7255 16.871 17.5608C16.78 17.4587 16.7144 17.3366 16.6793 17.2044C16.6275 16.9317 16.653 16.6499 16.7528 16.3909C16.8526 16.1319 17.0228 15.9059 17.2442 15.7385C17.5698 15.435 17.9496 15.1955 18.3637 15.0325C18.5644 14.9658 18.7743 14.9306 18.9857 14.9283C19.1923 14.9209 19.3988 14.9458 19.5976 15.0022C19.7922 15.0527 19.9773 15.1345 20.1456 15.2443C20.3694 15.393 20.5632 15.5823 20.7172 15.8024C20.8407 15.9754 20.9298 16.1706 20.9794 16.3773C21.0327 16.5755 21.0543 16.7809 21.0433 16.9858C21.0267 17.3811 20.906 17.7649 20.6937 18.0987Z" fill="white"/>
<path d="M20.8786 14.592C20.0223 14.0749 19.2502 13.4297 18.589 12.679C18.2792 12.3663 18.0388 11.9918 17.8835 11.5799C17.7283 11.168 17.6616 10.728 17.688 10.2886C17.6886 10.1984 17.6596 10.1105 17.6056 10.0382C17.5516 9.96601 17.4755 9.91342 17.3888 9.88849C16.077 9.53678 14.6838 9.65081 13.4467 10.2111C12.2095 10.7715 11.205 11.7434 10.6041 12.9614C9.9317 14.4912 10.0023 16.189 10.1469 17.8196C10.2108 18.5492 10.2309 19.3931 10.6243 20.0386C10.9605 20.6 11.5455 20.711 12.154 20.7614C12.4506 20.7718 12.7461 20.8033 13.0383 20.8556C13.0719 20.8556 13.1089 20.8724 13.1425 20.8858C13.1156 20.8858 13.092 20.8455 13.1425 20.8858C13.1929 20.9262 13.1223 20.869 13.1223 20.869C13.1417 20.8989 13.1586 20.9304 13.1727 20.9631C13.2092 21.0818 13.2262 21.2055 13.2232 21.3296C13.2433 21.6456 13.2702 21.9617 13.3039 22.2744C13.3035 22.5435 13.3537 22.8104 13.4518 23.0611C13.4784 23.1091 13.5143 23.1513 13.5573 23.1854C13.6003 23.2195 13.6496 23.2448 13.7024 23.2597C13.7552 23.2747 13.8104 23.2792 13.8649 23.2728C13.9194 23.2664 13.9721 23.2493 14.02 23.2225C14.0892 23.1779 14.1454 23.1159 14.1832 23.0427C14.221 22.9696 14.2389 22.8878 14.2351 22.8056C14.2288 22.5824 14.2724 22.3607 14.3629 22.1567C14.4328 22.0545 14.5314 21.9753 14.6464 21.9292C14.7613 21.8831 14.8873 21.8722 15.0084 21.8978C15.1287 21.9019 15.243 21.9513 15.3284 22.0361C15.4138 22.1209 15.464 22.2348 15.469 22.355C15.4959 22.6005 15.3883 22.9131 15.5195 23.135C15.5536 23.1918 15.601 23.2394 15.6576 23.2738C15.7141 23.3082 15.7782 23.3285 15.8442 23.3328C15.9103 23.3371 15.9764 23.3253 16.037 23.2985C16.0975 23.2717 16.1507 23.2306 16.1919 23.1788C16.263 23.0709 16.3015 22.9448 16.3028 22.8156C16.314 22.591 16.3653 22.3701 16.4541 22.1634C16.5136 22.0529 16.611 21.9676 16.7283 21.9231C16.8457 21.8786 16.9751 21.878 17.0929 21.9213C17.2028 21.9541 17.2995 22.0209 17.369 22.1121C17.4385 22.2034 17.4772 22.3143 17.4795 22.429C17.4589 22.6527 17.4589 22.8778 17.4795 23.1014C17.4976 23.1614 17.529 23.2165 17.5713 23.2627C17.6136 23.3088 17.6657 23.3449 17.7239 23.3681C17.782 23.3914 17.8446 23.4013 17.9071 23.397C17.9696 23.3927 18.0303 23.3744 18.0847 23.3435C18.1454 23.3033 18.1964 23.2502 18.2342 23.1881C18.272 23.1259 18.2956 23.0561 18.3033 22.9838C18.3671 22.6475 18.4041 22.2912 18.4714 21.9482C18.5117 21.7263 18.5621 21.5044 18.6126 21.2758C18.6361 21.185 18.6563 21.0943 18.6832 21.0035C18.6906 20.9739 18.6996 20.9447 18.7101 20.9161C18.7437 20.8186 18.6899 20.9497 18.7101 20.8724C18.7101 20.8724 18.7739 20.7917 18.7336 20.8388C18.6932 20.8858 18.7336 20.8388 18.7672 20.8119C18.83 20.7784 18.8984 20.7568 18.9689 20.748C19.1376 20.7278 19.308 20.7278 19.4766 20.748C19.8882 20.7992 20.3059 20.7316 20.6802 20.553C20.9656 20.3842 21.1894 20.1285 21.319 19.8234C21.4716 19.4473 21.5679 19.0508 21.6048 18.6467C21.6653 18.1525 21.7057 17.6381 21.7426 17.1539C21.7796 16.6698 21.7998 16.1924 21.7931 15.7116C21.7931 15.4561 21.82 15.1602 21.5779 14.9988C21.516 14.9575 21.452 14.9194 21.3863 14.8845L20.8786 14.5853C20.7854 14.5309 20.6744 14.5158 20.5701 14.5432C20.4657 14.5706 20.3766 14.6384 20.3222 14.7316C20.2678 14.8247 20.2526 14.9357 20.2801 15.0401C20.3075 15.1444 20.3752 15.2336 20.4684 15.288L21.1711 15.7049L20.9694 15.3687C20.9957 16.1699 20.9665 16.972 20.882 17.7692C20.8282 18.371 20.8315 19.1308 20.5121 19.6452C20.4931 19.6778 20.4705 19.7083 20.4449 19.736L20.3676 19.81C20.2582 19.8916 20.1297 19.9438 19.9944 19.9613C19.7066 19.9764 19.4181 19.9764 19.1303 19.9613C18.8307 19.9327 18.5317 20.0221 18.297 20.2104C18.0622 20.3987 17.91 20.6712 17.8729 20.9699C17.772 21.3868 17.688 21.807 17.6207 22.2306C17.5972 22.3752 17.577 22.5198 17.5535 22.6677C17.5535 22.7148 17.5367 22.7652 17.53 22.8156C17.5232 22.8661 17.4997 22.8694 17.53 22.8156L17.772 22.6307L18.0814 22.6711L18.2696 22.9131C18.2696 22.9131 18.2696 23.0375 18.2696 22.9602C18.2696 22.8829 18.2696 22.8997 18.2696 22.8694C18.2696 22.8392 18.2696 22.7215 18.2696 22.6442C18.2739 22.4157 18.2387 22.1882 18.1654 21.9718C18.072 21.7135 17.9018 21.4899 17.6776 21.3313C17.4534 21.1726 17.186 21.0864 16.9114 21.0842C16.6531 21.0763 16.3984 21.1461 16.1802 21.2846C15.962 21.423 15.7904 21.6238 15.6876 21.8608C15.603 22.0605 15.5464 22.271 15.5195 22.4862C15.5195 22.5803 15.4926 22.6744 15.4825 22.7686C15.4825 22.7955 15.4825 22.8224 15.4825 22.8493C15.4825 22.7753 15.4825 22.7585 15.4825 22.7955C15.4825 22.8325 15.4825 22.8123 15.5127 22.7249L15.7548 22.54L16.0675 22.5803L16.2524 22.8257C16.2524 22.7988 16.2356 22.93 16.2524 22.8762C16.2559 22.8426 16.2559 22.8088 16.2524 22.7753C16.2524 22.6845 16.2524 22.5938 16.2524 22.503C16.2546 22.2604 16.2065 22.02 16.1112 21.7969C15.9932 21.575 15.8153 21.3906 15.5978 21.2646C15.3803 21.1386 15.1319 21.0761 14.8807 21.0842C14.6258 21.0735 14.373 21.1342 14.1508 21.2596C13.9286 21.3849 13.7459 21.5699 13.6233 21.7936C13.5236 22.0055 13.4611 22.2329 13.4383 22.466L13.4182 22.7013C13.4164 22.7338 13.4164 22.7664 13.4182 22.7988C13.4182 22.8896 13.4484 22.6946 13.4585 22.6744L13.6031 22.5299H14.0065L14.1511 22.6744C14.178 22.7081 14.1746 22.782 14.1511 22.698C14.1276 22.6139 14.1511 22.6139 14.1276 22.5736C14.1276 22.4593 14.1074 22.4156 14.0872 22.2575C14.057 21.9583 14.0301 21.6591 14.0099 21.3565C14.0263 20.9972 13.9234 20.6426 13.7174 20.3479C13.5057 20.1384 13.2217 20.018 12.9239 20.0117C12.6214 19.9747 12.3154 19.9613 12.0095 19.9276C11.8965 19.9158 11.7843 19.8978 11.6733 19.8738L11.5623 19.8369L11.4984 19.8032C11.4984 19.8032 11.4211 19.7494 11.4682 19.8032C11.5152 19.857 11.4144 19.7461 11.3976 19.7293C11.3808 19.7125 11.3505 19.6721 11.3976 19.7293L11.337 19.662C11.2782 19.5683 11.2308 19.4678 11.1958 19.3628C11.0916 19.0352 11.0251 18.6968 10.9975 18.3542C10.8495 16.8749 10.6848 15.3014 11.1219 13.8591C11.348 13.1538 11.7361 12.5113 12.2551 11.9829C12.7741 11.4546 13.4096 11.0551 14.1108 10.8164C14.4237 10.705 14.7453 10.6195 15.0723 10.5609L15.2774 10.5273C15.348 10.5273 15.2202 10.5273 15.2774 10.5273H15.385C15.4858 10.5273 15.5867 10.5071 15.6876 10.5004C16.1854 10.4882 16.682 10.5529 17.1601 10.692L16.8643 10.2987C16.8374 10.8253 16.9177 11.3519 17.1004 11.8466C17.283 12.3413 17.5641 12.7937 17.9267 13.1766C18.6501 14.0195 19.5037 14.7414 20.455 15.3149C20.5508 15.371 20.6651 15.3868 20.7726 15.3588C20.8801 15.3307 20.972 15.2611 21.0282 15.1653C21.0844 15.0694 21.1002 14.9552 21.0721 14.8477C21.0441 14.7402 20.9744 14.6482 20.8786 14.592Z" fill="white"/>
<path d="M14.4739 17.5944C14.0973 17.7592 13.7107 17.8836 13.3476 18.0819C13.079 18.2893 12.7548 18.4122 12.4163 18.435C11.8481 18.3812 11.4883 17.7625 11.3841 17.2616C11.3034 16.9157 11.3426 16.5526 11.4953 16.2319C11.648 15.9112 11.9052 15.6519 12.2246 15.4965C12.5529 15.3517 12.916 15.305 13.2702 15.362C13.6258 15.4397 13.9563 15.605 14.2318 15.8428C14.5449 16.0415 14.7818 16.34 14.9042 16.69C14.9491 16.8677 14.9303 17.0555 14.8511 17.2208C14.7718 17.386 14.6372 17.5182 14.4705 17.5944C14.0032 17.8264 14.4133 18.5257 14.8773 18.2937C15.1114 18.172 15.3124 17.9951 15.4629 17.7784C15.6134 17.5617 15.709 17.3116 15.7414 17.0498C15.7578 16.7837 15.7174 16.5172 15.6229 16.268C15.5284 16.0187 15.382 15.7924 15.1934 15.6041C14.865 15.2586 14.4779 14.974 14.0502 14.7636C13.5659 14.5409 13.0251 14.4717 12.5003 14.5652C11.9765 14.6531 11.4965 14.912 11.1353 15.3015C10.9021 15.5748 10.7307 15.8952 10.6328 16.2409C10.5349 16.5866 10.5128 16.9493 10.568 17.3043C10.6232 17.6593 10.7545 17.9982 10.9528 18.2978C11.1511 18.5974 11.4118 18.8506 11.717 19.0401C11.9551 19.1628 12.219 19.2268 12.4869 19.2268C12.7547 19.2268 13.0187 19.1628 13.2568 19.0401C13.5224 18.9191 13.7712 18.751 14.0368 18.6232C14.3024 18.4955 14.605 18.398 14.8807 18.287C14.973 18.2341 15.041 18.147 15.0699 18.0446C15.0988 17.9421 15.0864 17.8324 15.0353 17.739C14.9788 17.6468 14.8886 17.5801 14.7838 17.5531C14.6791 17.5262 14.5679 17.541 14.4739 17.5944Z" fill="white"/>
<path d="M16.6222 19.5713L16.5516 19.6318C16.6188 19.578 16.5751 19.615 16.5516 19.6318C16.528 19.6486 16.4608 19.6856 16.4104 19.7092C16.4978 19.6654 16.3532 19.7092 16.3263 19.736L16.2456 19.7562C16.2221 19.7562 16.1044 19.7562 16.2053 19.7562C16.1493 19.7596 16.0932 19.7596 16.0372 19.7562C16.0069 19.7562 15.8455 19.7361 15.9464 19.7562C15.8919 19.7471 15.838 19.7348 15.785 19.7192L15.7245 19.6991C15.6371 19.6755 15.7716 19.7293 15.701 19.6991C15.6532 19.6754 15.6071 19.6485 15.5631 19.6184C15.6438 19.6722 15.5631 19.6184 15.5463 19.6184L15.5026 19.5713C15.5329 19.6318 15.4286 19.5074 15.5026 19.5713L15.4723 19.5276L15.4354 19.457C15.4623 19.5108 15.4555 19.5041 15.4354 19.457C15.4221 19.4107 15.412 19.3635 15.4051 19.3158C15.4253 19.4267 15.4051 19.2687 15.4051 19.2385C15.4051 19.2082 15.4051 19.1242 15.4051 19.067C15.4051 19.0098 15.4051 19.0166 15.4051 18.993C15.4051 18.9695 15.4051 18.946 15.4051 18.993V18.9359C15.4589 18.6227 15.5388 18.3146 15.6438 18.0147C15.6438 18.0147 15.6942 17.8936 15.6707 17.9441C15.6472 17.9945 15.7043 17.8802 15.701 17.8869C15.728 17.8368 15.7583 17.7885 15.7917 17.7423C15.7312 17.823 15.8287 17.7121 15.8455 17.6953C15.8623 17.6785 15.7716 17.739 15.8455 17.6953C15.8725 17.6816 15.8983 17.6658 15.9229 17.6482C15.8321 17.6717 15.9598 17.6179 15.9229 17.6482H15.9699C16.0114 17.6344 16.0542 17.6254 16.0977 17.6213C16.0641 17.6213 15.9834 17.6213 16.0977 17.6213H16.1717C16.2927 17.6213 16.091 17.6213 16.2053 17.6213H16.2389C16.1952 17.6011 16.1918 17.6011 16.2389 17.6213C16.286 17.6415 16.3297 17.6818 16.2826 17.6482C16.2355 17.6146 16.3196 17.6818 16.3196 17.6818L16.3667 17.7356C16.4406 17.8129 16.3364 17.6717 16.3902 17.7659C16.4237 17.8189 16.454 17.8739 16.481 17.9306C16.481 17.9508 16.5179 18.0012 16.481 17.9306C16.4978 17.9743 16.5112 18.018 16.5247 18.0617C16.5785 18.2366 16.6289 18.3979 16.6726 18.5896C16.6928 18.677 16.7129 18.7644 16.7298 18.8518C16.7298 18.8787 16.7298 18.909 16.7298 18.9359C16.7298 18.9628 16.7298 18.9897 16.7298 18.9527C16.7281 18.9728 16.7281 18.9931 16.7298 19.0132C16.7298 19.0838 16.7298 19.1544 16.7298 19.225C16.7298 19.2956 16.7298 19.2956 16.7298 19.3326C16.7298 19.262 16.7298 19.3326 16.7298 19.3629C16.7298 19.3931 16.7298 19.4167 16.7062 19.4436C16.7076 19.4592 16.7076 19.475 16.7062 19.4906C16.7298 19.4402 16.7264 19.4436 16.7062 19.4906C16.6938 19.5078 16.6826 19.5257 16.6726 19.5444C16.6491 19.5814 16.6457 19.5814 16.6726 19.5444L16.6255 19.5948C16.5601 19.673 16.5263 19.7728 16.531 19.8746C16.5356 19.9764 16.5783 20.0728 16.6506 20.1446C16.7228 20.2164 16.8194 20.2586 16.9213 20.2626C17.0231 20.2666 17.1227 20.2323 17.2004 20.1664C17.7552 19.5948 17.5367 18.7241 17.3517 18.0416C17.2803 17.668 17.1016 17.3233 16.8373 17.0498C16.6965 16.9275 16.5278 16.8418 16.3461 16.8002C16.1643 16.7585 15.9751 16.7623 15.7951 16.8111C15.042 16.9825 14.8302 17.8197 14.6856 18.4686C14.5957 18.8049 14.574 19.1558 14.6217 19.5007C14.6508 19.6599 14.7113 19.8118 14.7996 19.9474C14.8879 20.0831 15.0023 20.1998 15.1361 20.2908C15.4478 20.4982 15.8198 20.5956 16.1932 20.5676C16.5665 20.5396 16.9198 20.3877 17.1971 20.1361C17.2714 20.0596 17.313 19.9571 17.313 19.8504C17.313 19.7436 17.2714 19.6411 17.1971 19.5646C17.1191 19.4909 17.0155 19.4504 16.9083 19.4517C16.801 19.4529 16.6984 19.4958 16.6222 19.5713Z" fill="white"/>
<path d="M20.344 17.8937C20.1932 18.1456 19.9532 18.3316 19.6716 18.4148C19.3354 18.4438 19.0006 18.3454 18.7336 18.1391C18.3649 17.948 17.9855 17.7785 17.5972 17.6314C17.4605 17.5815 17.3388 17.4975 17.2435 17.3875C17.1482 17.2775 17.0825 17.1451 17.0525 17.0027C16.9685 16.3303 17.7081 15.8125 18.2192 15.5402C18.5405 15.352 18.9169 15.2801 19.285 15.3368C19.6531 15.3936 19.9904 15.5753 20.2402 15.8516C20.49 16.1278 20.6371 16.4817 20.6566 16.8536C20.6761 17.2255 20.5669 17.5928 20.3474 17.8937C20.0582 18.3307 20.7609 18.7342 21.0467 18.3005C21.3303 17.8652 21.4709 17.3522 21.4486 16.8331C21.4263 16.3141 21.2422 15.815 20.9223 15.4057C20.5987 15.0165 20.1627 14.7367 19.674 14.6049C19.1852 14.4731 18.6677 14.4956 18.1923 14.6694C17.3181 15.0056 16.3633 15.752 16.2524 16.7405C16.2257 16.9841 16.2572 17.2306 16.3443 17.4597C16.4314 17.6888 16.5715 17.894 16.7533 18.0584C17.1332 18.3946 17.698 18.5056 18.1553 18.7308C18.3993 18.8761 18.6519 19.0063 18.9118 19.1208C19.1973 19.2224 19.5043 19.2479 19.8027 19.1948C20.0596 19.1338 20.3016 19.0221 20.5147 18.8662C20.7277 18.7103 20.9075 18.5134 21.0433 18.287C21.0963 18.1945 21.1108 18.0849 21.0837 17.9818C21.0567 17.8787 20.9903 17.7903 20.8987 17.7356C20.8039 17.6845 20.6929 17.6724 20.5893 17.702C20.4857 17.7315 20.3977 17.8002 20.344 17.8937Z" fill="white"/>
<path d="M23.7195 8.92029C23.3973 8.83755 23.0573 8.85793 22.7473 8.97855C22.4373 9.09917 22.173 9.31396 21.9914 9.5927V9.61623C21.8173 9.32961 21.5557 9.10657 21.2451 8.98005C20.9345 8.85352 20.5915 8.83021 20.2667 8.91356C19.5943 9.1321 19.3018 9.87848 19.295 10.403C19.295 11.1359 19.8263 11.6637 20.5256 12.3429C20.9313 12.7401 21.3827 13.0877 21.8704 13.3784C22.4338 13.0563 22.9622 12.6766 23.4472 12.2454C24.1465 11.573 24.6878 11.072 24.6777 10.3559C24.6792 10.0484 24.5888 9.74739 24.4181 9.4916C24.2474 9.23581 24.0041 9.03686 23.7195 8.92029Z" fill="white"/>
<path d="M23.8271 8.53694C23.3881 8.41511 22.9197 8.45692 22.5092 8.65461C22.173 8.81599 21.6048 9.20935 21.5914 9.62961L22.3377 9.42789C22.1657 9.16286 21.9367 8.9396 21.6674 8.77441C21.3981 8.60921 21.0953 8.50626 20.7811 8.47306C20.4861 8.45373 20.1912 8.51255 19.9261 8.64359C19.6611 8.77464 19.4353 8.97326 19.2715 9.21944C19.1134 9.44923 19.0022 9.70805 18.9445 9.98098C18.8868 10.2539 18.8837 10.5356 18.9353 10.8097C19.0564 11.425 19.5136 11.9158 19.9439 12.3462C20.4639 12.8802 21.049 13.3468 21.6855 13.7347C21.7465 13.7711 21.8162 13.7904 21.8872 13.7904C21.9583 13.7904 22.028 13.7711 22.0889 13.7347C22.583 13.4524 23.052 13.1285 23.4909 12.7664C24.0205 12.3618 24.4755 11.868 24.8358 11.3073C24.9712 11.0628 25.0526 10.7922 25.0745 10.5136C25.0964 10.235 25.0582 9.95491 24.9626 9.69231C24.867 9.42971 24.7162 9.19068 24.5203 8.99136C24.3244 8.79205 24.088 8.63708 23.8271 8.53694C23.3363 8.36883 23.1278 9.14211 23.6153 9.30685C23.7811 9.37625 23.9268 9.48621 24.039 9.62661C24.1512 9.76702 24.2263 9.93337 24.2575 10.1104C24.2937 10.2916 24.2883 10.4786 24.2417 10.6574C24.1951 10.8362 24.1085 11.0021 23.9885 11.1425C23.6436 11.5693 23.2498 11.9541 22.8151 12.289C22.4569 12.5691 22.0782 12.822 21.6821 13.0455H22.0957C21.5283 12.6982 21.0065 12.2814 20.5424 11.8049C20.1591 11.425 19.6884 10.9778 19.7052 10.3928C19.7053 10.1769 19.763 9.96495 19.8724 9.77879C19.9817 9.59263 20.1387 9.439 20.3272 9.33375C20.5746 9.2527 20.8422 9.25776 21.0864 9.3481C21.3305 9.43845 21.537 9.60876 21.672 9.83133C21.7183 9.9037 21.7865 9.95941 21.8667 9.99034C21.9468 10.0213 22.0347 10.0258 22.1176 10.0033C22.2005 9.98079 22.2741 9.93241 22.3276 9.8652C22.3811 9.79798 22.4117 9.71545 22.4151 9.62961V9.60608L22.3613 9.8078C22.4966 9.60926 22.6887 9.45619 22.9125 9.36861C23.1362 9.28103 23.3812 9.26302 23.6153 9.31694C23.7188 9.34503 23.8291 9.33087 23.9221 9.2776C24.0151 9.22432 24.0831 9.13628 24.1112 9.03284C24.1393 8.92941 24.1252 8.81905 24.0719 8.72605C24.0186 8.63305 23.9306 8.56503 23.8271 8.53694Z" fill="white"/>
<defs>
<linearGradient id="paint0_linear_2020_1161" x1="28.3491" y1="4.34773" x2="1.15672" y2="30.9316" gradientUnits="userSpaceOnUse">
<stop stop-color="#4651D1"/>
<stop offset="0.42" stop-color="#2482C3"/>
<stop offset="0.8" stop-color="#0AA7B9"/>
<stop offset="1" stop-color="#00B5B5"/>
</linearGradient>
</defs>
</svg>
