<svg width="38" height="37" viewBox="0 0 38 37" fill="none" xmlns="http://www.w3.org/2000/svg">
<path d="M36.2353 17.125C36.4822 17.2598 36.6883 17.4586 36.8318 17.7006C36.9754 17.9426 37.0511 18.2187 37.0511 18.5001C37.0511 18.7814 36.9754 19.0576 36.8318 19.2995C36.6883 19.5415 36.4822 19.7403 36.2353 19.8751C29.4698 23.5744 23.9075 29.1367 20.2083 35.9021C20.0734 36.1491 19.8746 36.3551 19.6326 36.4987C19.3907 36.6423 19.1145 36.718 18.8332 36.718C18.5518 36.718 18.2757 36.6423 18.0337 36.4987C17.7918 36.3551 17.5929 36.1491 17.4581 35.9021C13.7588 29.1367 8.19654 23.5744 1.43112 19.8751C1.18419 19.7403 0.978119 19.5415 0.834556 19.2995C0.690994 19.0576 0.615234 18.7814 0.615234 18.5001C0.615234 18.2187 0.690994 17.9426 0.834556 17.7006C0.978119 17.4586 1.18419 17.2598 1.43112 17.125C8.19654 13.4257 13.7588 7.86341 17.4581 1.09799C17.5929 0.851057 17.7918 0.644989 18.0337 0.501426C18.2757 0.357864 18.5518 0.282104 18.8332 0.282104C19.1145 0.282104 19.3907 0.357864 19.6326 0.501426C19.8746 0.644989 20.0734 0.851057 20.2083 1.09799C23.9075 7.86341 29.4698 13.4257 36.2353 17.125Z" fill="url(#paint0_linear_2020_930)"/>
<path d="M21.7111 12.3038C21.1329 11.0834 18.9206 11.1136 18.3289 11.1237C17.6161 11.1237 15.8679 11.1607 15.4274 12.1323C15.3393 12.3377 15.3068 12.5627 15.3333 12.7846V13.8806C15.3333 13.9698 15.3687 14.0553 15.4318 14.1183C15.4948 14.1814 15.5803 14.2168 15.6695 14.2168H18.228C18.2896 14.2168 18.3486 14.2413 18.3921 14.2848C18.4356 14.3283 18.46 14.3873 18.46 14.4488V14.6976C18.46 14.7591 18.4356 14.8181 18.3921 14.8616C18.3486 14.9051 18.2896 14.9296 18.228 14.9296H13.8574C13.4746 14.934 13.1016 15.0509 12.7849 15.2658C12.4593 15.5197 12.2151 15.8633 12.0822 16.2542C11.8374 16.905 11.7398 17.602 11.7964 18.295C11.7491 19.0716 11.8911 19.848 12.2099 20.5577C12.3577 20.9164 12.6155 21.2189 12.9462 21.4217C13.2327 21.5498 13.5436 21.614 13.8574 21.61H14.5533C14.6003 21.6124 14.6473 21.6049 14.6912 21.5881C14.7351 21.5712 14.775 21.5453 14.8083 21.512C14.8416 21.4787 14.8675 21.4388 14.8844 21.3949C14.9013 21.351 14.9087 21.304 14.9063 21.257C14.9063 20.9208 14.9063 20.3828 14.9063 20.0702C14.9189 19.5568 15.1215 19.0663 15.4749 18.6937C15.8283 18.321 16.3073 18.0927 16.8193 18.0529H18.5777H20.178C20.6175 18.0486 21.0378 17.8723 21.3488 17.5619C21.6599 17.2514 21.837 16.8315 21.8423 16.3921V14.2168V12.7846C21.8276 12.6178 21.7831 12.455 21.7111 12.3038ZM16.7588 13.3763C16.6351 13.3763 16.5142 13.3396 16.4114 13.2709C16.3086 13.2022 16.2284 13.1045 16.1811 12.9903C16.1337 12.876 16.1214 12.7503 16.1455 12.629C16.1696 12.5076 16.2292 12.3962 16.3166 12.3088C16.4041 12.2213 16.5155 12.1618 16.6368 12.1376C16.7581 12.1135 16.8839 12.1259 16.9981 12.1732C17.1124 12.2205 17.2101 12.3007 17.2788 12.4035C17.3475 12.5064 17.3842 12.6273 17.3842 12.751C17.3842 12.9168 17.3183 13.0759 17.201 13.1931C17.0837 13.3104 16.9247 13.3763 16.7588 13.3763Z" fill="white"/>
<path d="M15.9553 24.6964C16.5336 25.9168 18.7459 25.8866 19.3376 25.8765C20.0503 25.8765 21.7986 25.8395 22.239 24.8679C22.3226 24.6707 22.355 24.4556 22.3332 24.2425V23.1364C22.3355 23.0909 22.3285 23.0453 22.3126 23.0026C22.2967 22.9598 22.2723 22.9207 22.2409 22.8877C22.2094 22.8547 22.1716 22.8284 22.1296 22.8105C22.0877 22.7925 22.0426 22.7833 21.997 22.7834H19.4384C19.3769 22.7834 19.3179 22.7589 19.2744 22.7154C19.2309 22.6719 19.2065 22.6129 19.2065 22.5514V22.3026C19.2065 22.2411 19.2309 22.1821 19.2744 22.1386C19.3179 22.0951 19.3769 22.0706 19.4384 22.0706H23.8091C24.1919 22.0662 24.5649 21.9493 24.8816 21.7344C25.2072 21.4805 25.4514 21.1369 25.5843 20.746C25.8291 20.0952 25.9267 19.3982 25.8701 18.7052C25.9173 17.9286 25.7754 17.1522 25.4565 16.4425C25.3088 16.0838 25.051 15.7813 24.7203 15.5785C24.4338 15.4504 24.1229 15.3862 23.8091 15.3902H23.1165C23.0274 15.3902 22.9419 15.4256 22.8788 15.4887C22.8158 15.5517 22.7803 15.6372 22.7803 15.7264C22.7803 16.0626 22.7803 16.6005 22.7803 16.9132C22.7677 17.4266 22.5651 17.9171 22.2118 18.2897C21.8584 18.6623 21.3793 18.8907 20.8673 18.9304H19.109H17.4884C17.049 18.9348 16.6287 19.1111 16.3177 19.4215C16.0066 19.732 15.8295 20.1519 15.8242 20.5913V22.7699V24.219C15.8393 24.3846 15.8837 24.5463 15.9553 24.6964ZM20.9077 23.6239C21.0313 23.6239 21.1523 23.6606 21.2551 23.7293C21.3579 23.798 21.4381 23.8957 21.4854 24.0099C21.5327 24.1242 21.5451 24.2499 21.521 24.3712C21.4969 24.4925 21.4373 24.604 21.3499 24.6914C21.2624 24.7789 21.151 24.8384 21.0297 24.8626C20.9084 24.8867 20.7826 24.8743 20.6684 24.827C20.5541 24.7797 20.4564 24.6995 20.3877 24.5967C20.319 24.4938 20.2823 24.3729 20.2823 24.2492C20.2823 24.0834 20.3482 23.9243 20.4655 23.8071C20.5828 23.6898 20.7418 23.6239 20.9077 23.6239Z" fill="white"/>
<defs>
<linearGradient id="paint0_linear_2020_930" x1="37.0511" y1="0.282487" x2="-1.47052" y2="1.06994" gradientUnits="userSpaceOnUse">
<stop stop-color="#ACE113"/>
<stop offset="1" stop-color="#00A176"/>
</linearGradient>
</defs>
</svg>
