<svg width="32" height="33" viewBox="0 0 32 33" fill="none" xmlns="http://www.w3.org/2000/svg">
<path d="M30.1658 2.16751C27.5736 -0.42464 21.8446 0.856308 15.8333 4.89079C9.82189 0.856308 4.09292 -0.42464 1.50077 2.16751C-1.09139 4.75967 0.18956 10.4886 4.22404 16.5C0.18956 22.5114 -1.09139 28.2404 1.50077 30.8325C4.09292 33.4247 9.82189 32.1437 15.8333 28.1092C21.8446 32.1437 27.5736 33.4247 30.1658 30.8325C32.7579 28.2404 31.477 22.5114 27.4425 16.5C31.477 10.4886 32.7579 4.75967 30.1658 2.16751Z" fill="url(#paint0_linear_2020_1295)"/>
<path d="M10.9212 16.3824C10.9102 16.3756 10.8976 16.3719 10.8847 16.3718C10.8718 16.3717 10.8591 16.3751 10.848 16.3817C10.8369 16.3883 10.8279 16.3978 10.8218 16.4092C10.8157 16.4205 10.8129 16.4334 10.8136 16.4462V18.1273C10.8136 18.6316 12.7199 19.5629 15.8331 19.5629C18.9464 19.5629 20.8527 18.6316 20.8527 18.1273V16.4462C20.8534 16.4334 20.8506 16.4205 20.8445 16.4092C20.8384 16.3978 20.8293 16.3883 20.8183 16.3817C20.8072 16.3751 20.7945 16.3717 20.7816 16.3718C20.7687 16.3719 20.7561 16.3756 20.7451 16.3824C19.555 17.0144 17.689 17.3405 15.8331 17.3405C13.9773 17.3405 12.1113 17.0144 10.9212 16.3824Z" fill="white"/>
<path d="M10.9213 13.1379C10.9099 13.1321 10.8973 13.1294 10.8845 13.1299C10.8717 13.1305 10.8593 13.1343 10.8485 13.1411C10.8377 13.1479 10.8288 13.1573 10.8227 13.1685C10.8166 13.1798 10.8135 13.1924 10.8137 13.2052V15.0442C10.8137 15.5519 12.72 16.4832 15.8333 16.4832C18.9466 16.4832 20.8529 15.5519 20.8529 15.0442V13.1951C20.8531 13.1823 20.85 13.1697 20.8439 13.1585C20.8378 13.1472 20.829 13.1378 20.8181 13.131C20.8073 13.1242 20.7949 13.1204 20.7821 13.1198C20.7694 13.1193 20.7567 13.122 20.7453 13.1278C19.5551 13.7633 17.6892 14.0894 15.8333 14.0894C13.9774 14.0894 12.1115 13.7633 10.9213 13.1379Z" fill="white"/>
<path d="M10.9213 19.4721C10.9099 19.4663 10.8973 19.4635 10.8845 19.4641C10.8717 19.4646 10.8593 19.4685 10.8485 19.4753C10.8377 19.482 10.8288 19.4915 10.8227 19.5027C10.8166 19.5139 10.8135 19.5266 10.8137 19.5393V21.2204C10.8137 21.728 12.72 22.6593 15.8333 22.6593C18.9466 22.6593 20.8529 21.7247 20.8529 21.2069V19.5259C20.8531 19.5131 20.85 19.5005 20.8439 19.4893C20.8378 19.478 20.829 19.4686 20.8181 19.4618C20.8073 19.455 20.7949 19.4512 20.7821 19.4506C20.7694 19.4501 20.7567 19.4528 20.7453 19.4587C19.5551 20.1075 17.6892 20.4336 15.8333 20.4336C13.9774 20.4336 12.1115 20.1075 10.9213 19.4721Z" fill="white"/>
<path d="M15.8333 13.222C18.6055 13.222 20.8529 12.5778 20.8529 11.7831C20.8529 10.9884 18.6055 10.3441 15.8333 10.3441C13.0611 10.3441 10.8137 10.9884 10.8137 11.7831C10.8137 12.5778 13.0611 13.222 15.8333 13.222Z" fill="white"/>
<defs>
<linearGradient id="paint0_linear_2020_1295" x1="31.5122" y1="0.821374" x2="-1.64077" y2="1.49908" gradientUnits="userSpaceOnUse">
<stop stop-color="#46A6FF"/>
<stop offset="1" stop-color="#5B34CC"/>
</linearGradient>
</defs>
</svg>
