<svg width="37" height="37" viewBox="0 0 37 37" fill="none" xmlns="http://www.w3.org/2000/svg">
<path d="M8.3578 28.4576C10.4532 33.4783 14.0954 36.8038 18.2411 36.8038C22.3869 36.8038 26.0291 33.4783 28.1245 28.4576C33.1452 26.3622 36.4707 22.72 36.4707 18.5743C36.4707 14.4285 33.145 10.7863 28.1245 8.6909C26.0291 3.67038 22.3869 0.344727 18.2411 0.344727C14.0954 0.344727 10.4532 3.67038 8.3578 8.6909C3.33729 10.7863 0.0115967 14.4285 0.0115967 18.5743C0.0115967 22.72 3.33725 26.3622 8.3578 28.4576Z" fill="url(#paint0_linear_2020_2612)"/>
<path d="M24.5695 18.2404C25.2789 17.6083 25.7509 16.8052 25.5019 15.8169C25.3122 15.1486 24.9606 14.5374 24.4783 14.0374C22.7651 16.1994 21.3016 18.5479 20.1156 21.0385C21.6765 20.2537 23.278 19.391 24.5695 18.2404Z" fill="white"/>
<path d="M24.8072 18.4781C25.1362 18.2146 25.4045 17.8832 25.5938 17.5065C25.7831 17.1299 25.8889 16.7168 25.9041 16.2955C25.8818 15.3508 25.3328 14.4784 24.7161 13.7996C24.6529 13.7369 24.5674 13.7017 24.4783 13.7017C24.3892 13.7017 24.3038 13.7369 24.2406 13.7996C22.5094 15.9837 21.0283 18.3548 19.8253 20.8687C19.7903 20.933 19.7771 21.0069 19.7875 21.0793C19.798 21.1517 19.8316 21.2188 19.8834 21.2706C19.9351 21.3223 20.0022 21.356 20.0747 21.3664C20.1471 21.3769 20.221 21.3637 20.2853 21.3287C21.9081 20.5755 23.4278 19.6176 24.8072 18.4781C25.1326 18.1915 24.6555 17.7175 24.3318 18.0027C23.0298 19.1496 21.487 19.972 19.9459 20.7481L20.4059 21.2081C21.5794 18.7435 23.0251 16.418 24.7161 14.2751H24.2406C24.7332 14.8174 25.2137 15.5368 25.2316 16.2957C25.2481 16.994 24.8249 17.5533 24.3318 18.0027C24.0113 18.2946 24.4878 18.7693 24.8072 18.4781Z" fill="white"/>
<path d="M19.7213 11.5234C19.6976 11.5694 19.6745 11.6158 19.6522 11.6613C19.5147 11.9686 19.403 12.2869 19.3184 12.6127C19.1592 13.2096 19.0451 13.8176 18.9771 14.4316C18.7774 16.4144 18.7776 18.4121 18.9778 20.3948C19.2512 19.9816 19.5199 19.5654 19.7787 19.143C20.6656 17.696 21.7077 16.0646 21.9672 14.3558C22.0892 13.7544 21.9828 13.129 21.6687 12.6017C21.2179 11.8944 20.4925 11.6594 19.7213 11.5234Z" fill="white"/>
<path d="M19.431 11.3538C18.7904 12.6343 18.6303 14.1457 18.5401 15.5562C18.4549 17.1695 18.4888 18.7868 18.6415 20.3951C18.6438 20.4677 18.6693 20.5378 18.7144 20.5948C18.7595 20.6519 18.8217 20.6929 18.8919 20.712C18.9621 20.731 19.0365 20.7269 19.1043 20.7004C19.172 20.6739 19.2294 20.6264 19.268 20.5647C20.3955 18.8558 21.6742 17.0242 22.1771 15.012C22.3971 14.1319 22.455 13.1632 21.9222 12.3783C21.4301 11.6532 20.6408 11.3522 19.8106 11.1993C19.3875 11.1214 19.2061 11.7693 19.6318 11.8477C20.3916 11.9876 21.138 12.2343 21.4935 12.9829C21.8709 13.7779 21.5947 14.7488 21.3162 15.5321C20.7211 17.2064 19.6601 18.7509 18.6874 20.2254L19.3139 20.3951C19.1734 18.8938 19.1334 17.3849 19.1942 15.8783C19.2635 14.4931 19.3807 12.954 20.0115 11.6932C20.2046 11.3073 19.6249 10.9663 19.431 11.3538Z" fill="white"/>
<path d="M26.8033 18.6035C24.8014 19.6812 22.8035 20.7938 20.891 22.0253C21.2879 22.0257 21.6848 22.0259 22.0817 22.0261C23.0668 22.0257 24.1751 22.1699 25.1111 21.7867C25.7053 21.5177 26.1936 21.0594 26.4997 20.4835C26.8059 19.9076 26.9126 19.2465 26.8033 18.6035Z" fill="white"/>
<path d="M26.6336 18.3131C24.6284 19.3932 22.6383 20.5035 20.7213 21.7349C20.6595 21.7734 20.6118 21.8308 20.5851 21.8986C20.5585 21.9664 20.5544 22.0409 20.5734 22.1112C20.5925 22.1815 20.6336 22.2438 20.6908 22.2888C20.748 22.3339 20.8182 22.3594 20.891 22.3614C21.7299 22.3622 22.569 22.3903 23.4076 22.3885C24.1729 22.4281 24.935 22.263 25.6152 21.9102C26.1733 21.5555 26.6144 21.0441 26.8833 20.4401C27.1523 19.836 27.2372 19.1661 27.1275 18.514C27.0673 18.0873 26.4193 18.2689 26.4791 18.6928C26.5621 19.243 26.4692 19.8054 26.2137 20.2997C25.9582 20.794 25.5531 21.195 25.0561 21.4454C24.4141 21.6832 23.7269 21.7741 23.0452 21.7114C22.3268 21.6952 21.6096 21.6895 20.891 21.6889L21.0606 22.3154C22.9776 21.0839 24.9678 19.9737 26.9729 18.8936C27.3541 18.6885 27.0149 18.1077 26.6336 18.3131Z" fill="white"/>
<path d="M24.9522 23.2769L24.8789 23.2743L20.9674 23.1382C21.1475 23.2589 21.328 23.379 21.5113 23.4949C21.9574 23.8126 22.4431 24.0709 22.956 24.2631C23.75 24.5063 24.4635 23.9161 24.9522 23.2769Z" fill="white"/>
<path d="M24.9522 22.9407C23.6239 22.8946 22.2956 22.8483 20.9674 22.802C20.8946 22.8041 20.8245 22.8296 20.7673 22.8747C20.7101 22.9197 20.669 22.982 20.65 23.0523C20.6309 23.1225 20.635 23.197 20.6616 23.2648C20.6882 23.3325 20.7359 23.3899 20.7977 23.4285C21.1748 23.6811 21.5549 23.9328 21.9463 24.1627C22.3235 24.4131 22.7503 24.5788 23.1976 24.6487C24.0186 24.7263 24.7206 24.1202 25.1899 23.5146C25.2504 23.4502 25.284 23.3652 25.284 23.2769C25.284 23.1886 25.2504 23.1036 25.1899 23.0392C25.1266 22.9766 25.0412 22.9416 24.9522 22.9416C24.8632 22.9416 24.7778 22.9766 24.7145 23.0392C24.3609 23.4952 23.8119 24.0881 23.1668 23.9698C22.8069 23.8771 22.4666 23.7206 22.1619 23.5078C21.8151 23.2963 21.4745 23.0739 21.1371 22.8479L20.9674 23.4744C22.2957 23.5207 23.6239 23.5669 24.9522 23.6131C25.385 23.6281 25.3844 22.9557 24.9522 22.9407Z" fill="white"/>
<path d="M13.3128 19.2761C14.0411 19.7511 14.7951 20.1866 15.5585 20.6026C15.8248 20.7477 16.0933 20.8891 16.3623 21.0291C15.1774 18.5431 13.716 16.1986 12.0057 14.04C11.4104 14.6369 11.0255 15.4112 10.9093 16.2462L10.9096 16.2477C10.9096 17.722 12.2017 18.5513 13.3128 19.2761Z" fill="white"/>
<path d="M13.1432 19.5663C14.1278 20.2048 15.1525 20.777 16.1926 21.3194C16.2568 21.3544 16.3307 21.3677 16.4032 21.3572C16.4756 21.3467 16.5427 21.3131 16.5945 21.2614C16.6463 21.2096 16.6799 21.1425 16.6903 21.07C16.7008 20.9976 16.6875 20.9237 16.6525 20.8594C15.4506 18.35 13.9716 15.9829 12.2433 13.8024C12.18 13.7397 12.0946 13.7046 12.0056 13.7046C11.9165 13.7046 11.8311 13.7397 11.7678 13.8024C10.9343 14.7307 10.265 15.9791 10.7592 17.2255C11.1862 18.3022 12.2135 18.96 13.1432 19.5663C13.5067 19.8034 13.844 19.2216 13.4828 18.9859C12.7259 18.4923 11.8654 17.9708 11.4496 17.1327C11.2377 16.7166 11.1969 16.2341 11.3359 15.7884C11.5224 15.2236 11.8325 14.7076 12.2437 14.2779H11.768C13.456 16.4173 14.8997 18.7387 16.0721 21.1988L16.5321 20.7388C15.4918 20.1964 14.4673 19.6244 13.4828 18.9859C13.1185 18.7498 12.781 19.3315 13.1432 19.5663Z" fill="white"/>
<path d="M15.6016 22.029C14.3626 21.2382 13.0838 20.5068 11.8036 19.7874C11.1871 19.441 10.5682 19.0986 9.94707 18.7605C9.87122 18.7192 9.7748 18.6771 9.67474 18.6313C9.55868 19.3159 9.68971 20.0195 10.0444 20.6164C10.6641 21.6418 11.646 22.0285 12.7827 22.0337C13.4454 22.0367 14.108 22.034 14.7706 22.0319C15.0476 22.0311 15.3246 22.0301 15.6016 22.029Z" fill="white"/>
<path d="M15.7713 21.7387C14.8169 21.1313 13.8419 20.5575 12.8589 19.9977C11.8694 19.4343 10.8813 18.8128 9.84456 18.3411C9.67266 18.2629 9.38396 18.3061 9.35068 18.542C9.22914 19.237 9.33607 19.9526 9.65544 20.5817C9.97481 21.2108 10.4894 21.7194 11.1222 22.0315C11.7219 22.2794 12.368 22.3951 13.0165 22.3708C13.8782 22.3731 14.7398 22.3686 15.6015 22.3652C15.6887 22.3622 15.7712 22.3255 15.8318 22.2628C15.8924 22.2 15.9263 22.1162 15.9263 22.029C15.9263 21.9418 15.8924 21.858 15.8318 21.7953C15.7712 21.7326 15.6887 21.6958 15.6015 21.6928C14.8958 21.6956 14.19 21.6976 13.4843 21.6989C12.8775 21.7399 12.2681 21.6836 11.6791 21.5321C11.1153 21.3328 10.6388 20.9428 10.332 20.4295C10.0252 19.9161 9.90744 19.3118 9.99898 18.7208L9.5051 18.9217C10.5419 19.3935 11.5299 20.0148 12.5194 20.5783C13.5024 21.1381 14.4774 21.7119 15.4318 22.3193C15.798 22.5524 16.1357 21.9707 15.7713 21.7387Z" fill="white"/>
<path d="M14.755 12.6974C14.0225 13.968 14.8122 15.622 15.3891 16.7929C15.8322 17.6923 16.337 18.5613 16.8668 19.4119C17.0726 19.7425 17.283 20.0702 17.4978 20.395C17.5987 19.1988 17.6592 17.999 17.6446 16.7984C17.668 15.3219 17.4882 13.8492 17.1101 12.4217C17.031 12.1346 16.9259 11.8553 16.796 11.5874C16.7841 11.5639 16.7702 11.5413 16.7575 11.5181C15.9465 11.6384 15.1866 11.9489 14.755 12.6974Z" fill="white"/>
<path d="M14.4648 12.5277C13.7894 13.7882 14.2693 15.1922 14.828 16.4001C15.5169 17.8454 16.3123 19.2374 17.2076 20.5648C17.2462 20.6264 17.3036 20.6739 17.3713 20.7005C17.4391 20.727 17.5135 20.731 17.5837 20.712C17.6539 20.693 17.7161 20.6519 17.7612 20.5948C17.8063 20.5378 17.8318 20.4677 17.8341 20.395C17.9821 18.7803 18.0177 17.1572 17.9405 15.5375C17.8627 14.1658 17.7274 12.573 17.048 11.3484C17.0093 11.2856 16.9517 11.2368 16.8834 11.209C16.8152 11.1812 16.7398 11.1758 16.6683 11.1937C16.2251 11.2386 15.7974 11.3815 15.4162 11.6122C15.0351 11.8429 14.7101 12.1558 14.4648 12.5277C14.2372 12.8972 14.8186 13.235 15.0454 12.8669C15.4472 12.2146 16.1204 11.9591 16.8471 11.8421L16.4674 11.6874C16.7572 12.2857 16.9516 12.9256 17.0437 13.584C17.178 14.3336 17.2582 15.0919 17.2837 15.8531C17.3381 17.368 17.2974 18.8848 17.1617 20.3946L17.7882 20.225C16.9901 19.0351 16.2681 17.796 15.6264 16.515C15.0985 15.4376 14.4172 14.0393 15.0454 12.8669C15.2498 12.4859 14.6695 12.1458 14.4648 12.5277Z" fill="white"/>
<path d="M13.8462 24.1306C14.4309 23.8433 14.9919 23.5101 15.5238 23.134L11.5239 23.2743C12.0858 24.0091 12.9118 24.5719 13.8462 24.1306Z" fill="white"/>
<path d="M14.0159 24.4209C14.5997 24.132 15.1606 23.7989 15.6935 23.4243C15.7553 23.3858 15.803 23.3284 15.8296 23.2606C15.8562 23.1929 15.8603 23.1184 15.8413 23.0481C15.8222 22.9778 15.7811 22.9156 15.7239 22.8705C15.6668 22.8254 15.5966 22.8 15.5239 22.7979L11.5239 22.9381C11.4584 22.9402 11.3949 22.9612 11.341 22.9985C11.2871 23.0358 11.2451 23.0879 11.22 23.1484C11.195 23.209 11.1879 23.2755 11.1996 23.34C11.2113 23.4044 11.2414 23.4642 11.2862 23.512C11.5937 23.9332 12.0061 24.2667 12.4823 24.4793C12.7278 24.5773 12.9911 24.6228 13.2553 24.6127C13.5194 24.6026 13.7785 24.5373 14.0159 24.4209C14.0924 24.3755 14.1479 24.3017 14.1705 24.2157C14.1931 24.1296 14.1809 24.0381 14.1365 23.9609C14.09 23.8855 14.0163 23.8309 13.9307 23.8085C13.845 23.786 13.754 23.7974 13.6765 23.8403C12.9036 24.1879 12.2146 23.6197 11.7617 23.0366L11.5239 23.6105L15.5239 23.4703L15.3542 22.8437C14.8212 23.2183 14.2603 23.5514 13.6765 23.8403C13.2863 24.0269 13.627 24.6068 14.0159 24.4209Z" fill="white"/>
<defs>
<linearGradient id="paint0_linear_2020_2612" x1="3.12316" y1="30.0676" x2="32.1471" y2="8.00234" gradientUnits="userSpaceOnUse">
<stop stop-color="#CF0A2C"/>
<stop offset="0.2949" stop-color="#DF1E4A"/>
<stop offset="0.7605" stop-color="#F63A73"/>
<stop offset="1" stop-color="#FF4583"/>
</linearGradient>
</defs>
</svg>
