<svg width="32" height="33" viewBox="0 0 32 33" fill="none" xmlns="http://www.w3.org/2000/svg">
<path d="M30.4993 2.16751C27.9071 -0.42464 22.1781 0.856308 16.1668 4.89079C10.1554 0.856308 4.42642 -0.42464 1.83426 2.16751C-0.757892 4.75967 0.523056 10.4886 4.55754 16.5C0.523056 22.5114 -0.757892 28.2404 1.83426 30.8325C4.42642 33.4247 10.1554 32.1437 16.1668 28.1092C22.1781 32.1437 27.9071 33.4247 30.4993 30.8325C33.0914 28.2404 31.8105 22.5114 27.776 16.5C31.8105 10.4886 33.0914 4.75967 30.4993 2.16751Z" fill="url(#paint0_linear_2020_859)"/>
<path d="M16.0524 11.0232L15.6793 12.4957C15.6597 12.5708 15.6164 12.6376 15.5558 12.6861C15.4952 12.7345 15.4206 12.7621 15.343 12.7647H13.4435C13.3936 12.7645 13.3442 12.7747 13.2984 12.7947C13.2527 12.8146 13.2116 12.8439 13.1778 12.8805C13.1439 12.9172 13.1181 12.9605 13.1019 13.0077C13.0857 13.0549 13.0795 13.105 13.0837 13.1547L13.2182 14.708C13.2242 14.7987 13.2642 14.8838 13.3303 14.9461C13.3964 15.0085 13.4837 15.0435 13.5746 15.0442H14.5395C14.5937 15.0453 14.6469 15.0588 14.6951 15.0836C14.7433 15.1084 14.7852 15.1439 14.8176 15.1873C14.8501 15.2308 14.8721 15.281 14.8822 15.3343C14.8923 15.3876 14.8901 15.4424 14.8757 15.4947L14.4857 16.9975C14.4657 17.0724 14.4223 17.1388 14.3618 17.1872C14.3013 17.2356 14.2269 17.2634 14.1495 17.2665H13.8133C13.7634 17.2663 13.714 17.2765 13.6683 17.2965C13.6225 17.3164 13.5814 17.3457 13.5476 17.3823C13.5138 17.419 13.4879 17.4623 13.4718 17.5095C13.4556 17.5567 13.4494 17.6068 13.4536 17.6565L13.6654 20.0705C13.672 20.1106 13.672 20.1514 13.6654 20.1915L13.2081 21.9196C13.1964 21.9656 13.1757 22.0089 13.1471 22.0468C13.1186 22.0848 13.0828 22.1167 13.0419 22.1408C13.0009 22.1649 12.9556 22.1806 12.9085 22.1871C12.8615 22.1935 12.8136 22.1906 12.7677 22.1785L11.833 21.9263C11.7617 21.9073 11.6979 21.8668 11.6504 21.8102C11.6029 21.7537 11.5739 21.6839 11.5674 21.6103L10.6429 10.9626C10.6387 10.9129 10.6449 10.8629 10.6611 10.8157C10.6773 10.7685 10.7031 10.7251 10.7369 10.6885C10.7707 10.6518 10.8118 10.6225 10.8576 10.6026C10.9033 10.5827 10.9527 10.5725 11.0026 10.5726H15.7095C15.7641 10.5734 15.8177 10.5866 15.8664 10.6112C15.9151 10.6357 15.9576 10.671 15.9906 10.7144C16.0236 10.7578 16.0464 10.8082 16.0571 10.8617C16.0678 10.9152 16.0662 10.9704 16.0524 11.0232Z" fill="white"/>
<path d="M21.3309 10.5726H17.562C17.4845 10.5752 17.4099 10.6028 17.3493 10.6513C17.2887 10.6997 17.2454 10.7665 17.2258 10.8416L16.8392 12.3175C16.8255 12.3696 16.8237 12.4241 16.8341 12.4769C16.8444 12.5298 16.8666 12.5796 16.899 12.6226C16.9313 12.6656 16.973 12.7008 17.0209 12.7254C17.0688 12.75 17.1216 12.7634 17.1754 12.7647H18.8564C18.9065 12.7644 18.9561 12.7747 19.0019 12.7949C19.0478 12.8151 19.0889 12.8447 19.1225 12.8818C19.1561 12.9189 19.1815 12.9627 19.1971 13.0103C19.2127 13.0579 19.218 13.1083 19.2128 13.1581L19.0783 14.708C19.0724 14.7987 19.0323 14.8838 18.9662 14.9461C18.9001 15.0085 18.8128 15.0435 18.722 15.0442H16.4021C16.3241 15.047 16.2492 15.075 16.1885 15.1242C16.1279 15.1733 16.0848 15.2408 16.0659 15.3165L15.6658 16.8362C15.6528 16.8882 15.6515 16.9425 15.6621 16.995C15.6727 17.0476 15.695 17.0971 15.7272 17.14C15.7594 17.1829 15.8008 17.218 15.8484 17.2428C15.896 17.2676 15.9485 17.2814 16.002 17.2833H18.4597C18.5099 17.2831 18.5596 17.2934 18.6056 17.3135C18.6516 17.3337 18.6929 17.3632 18.7268 17.4003C18.7606 17.4373 18.7864 17.4811 18.8024 17.5287C18.8183 17.5763 18.8242 17.6267 18.8195 17.6767L18.6043 19.899C18.6009 19.9727 18.5734 20.0432 18.526 20.0997C18.4786 20.1562 18.414 20.1955 18.342 20.2117L16.2441 20.7765C16.1847 20.7932 16.1219 20.7932 16.0626 20.7765L15.0539 20.5176C15.008 20.5055 14.9602 20.5026 14.9131 20.5091C14.866 20.5155 14.8207 20.5312 14.7798 20.5553C14.7388 20.5794 14.7031 20.6113 14.6745 20.6493C14.646 20.6873 14.6253 20.7305 14.6135 20.7765L14.2605 22.2155C14.2378 22.3064 14.2514 22.4025 14.2985 22.4835C14.3456 22.5645 14.4224 22.624 14.5127 22.6492L16.0727 23.0829C16.1343 23.0998 16.1993 23.0998 16.2609 23.0829L20.5005 21.923C20.5718 21.905 20.6358 21.8652 20.6834 21.8092C20.731 21.7531 20.7599 21.6836 20.7661 21.6103L21.6907 10.9593C21.6944 10.9098 21.6878 10.8601 21.6714 10.8133C21.655 10.7665 21.6291 10.7236 21.5953 10.6873C21.5615 10.651 21.5206 10.6221 21.4751 10.6023C21.4296 10.5826 21.3805 10.5725 21.3309 10.5726Z" fill="white"/>
<defs>
<linearGradient id="paint0_linear_2020_859" x1="31.8457" y1="0.821374" x2="-1.30727" y2="1.49908" gradientUnits="userSpaceOnUse">
<stop stop-color="#FFAA00"/>
<stop offset="1" stop-color="#FF433C"/>
</linearGradient>
</defs>
</svg>
