<svg width="37" height="37" viewBox="0 0 37 37" fill="none" xmlns="http://www.w3.org/2000/svg">
<path d="M19.875 35.902C19.7402 36.1489 19.5414 36.355 19.2994 36.4986C19.0574 36.6421 18.7813 36.7179 18.4999 36.7179C18.2186 36.7179 17.9424 36.6421 17.7005 36.4986C17.4585 36.355 17.2597 36.1489 17.1248 35.902C13.4256 29.1366 7.86328 23.5743 1.09787 19.875C0.850934 19.7402 0.644867 19.5414 0.501304 19.2994C0.357742 19.0574 0.281982 18.7813 0.281982 18.4999C0.281982 18.2186 0.357742 17.9424 0.501304 17.7005C0.644867 17.4585 0.850934 17.2597 1.09787 17.1248C7.86328 13.4256 13.4256 7.86328 17.1248 1.09787C17.2597 0.850934 17.4585 0.644867 17.7005 0.501304C17.9424 0.357742 18.2186 0.281982 18.4999 0.281982C18.7813 0.281982 19.0574 0.357742 19.2994 0.501304C19.5414 0.644867 19.7402 0.850934 19.875 1.09787C23.5743 7.86328 29.1366 13.4256 35.902 17.1248C36.1489 17.2597 36.355 17.4585 36.4986 17.7005C36.6421 17.9424 36.7179 18.2186 36.7179 18.4999C36.7179 18.7813 36.6421 19.0574 36.4986 19.2994C36.355 19.5414 36.1489 19.7402 35.902 19.875C29.1366 23.5743 23.5743 29.1366 19.875 35.902Z" fill="url(#paint0_linear_2020_2479)"/>
<path d="M15.5346 17.9587C15.5311 17.9463 15.5252 17.9347 15.5172 17.9246C15.5092 17.9145 15.4993 17.9061 15.4881 17.8999C15.4768 17.8936 15.4644 17.8897 15.4516 17.8882C15.4388 17.8868 15.4259 17.8879 15.4135 17.8915L14.9899 17.9621C14.9562 17.8839 14.9109 17.8114 14.8554 17.7469L14.926 17.6696L15.1614 17.4006C15.1789 17.3822 15.1886 17.3576 15.1883 17.3322C15.188 17.3067 15.1777 17.2824 15.1597 17.2644C15.1417 17.2464 15.1174 17.2362 15.092 17.2359C15.0665 17.2355 15.042 17.2452 15.0235 17.2627C14.963 17.33 14.9025 17.4006 14.8386 17.4678L14.7512 17.5721L14.7209 17.6057C14.6537 17.5403 14.5793 17.4828 14.499 17.4342C14.499 17.4006 14.5226 17.367 14.536 17.33L14.6335 17.0577C14.6371 17.0453 14.6381 17.0324 14.6367 17.0196C14.6352 17.0068 14.6312 16.9945 14.625 16.9832C14.6187 16.972 14.6103 16.9621 14.6003 16.9541C14.5902 16.9461 14.5786 16.9402 14.5663 16.9366C14.5539 16.9331 14.541 16.932 14.5282 16.9335C14.5154 16.935 14.5031 16.9389 14.4918 16.9452C14.4806 16.9514 14.4707 16.9598 14.4627 16.9699C14.4547 16.98 14.4488 16.9915 14.4453 17.0039L14.3713 17.2123L14.3343 17.3132V17.3636C14.3082 17.3547 14.2811 17.3491 14.2536 17.3468C14.1656 17.3381 14.0768 17.3503 13.9944 17.3825C13.9121 17.4146 13.8384 17.4657 13.7796 17.5317C13.7138 17.5899 13.663 17.663 13.6314 17.7449C13.5998 17.8268 13.5884 17.9151 13.598 18.0024C13.6026 18.0422 13.6105 18.0816 13.6215 18.1201C13.5068 18.1469 13.3944 18.1829 13.2853 18.2277C13.2729 18.2311 13.2614 18.2371 13.2513 18.245C13.2412 18.253 13.2328 18.2629 13.2265 18.2742C13.2203 18.2854 13.2163 18.2978 13.2148 18.3106C13.2134 18.3234 13.2145 18.3363 13.2181 18.3487C13.2259 18.3732 13.2428 18.3939 13.2653 18.4064C13.2878 18.4189 13.3142 18.4223 13.3391 18.4159C13.4627 18.3682 13.5897 18.33 13.719 18.3016C13.7622 18.372 13.8129 18.4374 13.8703 18.4966C13.7594 18.6009 13.6451 18.7017 13.5341 18.7992C13.5157 18.8181 13.5053 18.8434 13.5053 18.8698C13.5053 18.8962 13.5157 18.9216 13.5341 18.9404C13.5532 18.9572 13.5777 18.9665 13.6031 18.9665C13.6284 18.9665 13.6529 18.9572 13.672 18.9404C13.7896 18.8396 13.904 18.7353 14.0082 18.6311C14.0796 18.6891 14.1588 18.7366 14.2435 18.7723C14.1998 18.8732 14.1561 18.974 14.1191 19.0783C14.1156 19.0909 14.1146 19.104 14.1163 19.117C14.1179 19.13 14.1222 19.1425 14.1288 19.1537C14.1354 19.165 14.1442 19.1749 14.1546 19.1827C14.1651 19.1905 14.177 19.1962 14.1897 19.1993C14.2147 19.2057 14.2411 19.2022 14.2636 19.1897C14.2861 19.1772 14.303 19.1566 14.3108 19.1321C14.3343 19.0648 14.3578 18.9942 14.3847 18.927L14.4049 18.8799V18.853C14.4055 18.8441 14.4055 18.8351 14.4049 18.8261C14.4927 18.8293 14.5801 18.8138 14.6615 18.7807C14.7429 18.7476 14.8163 18.6976 14.877 18.6341C14.9376 18.5706 14.9842 18.4949 15.0135 18.4121C15.0428 18.3293 15.0542 18.2412 15.0471 18.1537L15.474 18.0797C15.4978 18.0713 15.5174 18.054 15.5287 18.0314C15.54 18.0089 15.5421 17.9828 15.5346 17.9587Z" fill="white"/>
<path d="M16.3415 14.6C15.7147 14.2602 15.0101 14.0899 14.2973 14.1058C13.7549 14.0984 13.2162 14.1955 12.7104 14.3915C12.2459 14.5726 11.8237 14.8472 11.4698 15.1984C11.116 15.5488 10.8429 15.9722 10.6697 16.439C10.4785 16.9587 10.3851 17.5093 10.394 18.0629C10.377 18.7865 10.5473 19.5022 10.8882 20.1407C11.208 20.7196 11.6816 21.199 12.2566 21.5258C12.8744 21.8639 13.5696 22.0354 14.2738 22.0234C14.4483 22.0174 14.6222 22.0472 14.7848 22.1108C14.9124 22.1673 15.0219 22.2581 15.1009 22.3731L15.9044 23.691C16.0152 23.8761 16.1843 24.0191 16.3852 24.0978C16.5654 24.1661 16.7614 24.1812 16.95 24.1415C17.1298 24.1056 17.2976 24.0246 17.4375 23.9062C17.5737 23.7931 17.6664 23.6363 17.6997 23.4624C17.7368 23.2574 17.6947 23.0459 17.5821 22.8707L17.182 22.2319C17.047 21.988 16.8468 21.7866 16.6037 21.6502C16.5128 21.5971 16.4157 21.5554 16.3146 21.5258C16.6113 21.3654 16.8831 21.1626 17.1215 20.924C17.4698 20.5667 17.7401 20.1408 17.9149 19.6733C18.1049 19.1533 18.1984 18.603 18.1906 18.0495C18.2074 17.3264 18.042 16.6108 17.7098 15.9683C17.3938 15.3909 16.9189 14.916 16.3415 14.6ZM11.7926 18.0629C11.776 17.5957 11.8814 17.1321 12.0985 16.7181C12.297 16.3582 12.5992 16.0664 12.966 15.8809C13.3838 15.676 13.8456 15.5767 14.3108 15.5918C14.646 15.5746 14.9812 15.625 15.2966 15.7399C15.6119 15.8549 15.9009 16.032 16.1465 16.2608C16.3754 16.4996 16.5532 16.7825 16.6688 17.0924C16.7844 17.4023 16.8355 17.7326 16.8189 18.0629C16.8203 18.5268 16.7047 18.9836 16.4827 19.3909C16.2917 19.7531 15.995 20.0486 15.6321 20.2382C15.2148 20.4451 14.7528 20.5456 14.2872 20.5307C13.9533 20.5489 13.6191 20.5007 13.304 20.3887C12.9888 20.2767 12.6991 20.1033 12.4516 19.8784C12.2227 19.6375 12.046 19.3518 11.9326 19.0394C11.8192 18.727 11.7715 18.3946 11.7926 18.0629Z" fill="white"/>
<path d="M26.4815 20.7828L23.7615 14.9529C23.6591 14.7077 23.496 14.4925 23.2875 14.3276C23.0998 14.1923 22.8733 14.1215 22.642 14.1259C22.402 14.1195 22.1664 14.1902 21.9696 14.3276C21.7591 14.4913 21.5946 14.7068 21.4922 14.9529L18.789 20.7828C18.6948 20.9768 18.6608 21.1946 18.6915 21.4081C18.7051 21.4991 18.7371 21.5863 18.7857 21.6643C18.8343 21.7424 18.8984 21.8097 18.974 21.862C19.1408 21.9763 19.34 22.0341 19.5421 22.0267C19.7701 22.045 19.9961 21.9725 20.1709 21.825C20.3422 21.6371 20.4758 21.4179 20.5642 21.1795L20.9004 20.3726H24.3533L24.6895 21.1795C24.7818 21.4219 24.9277 21.6403 25.1165 21.8183C25.3009 21.9655 25.5331 22.0396 25.7687 22.0267C25.9688 22.0341 26.1658 21.9763 26.3302 21.862C26.4736 21.7562 26.5691 21.5978 26.5958 21.4216C26.625 21.2019 26.585 20.9786 26.4815 20.7828ZM22.6184 16.3247H22.642L23.6842 18.816H21.5762L22.6184 16.3247Z" fill="white"/>
<defs>
<linearGradient id="paint0_linear_2020_2479" x1="36.7179" y1="0.282365" x2="-1.80377" y2="1.06982" gradientUnits="userSpaceOnUse">
<stop stop-color="#FF9A55"/>
<stop offset="1" stop-color="#FF499D"/>
</linearGradient>
</defs>
</svg>
