<svg width="38" height="37" viewBox="0 0 38 37" fill="none" xmlns="http://www.w3.org/2000/svg">
<path d="M36.2353 19.875C29.4698 23.5743 23.9075 29.1366 20.2083 35.902C20.0734 36.1489 19.8746 36.355 19.6326 36.4986C19.3907 36.6421 19.1145 36.7179 18.8332 36.7179C18.5518 36.7179 18.2757 36.6421 18.0337 36.4986C17.7918 36.355 17.5929 36.1489 17.4581 35.902C13.7588 29.1366 8.19654 23.5743 1.43112 19.875C1.18419 19.7402 0.978119 19.5414 0.834556 19.2994C0.690994 19.0574 0.615234 18.7813 0.615234 18.4999C0.615234 18.2186 0.690994 17.9424 0.834556 17.7005C0.978119 17.4585 1.18419 17.2597 1.43112 17.1248C8.19654 13.4256 13.7588 7.86328 17.4581 1.09787C17.5929 0.850934 17.7918 0.644867 18.0337 0.501304C18.2757 0.357742 18.5518 0.281982 18.8332 0.281982C19.1145 0.281982 19.3907 0.357742 19.6326 0.501304C19.8746 0.644867 20.0734 0.850934 20.2083 1.09787C23.9075 7.86328 29.4698 13.4256 36.2353 17.1248C36.4822 17.2597 36.6883 17.4585 36.8318 17.7005C36.9754 17.9424 37.0511 18.2186 37.0511 18.4999C37.0511 18.7813 36.9754 19.0574 36.8318 19.2994C36.6883 19.5414 36.4822 19.7402 36.2353 19.875Z" fill="url(#paint0_linear_2020_619)"/>
<path d="M25.3254 21.9091C25.1774 21.8888 25.0418 21.8157 24.9435 21.7032C24.8453 21.5907 24.791 21.4465 24.7908 21.2972V20.4063C24.4629 20.6282 24.0852 20.7657 23.6914 20.8063C22.5819 20.9072 21.7044 20.0566 21.5229 19.8683C21.5111 19.8576 21.4973 19.8494 21.4823 19.8442C21.4672 19.839 21.4513 19.8369 21.4354 19.8381L20.2823 19.9826C20.2677 19.985 20.2544 19.9922 20.2445 20.0033C20.2347 20.0143 20.2291 20.0284 20.2285 20.0431L20.178 21.2367C20.1776 21.2504 20.18 21.2642 20.1852 21.2769C20.1905 21.2897 20.1983 21.3012 20.2083 21.3106C20.6411 21.7585 21.1584 22.1159 21.7303 22.3624C22.3022 22.6088 22.9174 22.7393 23.5401 22.7463C23.6443 22.7463 23.7486 22.7463 23.8763 22.7463C24.5997 22.6732 25.2932 22.4201 25.8936 22.01L25.3254 21.9091Z" fill="white"/>
<path d="M12.4082 20.1541C12.0195 19.7397 11.7938 19.1988 11.7728 18.6311C11.7654 18.1804 11.8956 17.7383 12.146 17.3636H11.3559C11.2055 17.3616 11.0608 17.3054 10.9484 17.2054C10.836 17.1053 10.7634 16.9681 10.744 16.8189L10.6499 16.1465L10.6062 16.207C10.0868 16.9334 9.81771 17.809 9.83962 18.7017C9.87679 19.7868 10.3279 20.8166 11.1004 21.5796L11.2382 21.7073C11.2491 21.7181 11.2624 21.7262 11.277 21.7308C11.2917 21.7355 11.3072 21.7367 11.3223 21.7342L12.3948 21.5561C12.4096 21.5544 12.4234 21.5473 12.4333 21.5361C12.4432 21.5249 12.4487 21.5105 12.4486 21.4955L12.4452 20.2213C12.4413 20.1952 12.4282 20.1714 12.4082 20.1541Z" fill="white"/>
<path d="M17.2732 20.3761C17.2719 20.3619 17.2659 20.3486 17.2561 20.3383C17.2464 20.3279 17.2335 20.3211 17.2194 20.3189L16.0192 20.1811C16.0048 20.1787 15.9901 20.1796 15.9762 20.1837C15.9622 20.1878 15.9493 20.1949 15.9385 20.2046C15.6884 20.4464 15.393 20.6364 15.0694 20.7639C14.7458 20.8914 14.4002 20.9538 14.0524 20.9476C13.6814 20.918 13.3224 20.803 13.0034 20.6114V21.4755C13.0054 21.6253 12.9535 21.7708 12.8572 21.8855C12.761 22.0003 12.6267 22.0767 12.4789 22.1008L11.9006 22.1983C12.5063 22.5874 13.1999 22.8186 13.9179 22.8707C14.0255 22.8707 14.133 22.8707 14.2541 22.8707C15.3857 22.8296 16.4628 22.3737 17.2799 21.5898C17.2904 21.5799 17.2985 21.5679 17.3037 21.5545C17.3089 21.5411 17.3112 21.5268 17.3102 21.5125L17.2732 20.3761Z" fill="white"/>
<path d="M21.0487 16.2374C21.0489 16.2229 21.0439 16.2089 21.0347 16.1978C21.0254 16.1867 21.0125 16.1793 20.9983 16.1769L19.8014 16.0054C19.7846 16.0023 19.7673 16.0037 19.7513 16.0096C19.7353 16.0156 19.7213 16.0257 19.7106 16.039L18.1405 17.8613L16.4595 19.6633L17.2865 19.7575C17.4326 19.7773 17.5668 19.8484 17.6653 19.958C17.7638 20.0676 17.8202 20.2086 17.8245 20.3559L17.848 20.9913L19.529 19.196L21.0218 17.4612C21.0301 17.4521 21.0364 17.4415 21.0404 17.43C21.0445 17.4184 21.0462 17.4061 21.0453 17.3939L21.0487 16.2374Z" fill="white"/>
<path d="M26.1861 15.1177C25.4309 14.5167 24.5045 14.1706 23.5401 14.1293C22.3218 14.1251 21.1487 14.5912 20.2655 15.4304L20.1982 15.501L21.0757 15.6288C21.224 15.6512 21.3593 15.7259 21.4573 15.8393C21.5553 15.9528 21.6096 16.0975 21.6103 16.2474V16.819L21.6708 16.7584C21.6939 16.7343 21.7186 16.7118 21.7448 16.6912C22.2188 16.2684 22.8344 16.0391 23.4695 16.049C23.9517 16.0835 24.4159 16.246 24.8144 16.5197C24.8338 16.5276 24.8555 16.5276 24.8749 16.5197L26.0516 16.4458C26.0663 16.4443 26.08 16.4378 26.0904 16.4274C26.1008 16.417 26.1073 16.4033 26.1088 16.3886L26.2096 15.1917C26.2116 15.1649 26.2032 15.1385 26.1861 15.1177Z" fill="white"/>
<path d="M26.7509 15.6591L26.6837 16.4559C26.6704 16.6044 26.6045 16.7432 26.4978 16.8474C26.3912 16.9516 26.2508 17.0142 26.102 17.0241L25.4095 17.0711C25.7173 17.4525 25.8889 17.9259 25.897 18.416C25.8953 18.962 25.6999 19.4898 25.3456 19.9054V21.2704C25.3446 21.285 25.3493 21.2994 25.3587 21.3107C25.3681 21.3219 25.3814 21.3292 25.396 21.3309L26.4349 21.4822C26.4503 21.4842 26.466 21.4825 26.4806 21.4772C26.4952 21.472 26.5084 21.4633 26.5189 21.4519C26.9285 21.0549 27.2546 20.58 27.4781 20.0552C27.7015 19.5304 27.8178 18.9662 27.8201 18.3958C27.8082 17.3839 27.4281 16.411 26.7509 15.6591Z" fill="white"/>
<path d="M15.6023 15.9078C15.6064 15.7592 15.663 15.6169 15.7621 15.5061C15.8612 15.3954 15.9964 15.3233 16.1436 15.3026L16.9706 15.2018C16.1334 14.5346 15.0804 14.1979 14.0114 14.2555C12.9424 14.3131 11.9317 14.7611 11.1711 15.5145C11.1598 15.5259 11.1513 15.5396 11.1461 15.5547C11.1408 15.5699 11.139 15.586 11.1408 15.6019L11.2921 16.7349C11.2945 16.7491 11.3019 16.762 11.313 16.7713C11.3241 16.7805 11.3382 16.7855 11.3526 16.7853L12.5865 16.8055C12.6106 16.807 12.6345 16.7999 12.6537 16.7853C13.0691 16.4354 13.5846 16.2259 14.1263 16.1869C14.6434 16.1662 15.1543 16.3059 15.5888 16.587L15.6023 15.9078Z" fill="white"/>
<path d="M17.2127 18.0259L17.7271 17.4913L18.3995 16.7012C18.0431 16.3079 17.7674 15.9582 17.5792 15.7531C17.5679 15.7417 17.5542 15.733 17.539 15.7278C17.5238 15.7225 17.5077 15.7209 17.4917 15.7229L16.2108 15.8809C16.1959 15.8826 16.1822 15.8897 16.1723 15.9008C16.1624 15.912 16.1569 15.9265 16.157 15.9414L16.1436 17.0139C16.3184 17.1955 16.7857 17.5989 17.2127 18.0259Z" fill="white"/>
<path d="M19.3206 20.2549C19.4382 20.3894 19.5458 20.5205 19.6568 20.6382V20.0263C19.6599 19.9704 19.6701 19.915 19.687 19.8616L19.3206 20.2549Z" fill="white"/>
<path d="M20.0535 19.4648C20.1029 19.4437 20.1549 19.429 20.2081 19.4211L21.0016 19.3236C20.8637 19.1757 20.7158 19.0143 20.5712 18.863L20.0535 19.4648Z" fill="white"/>
<defs>
<linearGradient id="paint0_linear_2020_619" x1="37.0511" y1="0.282365" x2="-1.47052" y2="1.06982" gradientUnits="userSpaceOnUse">
<stop stop-color="#00CFFF"/>
<stop offset="1" stop-color="#176BED"/>
</linearGradient>
</defs>
</svg>
