<svg width="38" height="37" viewBox="0 0 38 37" fill="none" xmlns="http://www.w3.org/2000/svg">
<path d="M36.2944 17.1859C36.5412 17.3208 36.747 17.5196 36.8904 17.7614C37.0339 18.0033 37.1095 18.2793 37.1095 18.5605C37.1095 18.8417 37.0339 19.1177 36.8904 19.3596C36.747 19.6014 36.5412 19.8002 36.2944 19.9351C29.5299 23.6348 23.9681 29.1966 20.2684 35.9612C20.1335 36.2079 19.9347 36.4138 19.6928 36.5572C19.4509 36.7006 19.1749 36.7763 18.8938 36.7763C18.6126 36.7763 18.3366 36.7006 18.0947 36.5572C17.8528 36.4138 17.654 36.2079 17.5191 35.9612C13.8194 29.1966 8.25762 23.6348 1.49306 19.9351C1.24634 19.8002 1.04048 19.6014 0.897068 19.3596C0.753655 19.1177 0.677979 18.8417 0.677979 18.5605C0.677979 18.2793 0.753655 18.0033 0.897068 17.7614C1.04048 17.5196 1.24634 17.3208 1.49306 17.1859C8.25762 13.4862 13.8194 7.92437 17.5191 1.15981C17.654 0.913093 17.8528 0.707229 18.0947 0.563816C18.3366 0.420403 18.6126 0.344727 18.8938 0.344727C19.1749 0.344727 19.4509 0.420403 19.6928 0.563816C19.9347 0.707229 20.1335 0.913093 20.2684 1.15981C23.9681 7.92437 29.5299 13.4862 36.2944 17.1859Z" fill="url(#paint0_linear_2020_363)"/>
<path d="M16.6649 21.2556C16.6411 21.199 16.5974 21.1531 16.542 21.1265C16.4867 21.0999 16.4236 21.0944 16.3645 21.111C15.8254 21.2615 15.5355 21.4676 15.478 21.7409C15.4606 21.8435 15.4734 21.9489 15.5148 22.0444C15.5562 22.1399 15.6244 22.2213 15.7111 22.2788C16.0999 22.5973 17.0057 22.8314 18.078 22.8312C19.0176 22.8362 19.9487 22.6535 20.8167 22.2939C20.8628 22.2742 20.9019 22.2412 20.9291 22.1991C20.9564 22.157 20.9704 22.1078 20.9695 22.0577C20.9687 22.0076 20.9529 21.9589 20.9242 21.9178C20.8955 21.8767 20.8553 21.8451 20.8085 21.827C20.541 21.7231 20.2826 21.5972 20.036 21.4505C19.9822 21.4167 19.9177 21.4046 19.8554 21.4165C18.8744 21.6403 17.8608 21.6834 16.8644 21.5437C16.7867 21.5354 16.7096 21.5229 16.6332 21.5065C16.66 21.4711 16.6771 21.4293 16.6826 21.3853C16.6882 21.3412 16.6821 21.2965 16.6649 21.2556Z" fill="white"/>
<path d="M21.2322 20.2144C21.2336 20.161 21.2181 20.1085 21.1878 20.0645C21.1576 20.0206 21.1141 19.9873 21.0637 19.9696C20.8735 19.901 20.6989 19.7953 20.5499 19.6587C20.5209 19.629 20.4849 19.607 20.4452 19.5947C20.4056 19.5824 20.3634 19.5802 20.3227 19.5883C19.0477 19.8675 17.7348 19.9306 16.4389 19.7751C16.3446 19.7678 16.2515 19.7496 16.1615 19.7209C16.1821 19.6977 16.2049 19.6765 16.2295 19.6575C16.2774 19.6217 16.3111 19.5699 16.3244 19.5115C16.3377 19.4531 16.3298 19.3919 16.302 19.3388C16.2743 19.2857 16.2286 19.2442 16.173 19.2217C16.1175 19.1993 16.0558 19.1974 15.9989 19.2163C15.2556 19.463 14.9358 19.7723 15.0491 20.1354C15.2051 20.635 16.348 20.9035 17.7627 20.9034C18.8744 20.9032 19.9807 20.7505 21.0508 20.4495C21.102 20.4345 21.1472 20.4037 21.1798 20.3615C21.2124 20.3192 21.2307 20.2677 21.2322 20.2144Z" fill="white"/>
<path d="M18.2824 13.719C18.07 14.3929 18.2848 15.1064 18.9207 15.8394C18.9921 15.9115 19.0477 15.9975 19.0841 16.0922C19.1205 16.1869 19.1368 16.288 19.1322 16.3893C19.0887 16.643 18.9585 16.8736 18.7638 17.0419C18.7158 17.0814 18.6841 17.1373 18.6748 17.1988C18.6655 17.2603 18.6793 17.323 18.7135 17.375C18.7476 17.4269 18.7998 17.4644 18.8599 17.4803C18.92 17.4961 18.9839 17.4892 19.0392 17.4608C19.0839 17.4377 20.1358 16.8863 20.3404 16.0431C20.3836 15.8602 20.3853 15.6699 20.3454 15.4862C20.3056 15.3025 20.2251 15.13 20.1099 14.9815L20.01 14.842C19.6758 14.3777 19.49 14.1003 19.555 13.7957C19.6564 13.3217 20.3971 12.6986 21.8864 11.835C21.939 11.8045 21.9787 11.756 21.9984 11.6986C22.0181 11.6411 22.0163 11.5785 21.9935 11.5222C21.9707 11.4659 21.9284 11.4198 21.8742 11.3922C21.8201 11.3646 21.7579 11.3575 21.6989 11.3722C21.5805 11.4019 18.7884 12.1162 18.2824 13.719Z" fill="white"/>
<path d="M23.2345 23.2471C23.271 23.1253 23.3041 22.8185 22.8195 22.6C22.7657 22.5732 22.7038 22.5674 22.6459 22.5839C22.5881 22.6004 22.5385 22.6379 22.5068 22.689C22.4752 22.7402 22.4638 22.8013 22.4749 22.8604C22.486 22.9195 22.5187 22.9723 22.5667 23.0086C22.566 23.0094 22.5163 23.0989 22.1812 23.2005C20.5458 23.6961 15.6094 23.8102 14.0657 23.287C14.2521 23.2029 14.4466 23.1378 14.6461 23.0926C14.7901 23.0577 14.9377 23.0402 15.0858 23.0402C15.1408 23.0445 15.1957 23.0305 15.2418 23.0003C15.288 22.9701 15.3228 22.9254 15.3409 22.8733C15.3594 22.8214 15.3604 22.7649 15.3437 22.7124C15.3271 22.6599 15.2937 22.6143 15.2486 22.5825C14.7571 22.2365 13.4156 22.6521 12.8765 23.0092C12.5692 23.2124 12.4381 23.4313 12.4874 23.6596C12.5652 24.0211 13.0636 24.1423 13.4321 24.202C14.793 24.4225 16.1694 24.534 17.5481 24.5354C20.687 24.5354 23.0293 23.929 23.2345 23.2471Z" fill="white"/>
<path d="M16.6772 18.8928C16.8174 18.8956 16.9573 18.897 17.0971 18.8971C18.3871 18.9148 19.6745 18.7779 20.932 18.4893C20.9599 18.4821 20.9863 18.47 21.0101 18.4537C21.2121 18.3241 21.4241 18.2109 21.6441 18.115C21.701 18.0906 21.7469 18.0462 21.7731 17.9901C21.7993 17.9341 21.804 17.8703 21.7863 17.8111C21.7686 17.7518 21.7297 17.7011 21.677 17.6686C21.6243 17.6361 21.5615 17.6242 21.5006 17.635C21.4895 17.637 20.3811 17.8338 19.291 17.9256C18.1256 18.0409 16.9524 18.0541 15.7848 17.9653C15.7267 17.9574 15.6764 17.9495 15.6331 17.9418C16.0004 17.7958 16.3781 17.6778 16.7632 17.5887C16.8219 17.5748 16.8737 17.5403 16.9091 17.4914C16.9445 17.4425 16.9612 17.3826 16.9562 17.3225C16.9512 17.2624 16.9248 17.206 16.8818 17.1637C16.8388 17.1214 16.782 17.0959 16.7218 17.0918C15.8682 17.0832 15.025 17.2806 14.264 17.6674C13.8348 17.875 13.8151 18.1093 13.8742 18.2694C14.0141 18.6482 14.9571 18.858 16.6772 18.8928Z" fill="white"/>
<path d="M24.36 18.0428C24.1268 17.8488 23.8457 17.7211 23.5461 17.6733C23.2465 17.6254 22.9396 17.6591 22.6576 17.7708C22.509 17.8255 22.3812 17.9252 22.2918 18.0559C22.2634 18.1008 22.2498 18.1536 22.2531 18.2067C22.2564 18.2598 22.2764 18.3105 22.3102 18.3515C22.344 18.3926 22.39 18.4219 22.4414 18.4354C22.4929 18.4488 22.5473 18.4456 22.5968 18.4263C22.6872 18.3954 22.7798 18.3709 22.8736 18.3532C23.0279 18.327 23.1866 18.3537 23.3238 18.429C23.461 18.5043 23.5687 18.6238 23.6294 18.7681C23.812 19.2799 23.2433 19.9376 22.1086 20.5272C22.0965 20.5336 22.0848 20.5409 22.0738 20.5491C21.9975 20.6027 21.9435 20.6824 21.9221 20.7732C21.9146 20.8098 21.9153 20.8477 21.9243 20.884C21.9332 20.9203 21.9501 20.9542 21.9737 20.9832C21.9973 21.0122 22.0271 21.0356 22.0609 21.0516C22.0947 21.0677 22.1316 21.076 22.1691 21.076C22.1906 21.076 22.2121 21.0732 22.2329 21.0678C24.1517 20.5635 24.6261 19.7181 24.7384 19.259C24.7926 19.0411 24.786 18.8124 24.7192 18.598C24.6525 18.3836 24.5283 18.1915 24.36 18.0428Z" fill="white"/>
<path d="M17.9525 16.4436C17.9954 16.4821 18.0501 16.5047 18.1077 16.5077C18.1653 16.5108 18.2221 16.494 18.2688 16.4602C18.3154 16.4264 18.3491 16.3776 18.3642 16.322C18.3793 16.2663 18.3749 16.2072 18.3517 16.1545C18.2022 15.8474 18.0236 15.5553 17.8182 15.2823C17.1678 14.3561 16.606 13.5562 18.2785 12.2355C19.515 11.259 20.17 10.2877 20.2252 9.34799C20.2449 9.09609 20.2139 8.84278 20.1341 8.60305C20.0542 8.36332 19.9271 8.14204 19.7603 7.9523C19.7212 7.91333 19.6704 7.88825 19.6157 7.88091C19.5611 7.87356 19.5055 7.88436 19.4575 7.91163C19.4096 7.93891 19.3719 7.98117 19.3502 8.03192C19.3286 8.08267 19.3242 8.13913 19.3377 8.19262C19.7113 9.6652 18.705 10.4533 17.6393 11.2878C17.0791 11.679 16.5831 12.1547 16.1687 12.6979C15.3479 13.9306 16.544 15.1731 17.9525 16.4436Z" fill="white"/>
<path d="M24.0164 24.0865C23.9598 24.0708 23.8994 24.0766 23.8468 24.1028C23.7942 24.1289 23.7531 24.1736 23.7314 24.2282C23.7288 24.2321 23.4514 24.6265 21.703 24.9556C19.5006 25.3302 17.2538 25.3649 15.041 25.0584C14.9863 25.0493 14.9301 25.0585 14.8812 25.0846C14.8322 25.1106 14.7933 25.1521 14.7703 25.2026C14.7473 25.253 14.7415 25.3096 14.754 25.3637C14.7664 25.4177 14.7963 25.4661 14.839 25.5015C14.9067 25.5573 15.3315 25.8416 17.0776 25.9534C17.0982 25.9547 17.7197 25.9925 18.5882 25.9925C20.6481 25.9925 24.0969 25.7799 24.2059 24.3643C24.212 24.3031 24.1963 24.2417 24.1617 24.191C24.127 24.1402 24.0756 24.1032 24.0164 24.0865Z" fill="white"/>
<defs>
<linearGradient id="paint0_linear_2020_363" x1="5.53299" y1="30.9875" x2="32.2092" y2="6.17568" gradientUnits="userSpaceOnUse">
<stop stop-color="#FFE620"/>
<stop offset="1" stop-color="#FF7853"/>
</linearGradient>
</defs>
</svg>
