<svg width="37" height="37" viewBox="0 0 37 37" fill="none" xmlns="http://www.w3.org/2000/svg">
<path d="M35.9021 17.125C36.1491 17.2598 36.3551 17.4586 36.4987 17.7006C36.6423 17.9426 36.718 18.2187 36.718 18.5001C36.718 18.7814 36.6423 19.0576 36.4987 19.2995C36.3551 19.5415 36.1491 19.7403 35.9021 19.8751C29.1367 23.5744 23.5744 29.1367 19.8751 35.9021C19.7403 36.1491 19.5415 36.3551 19.2995 36.4987C19.0576 36.6423 18.7814 36.718 18.5001 36.718C18.2187 36.718 17.9426 36.6423 17.7006 36.4987C17.4586 36.3551 17.2598 36.1491 17.125 35.9021C13.4257 29.1367 7.86341 23.5744 1.09799 19.8751C0.851057 19.7403 0.644989 19.5415 0.501426 19.2995C0.357864 19.0576 0.282104 18.7814 0.282104 18.5001C0.282104 18.2187 0.357864 17.9426 0.501426 17.7006C0.644989 17.4586 0.851057 17.2598 1.09799 17.125C7.86341 13.4257 13.4257 7.86341 17.125 1.09799C17.2598 0.851057 17.4586 0.644989 17.7006 0.501426C17.9426 0.357864 18.2187 0.282104 18.5001 0.282104C18.7814 0.282104 19.0576 0.357864 19.2995 0.501426C19.5415 0.644989 19.7403 0.851057 19.8751 1.09799C23.5744 7.86341 29.1367 13.4257 35.9021 17.125Z" fill="url(#paint0_linear_2020_1070)"/>
<path d="M21.378 12.3038C20.7997 11.0834 18.5875 11.1136 17.9958 11.1237C17.283 11.1237 15.5347 11.1607 15.0943 12.1323C15.0061 12.3377 14.9737 12.5627 15.0002 12.7846V13.8806C15.0002 13.9698 15.0356 14.0553 15.0986 14.1183C15.1617 14.1814 15.2472 14.2168 15.3364 14.2168H17.8949C17.9564 14.2168 18.0154 14.2413 18.059 14.2848C18.1025 14.3283 18.1269 14.3873 18.1269 14.4488V14.6976C18.1269 14.7591 18.1025 14.8181 18.059 14.8616C18.0154 14.9051 17.9564 14.9296 17.8949 14.9296H13.5242C13.1415 14.934 12.7685 15.0509 12.4517 15.2658C12.1262 15.5197 11.8819 15.8633 11.7491 16.2542C11.5042 16.905 11.4066 17.602 11.4633 18.295C11.416 19.0716 11.5579 19.848 11.8768 20.5577C12.0246 20.9164 12.2824 21.2189 12.6131 21.4217C12.8996 21.5498 13.2105 21.614 13.5242 21.61H14.2202C14.2672 21.6124 14.3142 21.6049 14.3581 21.5881C14.402 21.5712 14.4419 21.5453 14.4752 21.512C14.5084 21.4787 14.5344 21.4388 14.5512 21.3949C14.5681 21.351 14.5756 21.304 14.5732 21.257C14.5732 20.9208 14.5732 20.3828 14.5732 20.0702C14.5858 19.5568 14.7884 19.0663 15.1418 18.6937C15.4952 18.321 15.9742 18.0927 16.4862 18.0529H18.2446H19.8449C20.2844 18.0486 20.7046 17.8723 21.0157 17.5619C21.3268 17.2514 21.5039 16.8315 21.5091 16.3921V14.2168V12.7846C21.4944 12.6178 21.45 12.455 21.378 12.3038ZM16.4257 13.3763C16.302 13.3763 16.1811 13.3396 16.0783 13.2709C15.9754 13.2022 15.8953 13.1045 15.8479 12.9903C15.8006 12.876 15.7882 12.7503 15.8124 12.629C15.8365 12.5076 15.8961 12.3962 15.9835 12.3088C16.071 12.2213 16.1824 12.1618 16.3037 12.1376C16.425 12.1135 16.5507 12.1259 16.665 12.1732C16.7793 12.2205 16.8769 12.3007 16.9456 12.4035C17.0144 12.5064 17.051 12.6273 17.051 12.751C17.051 12.9168 16.9852 13.0759 16.8679 13.1931C16.7506 13.3104 16.5915 13.3763 16.4257 13.3763Z" fill="white"/>
<path d="M15.6222 24.6964C16.2005 25.9168 18.4127 25.8866 19.0045 25.8765C19.7172 25.8765 21.4655 25.8395 21.9059 24.8679C21.9895 24.6707 22.0219 24.4556 22.0001 24.2425V23.1364C22.0023 23.0909 21.9953 23.0453 21.9795 23.0026C21.9636 22.9598 21.9392 22.9207 21.9077 22.8877C21.8763 22.8547 21.8384 22.8284 21.7965 22.8105C21.7546 22.7925 21.7095 22.7833 21.6638 22.7834H19.1053C19.0438 22.7834 18.9848 22.7589 18.9413 22.7154C18.8978 22.6719 18.8733 22.6129 18.8733 22.5514V22.3026C18.8733 22.2411 18.8978 22.1821 18.9413 22.1386C18.9848 22.0951 19.0438 22.0706 19.1053 22.0706H23.476C23.8588 22.0662 24.2317 21.9493 24.5485 21.7344C24.8741 21.4805 25.1183 21.1369 25.2512 20.746C25.496 20.0952 25.5936 19.3982 25.537 18.7052C25.5842 17.9286 25.4423 17.1522 25.1234 16.4425C24.9756 16.0838 24.7178 15.7813 24.3871 15.5785C24.1006 15.4504 23.7898 15.3862 23.476 15.3902H22.7834C22.6942 15.3902 22.6087 15.4256 22.5457 15.4887C22.4826 15.5517 22.4472 15.6372 22.4472 15.7264C22.4472 16.0626 22.4472 16.6005 22.4472 16.9132C22.4346 17.4266 22.232 17.9171 21.8786 18.2897C21.5252 18.6623 21.0462 18.8907 20.5342 18.9304H18.7758H17.1553C16.7159 18.9348 16.2956 19.1111 15.9845 19.4215C15.6735 19.732 15.4963 20.1519 15.4911 20.5913V22.7699V24.219C15.5062 24.3846 15.5506 24.5463 15.6222 24.6964ZM20.5745 23.6239C20.6982 23.6239 20.8191 23.6606 20.922 23.7293C21.0248 23.798 21.1049 23.8957 21.1523 24.0099C21.1996 24.1242 21.212 24.2499 21.1879 24.3712C21.1637 24.4925 21.1042 24.604 21.0167 24.6914C20.9293 24.7789 20.8178 24.8384 20.6965 24.8626C20.5752 24.8867 20.4495 24.8743 20.3352 24.827C20.221 24.7797 20.1233 24.6995 20.0546 24.5967C19.9859 24.4938 19.9492 24.3729 19.9492 24.2492C19.9492 24.0834 20.0151 23.9243 20.1324 23.8071C20.2496 23.6898 20.4087 23.6239 20.5745 23.6239Z" fill="white"/>
<defs>
<linearGradient id="paint0_linear_2020_1070" x1="36.718" y1="0.282487" x2="-1.80365" y2="1.06994" gradientUnits="userSpaceOnUse">
<stop stop-color="#00EEA7"/>
<stop offset="1" stop-color="#027163"/>
</linearGradient>
</defs>
</svg>
