<svg width="38" height="37" viewBox="0 0 38 37" fill="none" xmlns="http://www.w3.org/2000/svg">
<path d="M29.0411 8.6256C26.9499 3.60603 23.3088 0.284302 19.1667 0.284302C15.0247 0.284302 11.3836 3.60603 9.29234 8.6256C4.27277 10.7168 0.95105 14.3579 0.95105 18.5C0.95105 22.6421 4.27277 26.2832 9.29234 28.3744C11.3836 33.394 15.0247 36.7157 19.1667 36.7157C23.3088 36.7157 26.9499 33.394 29.0411 28.3744C34.0607 26.2832 37.3824 22.6421 37.3824 18.5C37.3824 14.3579 34.0607 10.7168 29.0411 8.6256Z" fill="url(#paint0_linear_2020_879)"/>
<path d="M14.349 14.3008C14.2 14.1781 14.0627 14.0419 13.9388 13.8939C13.9012 13.8505 13.8805 13.795 13.8805 13.7376C13.8805 13.6802 13.9012 13.6247 13.9388 13.5813C14.4798 13.0122 15.1101 12.5352 15.8048 12.1692C16.1645 11.9809 16.2217 11.9372 16.2586 11.9809C16.2956 12.0246 16.1813 12.1188 15.9594 12.3575C15.8283 12.4987 15.6972 12.6433 15.6064 12.7576C15.2512 13.2022 14.9562 13.6916 14.7289 14.2133C14.7128 14.2472 14.6892 14.2769 14.66 14.3004C14.6308 14.3239 14.5966 14.3404 14.5601 14.3488C14.5235 14.3572 14.4856 14.3573 14.449 14.349C14.4125 14.3406 14.3783 14.3241 14.349 14.3008Z" fill="white"/>
<path d="M13.2933 14.8756C13.5408 15.1127 13.8124 15.3234 14.1035 15.5043C14.1472 15.5298 14.1814 15.5689 14.2008 15.6157C14.2203 15.6624 14.2239 15.7142 14.2111 15.7632C14.1439 16.0187 14.0867 16.2742 14.0329 16.5331C13.6874 17.8938 13.6324 19.312 13.8715 20.6953C13.8816 20.7837 13.8677 20.8731 13.8312 20.9542C13.8036 21.0316 13.7485 21.0962 13.6765 21.1358C13.5252 21.2299 13.263 21.4115 12.91 21.667C12.8803 21.6882 12.8462 21.7025 12.8103 21.7091C12.7744 21.7156 12.7375 21.7142 12.7022 21.7049C12.6669 21.6956 12.6341 21.6787 12.6061 21.6553C12.5781 21.6318 12.5556 21.6026 12.5402 21.5695C12.1221 20.5983 11.9135 19.5499 11.928 18.4926C11.9424 17.4354 12.1797 16.3931 12.6242 15.4337C12.7116 15.2555 12.8058 15.0975 12.91 14.916C12.9298 14.8846 12.9564 14.8581 12.9879 14.8385C13.0194 14.8189 13.055 14.8067 13.0918 14.8029C13.1287 14.799 13.166 14.8035 13.2009 14.8161C13.2358 14.8287 13.2674 14.849 13.2933 14.8756Z" fill="white"/>
<path d="M15.6602 24.6794C15.7812 24.8005 15.909 24.9148 16.0401 25.0157C16.1712 25.1165 16.1846 25.1367 16.1678 25.1602C16.151 25.1838 16.0804 25.1602 15.9291 25.0896C15.2643 24.7891 14.6542 24.3801 14.1237 23.8793C13.8607 23.626 13.619 23.3517 13.4008 23.0589C13.3807 23.0346 13.3657 23.0065 13.3566 22.9763C13.3475 22.9461 13.3446 22.9144 13.3481 22.883C13.3515 22.8516 13.3613 22.8213 13.3767 22.7937C13.3921 22.7662 13.4129 22.7421 13.4378 22.7227C13.6039 22.5807 13.7779 22.4483 13.959 22.326C13.9901 22.3041 14.026 22.2896 14.0636 22.2837C14.1013 22.2779 14.1398 22.2807 14.1762 22.2921C14.2126 22.3035 14.2459 22.323 14.2735 22.3493C14.3011 22.3756 14.3223 22.4079 14.3355 22.4437C14.6083 23.2768 15.0604 24.04 15.6602 24.6794Z" fill="white"/>
<path d="M15.5055 21.5527C16.4337 21.2541 17.3989 21.0855 18.3733 21.0517C18.4062 21.0494 18.4393 21.0539 18.4704 21.0648C18.5015 21.0757 18.53 21.0929 18.5543 21.1153C18.5785 21.1376 18.5979 21.1647 18.6113 21.1948C18.6247 21.2249 18.6318 21.2575 18.6322 21.2904L18.6087 24.8879C18.6072 24.9294 18.5952 24.9699 18.5739 25.0055C18.5525 25.0411 18.5224 25.0707 18.4865 25.0916C18.4505 25.1124 18.4099 25.1238 18.3683 25.1246C18.3268 25.1254 18.2857 25.1157 18.249 25.0963C17.4017 24.6458 16.5679 24.1381 16.0771 23.3581C15.7788 22.8892 15.5362 22.3871 15.3542 21.862C15.3338 21.8009 15.3382 21.7342 15.3665 21.6764C15.3948 21.6185 15.4447 21.5741 15.5055 21.5527Z" fill="white"/>
<path d="M14.9205 18.658C14.9634 17.8696 15.0816 17.0872 15.2735 16.3213C15.2811 16.2893 15.2954 16.2592 15.3152 16.2329C15.3351 16.2066 15.3602 16.1848 15.3889 16.1687C15.4177 16.1526 15.4494 16.1426 15.4822 16.1393C15.515 16.1361 15.5481 16.1397 15.5794 16.1499C16.5059 16.3908 17.4597 16.5106 18.417 16.5063C18.4809 16.5071 18.542 16.5329 18.5872 16.5781C18.6324 16.6233 18.6582 16.6844 18.6591 16.7483L18.6389 19.6767C18.6381 19.7383 18.6135 19.7971 18.5702 19.841C18.527 19.8849 18.4685 19.9103 18.4069 19.912C17.3547 19.9517 16.3118 20.1257 15.3037 20.4298C15.2702 20.4416 15.2344 20.4458 15.1991 20.4422C15.1637 20.4386 15.1295 20.4272 15.099 20.4089C15.0686 20.3906 15.0425 20.3659 15.0226 20.3363C15.0028 20.3068 14.9897 20.2733 14.9843 20.2382C14.9227 19.7138 14.9014 19.1856 14.9205 18.658Z" fill="white"/>
<path d="M16.1578 13.9612C16.713 13.112 17.4474 12.3948 18.3095 11.8599C18.3465 11.8365 18.389 11.8234 18.4327 11.822C18.4764 11.8206 18.5196 11.8309 18.558 11.8518C18.5964 11.8727 18.6285 11.9035 18.651 11.941C18.6735 11.9784 18.6856 12.0212 18.6861 12.065C18.6861 13.0736 18.6861 14.1158 18.6861 15.1379C18.6856 15.1697 18.6789 15.2011 18.6664 15.2303C18.6538 15.2595 18.6356 15.2859 18.6128 15.3081C18.59 15.3302 18.5631 15.3477 18.5335 15.3595C18.504 15.3712 18.4724 15.377 18.4406 15.3766C17.591 15.3894 16.7433 15.2911 15.9191 15.0841C15.8875 15.075 15.858 15.0595 15.8327 15.0386C15.8073 15.0176 15.7866 14.9916 15.7718 14.9623C15.7569 14.9329 15.7483 14.9008 15.7465 14.868C15.7446 14.8351 15.7496 14.8023 15.7611 14.7714C15.8664 14.489 15.9993 14.2176 16.1578 13.9612Z" fill="white"/>
<path d="M24.0418 14.3008C24.1868 14.177 24.3207 14.0409 24.4419 13.8939C24.4783 13.85 24.4982 13.7947 24.4982 13.7376C24.4982 13.6805 24.4783 13.6253 24.4419 13.5813C23.9167 13.0145 23.3023 12.5375 22.623 12.1692C22.2868 11.9809 22.2162 11.9372 22.1793 11.9809C22.1423 12.0246 22.2532 12.1188 22.4718 12.3575C22.5995 12.4987 22.7273 12.6433 22.808 12.7576C23.1545 13.2044 23.4426 13.6936 23.6653 14.2133C23.6805 14.2476 23.7035 14.2778 23.7323 14.3017C23.7612 14.3256 23.7953 14.3424 23.8318 14.3509C23.8683 14.3594 23.9063 14.3592 23.9427 14.3505C23.9792 14.3418 24.0131 14.3248 24.0418 14.3008Z" fill="white"/>
<path d="M25.0707 14.8756C24.8315 15.114 24.5665 15.3248 24.2806 15.5044C24.2379 15.5307 24.2047 15.5701 24.186 15.6167C24.1672 15.6633 24.1639 15.7146 24.1764 15.7632C24.2403 16.0188 24.2974 16.2743 24.3512 16.5331C24.6855 17.8955 24.7393 19.3116 24.5092 20.6954C24.4992 20.7834 24.5119 20.8726 24.5462 20.9543C24.573 21.0311 24.6268 21.0956 24.6975 21.1358C24.8488 21.23 25.1043 21.4115 25.4439 21.667C25.473 21.6882 25.5066 21.7025 25.542 21.709C25.5774 21.7156 25.6139 21.7141 25.6487 21.7048C25.6834 21.6954 25.7157 21.6784 25.7431 21.655C25.7705 21.6316 25.7923 21.6024 25.807 21.5695C26.2159 20.5961 26.4197 19.5489 26.4059 18.4932C26.392 17.4375 26.1606 16.396 25.7263 15.4338C25.6422 15.2556 25.5481 15.0975 25.4472 14.916C25.4282 14.8847 25.4022 14.8583 25.3712 14.8387C25.3403 14.8191 25.3053 14.8069 25.2689 14.803C25.2325 14.7991 25.1957 14.8036 25.1613 14.8162C25.127 14.8288 25.0959 14.8492 25.0707 14.8756Z" fill="white"/>
<path d="M22.7609 24.6794C22.6398 24.8004 22.5154 24.9125 22.3877 25.0156C22.2801 25.1064 22.2465 25.1366 22.2667 25.1601C22.2868 25.1837 22.3507 25.1601 22.4986 25.0895C23.1529 24.7883 23.7519 24.3791 24.2704 23.8792C24.528 23.6257 24.7642 23.3513 24.9765 23.0589C24.9966 23.0346 25.0117 23.0065 25.0207 22.9762C25.0298 22.946 25.0327 22.9143 25.0292 22.8829C25.0258 22.8515 25.0161 22.8212 25.0006 22.7937C24.9852 22.7661 24.9644 22.742 24.9395 22.7226C24.778 22.5808 24.6085 22.4483 24.4318 22.3259C24.4015 22.3039 24.3664 22.2894 24.3294 22.2835C24.2924 22.2776 24.2545 22.2805 24.2188 22.2919C24.1831 22.3034 24.1506 22.3231 24.124 22.3494C24.0973 22.3758 24.0772 22.4081 24.0654 22.4436C23.7979 23.2747 23.3527 24.0376 22.7609 24.6794Z" fill="white"/>
<path d="M22.9088 21.5527C22.0048 21.2541 21.063 21.0855 20.1116 21.0518C20.079 21.0494 20.0463 21.0539 20.0155 21.0649C19.9848 21.0759 19.9566 21.0931 19.9329 21.1156C19.9092 21.138 19.8904 21.1652 19.8778 21.1953C19.8651 21.2254 19.8589 21.2578 19.8594 21.2905L19.8796 24.8879C19.8807 24.9288 19.8922 24.9688 19.913 25.0041C19.9338 25.0394 19.9632 25.0688 19.9985 25.0897C20.0337 25.1105 20.0737 25.122 20.1147 25.1232C20.1556 25.1244 20.1962 25.1151 20.2326 25.0963C21.0597 24.6458 21.8733 24.1381 22.3541 23.3581C22.6459 22.8886 22.8818 22.3865 23.0567 21.862C23.0674 21.832 23.072 21.8002 23.0703 21.7684C23.0686 21.7366 23.0607 21.7054 23.047 21.6767C23.0332 21.6479 23.0139 21.6222 22.9902 21.6009C22.9665 21.5796 22.9389 21.5633 22.9088 21.5527Z" fill="white"/>
<path d="M23.4837 18.6579C23.4458 17.8701 23.3333 17.0877 23.1475 16.3213C23.1407 16.2895 23.1272 16.2595 23.108 16.2332C23.0888 16.207 23.0643 16.1851 23.0361 16.1689C23.0079 16.1527 22.9766 16.1427 22.9442 16.1394C22.9119 16.1361 22.8792 16.1396 22.8483 16.1498C21.9447 16.3908 21.0131 16.5106 20.0779 16.5062C20.0149 16.5079 19.9551 16.5342 19.9111 16.5794C19.8671 16.6246 19.8426 16.6852 19.8426 16.7482L19.8392 19.6766C19.8392 19.7379 19.8631 19.7967 19.9058 19.8407C19.9485 19.8846 20.0066 19.9102 20.0679 19.9119C21.0946 19.9527 22.1118 20.1268 23.0937 20.4297C23.1269 20.4409 23.1621 20.4447 23.1968 20.4408C23.2316 20.4369 23.2651 20.4254 23.2949 20.4071C23.3248 20.3888 23.3502 20.3642 23.3695 20.335C23.3887 20.3058 23.4013 20.2727 23.4064 20.2381C23.4691 19.7138 23.495 19.1858 23.4837 18.6579Z" fill="white"/>
<path d="M22.2734 13.9611C21.7371 13.1149 21.0208 12.3975 20.1755 11.8598C20.1391 11.8368 20.0972 11.824 20.0542 11.8228C20.0112 11.8217 19.9686 11.8321 19.9311 11.8532C19.8935 11.8742 19.8624 11.9049 19.8409 11.9422C19.8194 11.9795 19.8084 12.0219 19.809 12.0649C19.809 13.0892 19.8146 14.1135 19.8258 15.1379C19.8258 15.2012 19.8509 15.2619 19.8957 15.3066C19.9405 15.3514 20.0012 15.3766 20.0645 15.3766C20.8953 15.3892 21.7241 15.2908 22.5289 15.0841C22.5602 15.0747 22.5892 15.0589 22.6141 15.0378C22.639 15.0166 22.6592 14.9905 22.6734 14.9611C22.6877 14.9316 22.6956 14.8996 22.6968 14.8669C22.6979 14.8343 22.6923 14.8017 22.6802 14.7714C22.5719 14.4884 22.4356 14.217 22.2734 13.9611Z" fill="white"/>
<defs>
<linearGradient id="paint0_linear_2020_879" x1="37.3824" y1="0.284684" x2="-1.13444" y2="1.07204" gradientUnits="userSpaceOnUse">
<stop stop-color="#00C3FF"/>
<stop offset="1" stop-color="#005FF4"/>
</linearGradient>
</defs>
</svg>
