<svg width="36" height="35" viewBox="0 0 36 35" fill="none" xmlns="http://www.w3.org/2000/svg">
<path d="M23.3948 34.8482C14.5929 34.8482 5.13204 27.5492 1.9179 18.401C-1.35339 9.09479 2.8929 0.871169 11.7788 0.195393C21.0145 -0.507279 31.4167 7.17169 34.6107 17.194C37.7307 27.0213 32.543 34.8482 23.3948 34.8482Z" fill="url(#paint0_linear_2020_1540)"/>
<path d="M25.0052 17.2848C25.4661 16.0581 25.4946 14.7107 25.0859 13.4655C24.1479 10.6986 21.3674 9.25623 18.55 9.79416C15.8301 10.3052 13.0295 11.8383 11.5502 14.2388C11.3302 14.5941 11.1434 14.9689 10.9921 15.3584C10.4262 16.4276 10.1908 17.6409 10.3159 18.8441C10.441 20.0473 10.921 21.1862 11.6948 22.1161C14.0011 24.8495 17.9516 24.5604 20.8564 22.997C20.8836 22.9825 20.9095 22.9657 20.9337 22.9466L23.4317 23.6492C23.4719 23.6635 23.5137 23.6726 23.5561 23.6761C23.7007 23.6963 23.9327 23.6761 23.9932 23.5551C24.005 23.5197 24.0091 23.4821 24.005 23.4449C24.0009 23.4078 23.9889 23.372 23.9697 23.3399C23.6873 22.7415 23.2603 22.022 23.109 21.706C23.0922 21.669 23.0249 21.5446 22.9342 21.3698C22.8904 21.2857 22.8131 21.1781 22.7492 21.0705L22.7896 21.0369C23.79 19.9606 24.5458 18.6807 25.0052 17.2848ZM23.694 13.2773C24.1825 14.4004 24.2412 15.664 23.8587 16.8276C23.4654 18.0581 22.7997 19.4635 21.8751 20.3679C21.8265 20.4037 21.7863 20.4497 21.7574 20.5026C21.7285 20.5556 21.7115 20.6143 21.7076 20.6745C21.7038 20.7347 21.7132 20.7951 21.7351 20.8513C21.7571 20.9075 21.7911 20.9583 21.8348 20.9999C22.1396 21.511 22.4366 22.0254 22.7257 22.5431C22.734 22.5564 22.7378 22.5719 22.7367 22.5876C22.7356 22.6032 22.7296 22.618 22.7195 22.63C22.7094 22.6419 22.6958 22.6504 22.6806 22.6541C22.6654 22.6578 22.6494 22.6566 22.6349 22.6507L20.5807 21.8472C20.489 21.8103 20.3866 21.8103 20.2949 21.8472C20.2375 21.8539 20.181 21.8674 20.1268 21.8875C17.928 22.7516 15.2518 23.0542 13.3119 21.4269C11.5367 19.9375 11.3854 17.305 12.3302 15.318C14.1323 11.5256 21.4313 8.1501 23.694 13.2773Z" fill="white"/>
<path d="M14.213 18.2598L14.9191 19.3558C14.9343 19.3805 14.9545 19.4017 14.9784 19.4181C15.0023 19.4345 15.0293 19.4458 15.0578 19.4512C15.0862 19.4566 15.1155 19.4559 15.1437 19.4494C15.172 19.4428 15.1985 19.4304 15.2217 19.413C15.7372 19.0342 16.2706 18.6577 16.822 18.2833C16.8543 18.2598 16.8926 18.2459 16.9325 18.2433C16.9723 18.2406 17.0121 18.2492 17.0473 18.2682C17.0825 18.2872 17.1115 18.3157 17.1312 18.3505C17.1508 18.3853 17.1602 18.425 17.1582 18.4649C17.1582 19.1373 17.1414 19.7996 17.1078 20.4519C17.1064 20.4804 17.1109 20.5088 17.1209 20.5355C17.131 20.5622 17.1465 20.5866 17.1663 20.6071C17.1862 20.6276 17.21 20.6437 17.2364 20.6546C17.2628 20.6655 17.2911 20.6709 17.3196 20.6704H18.6207C18.65 20.6709 18.679 20.6654 18.7061 20.6541C18.7331 20.6428 18.7575 20.6261 18.7777 20.6049C18.7979 20.5838 18.8135 20.5586 18.8235 20.5311C18.8335 20.5036 18.8378 20.4744 18.8359 20.4452C18.7955 19.7996 18.7687 19.1306 18.7485 18.4279C18.7472 18.3882 18.7569 18.3489 18.7765 18.3144C18.7962 18.2798 18.825 18.2514 18.8598 18.2323C18.8947 18.2131 18.9341 18.204 18.9738 18.2059C19.0135 18.2078 19.0518 18.2206 19.0847 18.243C19.663 18.6128 20.2311 18.986 20.7825 19.3525C20.8063 19.3681 20.833 19.3788 20.8609 19.3841C20.8889 19.3893 20.9176 19.3889 20.9455 19.383C20.9733 19.3771 20.9997 19.3657 21.0231 19.3494C21.0465 19.3332 21.0664 19.3126 21.0818 19.2886L21.7542 18.1791C21.7697 18.1547 21.78 18.1273 21.7845 18.0986C21.789 18.07 21.7876 18.0408 21.7803 18.0128C21.7731 17.9847 21.7602 17.9585 21.7424 17.9356C21.7246 17.9127 21.7023 17.8938 21.6768 17.8799C21.0347 17.5437 20.3791 17.1671 19.7067 16.7738C19.6754 16.7545 19.6495 16.7276 19.6316 16.6955C19.6137 16.6634 19.6043 16.6273 19.6043 16.5905C19.6043 16.5538 19.6137 16.5177 19.6316 16.4856C19.6495 16.4535 19.6754 16.4266 19.7067 16.4073C20.3791 16.0039 21.0212 15.6239 21.6567 15.2676C21.6816 15.2527 21.7033 15.2331 21.7205 15.2097C21.7377 15.1864 21.7501 15.1599 21.757 15.1318C21.7639 15.1036 21.7651 15.0744 21.7606 15.0457C21.7561 15.0171 21.7459 14.9896 21.7306 14.965L21.0246 13.8689C21.0093 13.8449 20.9893 13.8242 20.9658 13.808C20.9423 13.7919 20.9158 13.7807 20.8879 13.775C20.8599 13.7694 20.8311 13.7694 20.8032 13.7752C20.7753 13.7809 20.7488 13.7922 20.7254 13.8084C20.1897 14.1805 19.6417 14.5537 19.0813 14.928C19.0485 14.9504 19.0101 14.9632 18.9704 14.9651C18.9307 14.967 18.8913 14.9579 18.8565 14.9387C18.8217 14.9196 18.7928 14.8912 18.7732 14.8566C18.7535 14.8221 18.7438 14.7828 18.7451 14.7431C18.7653 14.0707 18.7955 13.4184 18.8325 12.783C18.8339 12.7539 18.8293 12.7248 18.8191 12.6976C18.8089 12.6703 18.7933 12.6453 18.7732 12.6243C18.7531 12.6032 18.7289 12.5865 18.7021 12.575C18.6753 12.5636 18.6465 12.5577 18.6174 12.5577H17.3196C17.2909 12.5577 17.2625 12.5635 17.2361 12.5748C17.2098 12.586 17.186 12.6026 17.1661 12.6233C17.1463 12.644 17.131 12.6686 17.1209 12.6955C17.1109 12.7224 17.1064 12.751 17.1078 12.7796C17.1302 13.452 17.1481 14.1245 17.1616 14.7969C17.1623 14.8363 17.1521 14.8752 17.1322 14.9092C17.1123 14.9432 17.0834 14.9711 17.0487 14.9899C17.014 15.0086 16.9748 15.0175 16.9354 15.0154C16.896 15.0134 16.858 15.0006 16.8254 14.9784C16.2538 14.6019 15.6991 14.2287 15.1679 13.8555C15.1441 13.8389 15.1172 13.8273 15.0888 13.8215C15.0604 13.8157 15.0311 13.8158 15.0027 13.8218C14.9744 13.8278 14.9475 13.8396 14.9239 13.8563C14.9002 13.8731 14.8803 13.8946 14.8653 13.9194L14.1929 15.0289C14.1784 15.0533 14.1689 15.0804 14.1649 15.1086C14.161 15.1367 14.1626 15.1654 14.1698 15.1929C14.177 15.2204 14.1896 15.2462 14.2068 15.2689C14.2241 15.2915 14.2456 15.3105 14.2702 15.3247C14.8955 15.6609 15.531 16.0476 16.1698 16.4308C16.2081 16.4492 16.2402 16.4784 16.2619 16.5149C16.2836 16.5514 16.2941 16.5935 16.2919 16.6359C16.2898 16.6784 16.2751 16.7192 16.2498 16.7533C16.2244 16.7874 16.1896 16.8132 16.1496 16.8276C15.5175 17.2209 14.8888 17.6008 14.2702 17.9639C14.2238 17.996 14.1919 18.0449 14.1812 18.1002C14.1705 18.1555 14.1819 18.2128 14.213 18.2598Z" fill="white"/>
<defs>
<linearGradient id="paint0_linear_2020_1540" x1="35.5206" y1="0.151121" x2="-1.16789" y2="0.9012" gradientUnits="userSpaceOnUse">
<stop stop-color="#FAC889"/>
<stop offset="1" stop-color="#FF2155"/>
</linearGradient>
</defs>
</svg>
