<svg width="37" height="37" viewBox="0 0 37 37" fill="none" xmlns="http://www.w3.org/2000/svg">
<path d="M35.902 17.1248C36.1489 17.2597 36.355 17.4585 36.4986 17.7005C36.6421 17.9424 36.7179 18.2186 36.7179 18.4999C36.7179 18.7813 36.6421 19.0574 36.4986 19.2994C36.355 19.5414 36.1489 19.7402 35.902 19.875C29.1366 23.5743 23.5743 29.1366 19.875 35.902C19.7402 36.1489 19.5414 36.355 19.2994 36.4986C19.0574 36.6421 18.7813 36.7179 18.4999 36.7179C18.2186 36.7179 17.9424 36.6421 17.7005 36.4986C17.4585 36.355 17.2597 36.1489 17.1248 35.902C13.4256 29.1366 7.86328 23.5743 1.09787 19.875C0.850934 19.7402 0.644867 19.5414 0.501304 19.2994C0.357742 19.0574 0.281982 18.7813 0.281982 18.4999C0.281982 18.2186 0.357742 17.9424 0.501304 17.7005C0.644867 17.4585 0.850934 17.2597 1.09787 17.1248C7.86328 13.4256 13.4256 7.86328 17.1248 1.09787C17.2597 0.850934 17.4585 0.644867 17.7005 0.501304C17.9424 0.357742 18.2186 0.281982 18.4999 0.281982C18.7813 0.281982 19.0574 0.357742 19.2994 0.501304C19.5414 0.644867 19.7402 0.850934 19.875 1.09787C23.5743 7.86328 29.1366 13.4256 35.902 17.1248Z" fill="url(#paint0_linear_2020_690)"/>
<path d="M16.3319 21.2557C16.3081 21.1991 16.2644 21.1532 16.209 21.1266C16.1537 21.1 16.0906 21.0945 16.0315 21.1111C15.4924 21.2616 15.2025 21.4677 15.145 21.741C15.1276 21.8436 15.1404 21.9491 15.1818 22.0446C15.2232 22.14 15.2914 22.2215 15.3781 22.2789C15.7669 22.5974 16.6727 22.8315 17.745 22.8314C18.6846 22.8363 19.6157 22.6537 20.4837 22.294C20.5298 22.2743 20.5689 22.2413 20.5961 22.1992C20.6234 22.1572 20.6374 22.1079 20.6365 22.0578C20.6357 22.0077 20.6199 21.959 20.5912 21.918C20.5625 21.8769 20.5223 21.8453 20.4755 21.8271C20.208 21.7233 19.9496 21.5973 19.703 21.4506C19.6492 21.4169 19.5847 21.4047 19.5224 21.4166C18.5414 21.6404 17.5278 21.6835 16.5314 21.5439C16.4537 21.5355 16.3766 21.5231 16.3002 21.5066C16.327 21.4712 16.3441 21.4294 16.3496 21.3854C16.3552 21.3413 16.3491 21.2966 16.3319 21.2557Z" fill="white"/>
<path d="M20.8989 20.2144C20.9004 20.161 20.8849 20.1085 20.8546 20.0645C20.8243 20.0206 20.7809 19.9873 20.7305 19.9696C20.5403 19.901 20.3656 19.7953 20.2167 19.6587C20.1876 19.629 20.1516 19.607 20.112 19.5947C20.0723 19.5824 20.0302 19.5802 19.9895 19.5883C18.7144 19.8675 17.4016 19.9306 16.1057 19.7751C16.0114 19.7678 15.9183 19.7496 15.8282 19.7209C15.8489 19.6977 15.8716 19.6765 15.8962 19.6575C15.9442 19.6217 15.9778 19.5699 15.9911 19.5115C16.0044 19.4531 15.9965 19.3919 15.9688 19.3388C15.941 19.2857 15.8953 19.2442 15.8398 19.2217C15.7842 19.1993 15.7225 19.1974 15.6657 19.2163C14.9224 19.463 14.6026 19.7723 14.7158 20.1354C14.8718 20.635 16.0147 20.9035 17.4295 20.9034C18.5411 20.9032 19.6475 20.7505 20.7176 20.4495C20.7688 20.4345 20.8139 20.4037 20.8465 20.3615C20.8791 20.3192 20.8975 20.2677 20.8989 20.2144Z" fill="white"/>
<path d="M17.9492 13.7192C17.7368 14.393 17.9515 15.1065 18.5875 15.8395C18.6588 15.9116 18.7144 15.9977 18.7508 16.0923C18.7872 16.187 18.8036 16.2881 18.7989 16.3894C18.7554 16.6431 18.6252 16.8737 18.4305 17.042C18.3825 17.0815 18.3509 17.1374 18.3416 17.1989C18.3323 17.2604 18.346 17.3231 18.3802 17.3751C18.4144 17.4271 18.4665 17.4646 18.5267 17.4804C18.5868 17.4963 18.6507 17.4893 18.706 17.4609C18.7506 17.4378 19.8026 16.8864 20.0071 16.0432C20.0503 15.8603 20.0521 15.67 20.0122 15.4863C19.9723 15.3026 19.8918 15.1301 19.7766 14.9816L19.6768 14.8421C19.3426 14.3778 19.1567 14.1004 19.2217 13.7958C19.3232 13.3218 20.0639 12.6988 21.5532 11.8351C21.6057 11.8046 21.6455 11.7562 21.6651 11.6987C21.6848 11.6412 21.6831 11.5786 21.6603 11.5223C21.6375 11.466 21.5951 11.4199 21.541 11.3923C21.4869 11.3648 21.4246 11.3577 21.3657 11.3723C21.2472 11.402 18.4551 12.1163 17.9492 13.7192Z" fill="white"/>
<path d="M22.9014 23.2472C22.9378 23.1254 22.971 22.8186 22.4864 22.6001C22.4325 22.5733 22.3706 22.5676 22.3128 22.584C22.255 22.6005 22.2054 22.638 22.1737 22.6891C22.1421 22.7403 22.1307 22.8014 22.1417 22.8605C22.1528 22.9196 22.1856 22.9725 22.2336 23.0087C22.2329 23.0095 22.1832 23.099 21.8481 23.2006C20.2127 23.6962 15.2763 23.8103 13.7325 23.2871C13.919 23.203 14.1135 23.1379 14.313 23.0927C14.457 23.0579 14.6045 23.0403 14.7526 23.0403C14.8076 23.0447 14.8625 23.0306 14.9087 23.0004C14.9549 22.9702 14.9897 22.9255 15.0078 22.8734C15.0262 22.8215 15.0272 22.765 15.0106 22.7125C14.9939 22.66 14.9605 22.6144 14.9155 22.5827C14.424 22.2366 13.0824 22.6523 12.5433 23.0093C12.236 23.2125 12.105 23.4314 12.1543 23.6597C12.2321 24.0212 12.7305 24.1424 13.099 24.2021C14.4599 24.4227 15.8363 24.5342 17.2149 24.5356C20.3539 24.5355 22.6962 23.9291 22.9014 23.2472Z" fill="white"/>
<path d="M16.344 18.8929C16.4842 18.8957 16.6242 18.8971 16.764 18.8972C18.0539 18.9149 19.3414 18.778 20.5988 18.4894C20.6268 18.4822 20.6532 18.4701 20.677 18.4538C20.879 18.3242 21.091 18.211 21.311 18.1151C21.3679 18.0907 21.4138 18.0463 21.44 17.9902C21.4662 17.9342 21.4709 17.8705 21.4532 17.8112C21.4354 17.7519 21.3965 17.7012 21.3439 17.6687C21.2912 17.6363 21.2284 17.6243 21.1675 17.6351C21.1563 17.6371 20.0479 17.8339 18.9578 17.9257C17.7925 18.041 16.6193 18.0543 15.4516 17.9654C15.3935 17.9575 15.3433 17.9496 15.2999 17.9419C15.6672 17.7959 16.045 17.6779 16.4301 17.5889C16.4888 17.5749 16.5405 17.5404 16.5759 17.4915C16.6114 17.4427 16.6281 17.3827 16.6231 17.3226C16.6181 17.2625 16.5917 17.2061 16.5487 17.1638C16.5056 17.1215 16.4489 17.096 16.3887 17.0919C15.535 17.0833 14.6919 17.2808 13.9308 17.6675C13.5017 17.8751 13.482 18.1094 13.5411 18.2695C13.681 18.6483 14.6239 18.8581 16.344 18.8929Z" fill="white"/>
<path d="M24.027 18.043C23.7938 17.849 23.5126 17.7214 23.2131 17.6735C22.9135 17.6256 22.6066 17.6593 22.3246 17.771C22.176 17.8258 22.0482 17.9254 21.9588 18.0562C21.9304 18.1011 21.9168 18.1539 21.9201 18.207C21.9234 18.26 21.9434 18.3107 21.9772 18.3518C22.011 18.3928 22.0569 18.4222 22.1084 18.4356C22.1599 18.449 22.2143 18.4458 22.2638 18.4265C22.3542 18.3956 22.4467 18.3712 22.5406 18.3535C22.6949 18.3273 22.8536 18.354 22.9908 18.4293C23.128 18.5046 23.2357 18.6241 23.2964 18.7683C23.479 19.2802 22.9103 19.9378 21.7756 20.5275C21.7635 20.5338 21.7518 20.5411 21.7408 20.5493C21.6645 20.6029 21.6105 20.6827 21.5891 20.7734C21.5816 20.8101 21.5823 20.8479 21.5913 20.8842C21.6002 20.9206 21.6171 20.9545 21.6407 20.9834C21.6643 21.0124 21.6941 21.0358 21.7279 21.0519C21.7617 21.0679 21.7986 21.0763 21.836 21.0763C21.8576 21.0762 21.8791 21.0735 21.8999 21.0681C23.8187 20.5638 24.2931 19.7183 24.4054 19.2593C24.4596 19.0413 24.453 18.8127 24.3862 18.5982C24.3195 18.3838 24.1952 18.1918 24.027 18.043Z" fill="white"/>
<path d="M17.6192 16.4437C17.6621 16.4822 17.7169 16.5049 17.7744 16.5079C17.832 16.5109 17.8888 16.4941 17.9355 16.4603C17.9822 16.4265 18.0159 16.3777 18.031 16.3221C18.0461 16.2665 18.0417 16.2073 18.0185 16.1546C17.869 15.8475 17.6903 15.5554 17.485 15.2825C16.8345 14.3563 16.2728 13.5563 17.9453 12.2356C19.1817 11.2591 19.8368 10.2878 19.8919 9.34811C19.9117 9.09621 19.8807 8.8429 19.8008 8.60317C19.721 8.36344 19.5939 8.14216 19.427 7.95242C19.3879 7.91345 19.3372 7.88837 19.2825 7.88103C19.2278 7.87368 19.1722 7.88448 19.1243 7.91175C19.0763 7.93903 19.0386 7.98129 19.017 8.03204C18.9953 8.0828 18.9909 8.13925 19.0045 8.19274C19.3781 9.66533 18.3718 10.4534 17.306 11.2879C16.7459 11.6791 16.2498 12.1548 15.8354 12.698C15.0146 13.9307 16.2107 15.1733 17.6192 16.4437Z" fill="white"/>
<path d="M23.6833 24.0867C23.6267 24.071 23.5663 24.0768 23.5137 24.1029C23.4611 24.1291 23.42 24.1737 23.3983 24.2283C23.3957 24.2323 23.1182 24.6266 21.3699 24.9557C19.1675 25.3303 16.9207 25.365 14.7078 25.0585C14.6531 25.0494 14.597 25.0586 14.548 25.0847C14.4991 25.1108 14.4601 25.1522 14.4371 25.2027C14.4141 25.2531 14.4084 25.3098 14.4208 25.3638C14.4333 25.4178 14.4632 25.4662 14.5059 25.5016C14.5735 25.5574 14.9984 25.8417 16.7444 25.9535C16.7651 25.9548 17.3866 25.9926 18.2551 25.9926C20.315 25.9926 23.7637 25.78 23.8727 24.3644C23.8788 24.3032 23.8632 24.2419 23.8286 24.1911C23.7939 24.1403 23.7425 24.1033 23.6833 24.0867Z" fill="white"/>
<defs>
<linearGradient id="paint0_linear_2020_690" x1="36.7179" y1="0.282365" x2="-1.80377" y2="1.06982" gradientUnits="userSpaceOnUse">
<stop stop-color="#36DBFF"/>
<stop offset="1" stop-color="#6673FF"/>
</linearGradient>
</defs>
</svg>
