<svg width="32" height="33" viewBox="0 0 32 33" fill="none" xmlns="http://www.w3.org/2000/svg">
<path d="M30.1658 2.16751C27.5736 -0.42464 21.8446 0.856308 15.8333 4.89079C9.82189 0.856308 4.09292 -0.42464 1.50077 2.16751C-1.09139 4.75967 0.18956 10.4886 4.22404 16.5C0.18956 22.5114 -1.09139 28.2404 1.50077 30.8325C4.09292 33.4247 9.82189 32.1437 15.8333 28.1092C21.8446 32.1437 27.5736 33.4247 30.1658 30.8325C32.7579 28.2404 31.477 22.5114 27.4425 16.5C31.477 10.4886 32.7579 4.75967 30.1658 2.16751Z" fill="url(#paint0_linear_2020_2673)"/>
<path d="M20.5739 10.3206H11.0928C10.9145 10.3206 10.7435 10.3914 10.6174 10.5175C10.4913 10.6436 10.4204 10.8146 10.4204 10.993V12.395C10.4204 12.5733 10.4913 12.7443 10.6174 12.8704C10.7435 12.9965 10.9145 13.0674 11.0928 13.0674H20.5739C20.7522 13.0674 20.9232 12.9965 21.0493 12.8704C21.1754 12.7443 21.2463 12.5733 21.2463 12.395V10.993C21.2463 10.8146 21.1754 10.6436 21.0493 10.5175C20.9232 10.3914 20.7522 10.3206 20.5739 10.3206ZM11.8695 12.1294C11.7843 12.1294 11.7011 12.1041 11.6304 12.0568C11.5596 12.0095 11.5044 11.9423 11.4719 11.8637C11.4393 11.7851 11.4308 11.6985 11.4474 11.615C11.464 11.5316 11.505 11.4549 11.5652 11.3947C11.6253 11.3345 11.702 11.2935 11.7855 11.2769C11.869 11.2603 11.9555 11.2688 12.0341 11.3014C12.1128 11.334 12.18 11.3891 12.2273 11.4599C12.2746 11.5307 12.2998 11.6139 12.2998 11.699C12.2998 11.8131 12.2545 11.9226 12.1738 12.0033C12.0931 12.084 11.9836 12.1294 11.8695 12.1294ZM13.5505 12.1294C13.4654 12.1294 13.3822 12.1041 13.3114 12.0568C13.2406 12.0095 13.1855 11.9423 13.1529 11.8637C13.1203 11.7851 13.1118 11.6985 13.1284 11.615C13.145 11.5316 13.186 11.4549 13.2462 11.3947C13.3064 11.3345 13.3831 11.2935 13.4665 11.2769C13.55 11.2603 13.6365 11.2688 13.7152 11.3014C13.7938 11.334 13.861 11.3891 13.9083 11.4599C13.9556 11.5307 13.9808 11.6139 13.9808 11.699C13.9809 11.8103 13.9379 11.9173 13.8608 11.9975C13.7837 12.0778 13.6785 12.125 13.5673 12.1294H13.5505ZM15.2315 12.1294C15.1466 12.1287 15.0637 12.1029 14.9934 12.0552C14.923 12.0075 14.8684 11.9401 14.8363 11.8614C14.8043 11.7827 14.7962 11.6963 14.8132 11.613C14.8302 11.5298 14.8715 11.4534 14.9318 11.3935C14.9921 11.3337 15.0688 11.293 15.1522 11.2767C15.2355 11.2604 15.3219 11.2691 15.4003 11.3018C15.4788 11.3344 15.5458 11.3896 15.5929 11.4603C15.6401 11.531 15.6652 11.614 15.6652 11.699C15.6654 11.8097 15.6228 11.9162 15.5464 11.9964C15.47 12.0765 15.3657 12.1242 15.2551 12.1294H15.2315Z" fill="white"/>
<path d="M20.5739 15.1216H11.0928C10.9145 15.1216 10.7435 15.1924 10.6174 15.3185C10.4913 15.4446 10.4204 15.6157 10.4204 15.794V17.196C10.4204 17.3743 10.4913 17.5453 10.6174 17.6714C10.7435 17.7975 10.9145 17.8684 11.0928 17.8684H20.5739C20.7522 17.8684 20.9232 17.7975 21.0493 17.6714C21.1754 17.5453 21.2463 17.3743 21.2463 17.196V15.7974C21.2467 15.7088 21.2296 15.621 21.1961 15.539C21.1625 15.457 21.113 15.3825 21.0505 15.3197C20.988 15.2569 20.9138 15.2071 20.832 15.1731C20.7502 15.1391 20.6624 15.1216 20.5739 15.1216ZM11.8695 16.9304C11.7834 16.931 11.6991 16.9061 11.6273 16.8587C11.5554 16.8113 11.4993 16.7436 11.4661 16.6642C11.4328 16.5848 11.4239 16.4973 11.4406 16.4129C11.4572 16.3284 11.4986 16.2509 11.5594 16.19C11.6203 16.1291 11.6979 16.0878 11.7823 16.0711C11.8668 16.0545 11.9542 16.0634 12.0336 16.0966C12.113 16.1299 12.1807 16.186 12.2281 16.2578C12.2755 16.3297 12.3005 16.414 12.2998 16.5C12.2989 16.6139 12.2533 16.7228 12.1728 16.8034C12.0923 16.8839 11.9833 16.9295 11.8695 16.9304ZM13.5505 16.9304C13.4652 16.9277 13.3826 16.9 13.313 16.8506C13.2434 16.8012 13.1899 16.7324 13.1592 16.6527C13.1286 16.5731 13.1221 16.4862 13.1406 16.4029C13.1591 16.3196 13.2017 16.2436 13.2632 16.1844C13.3247 16.1252 13.4023 16.0855 13.4862 16.0702C13.5702 16.0549 13.6568 16.0647 13.7352 16.0984C13.8136 16.1321 13.8803 16.1882 13.927 16.2596C13.9737 16.3311 13.9983 16.4147 13.9977 16.5C13.9977 16.6142 13.9523 16.7236 13.8716 16.8043C13.7909 16.885 13.6814 16.9304 13.5673 16.9304H13.5505ZM15.2315 16.9304C15.1468 16.9258 15.0652 16.8964 14.997 16.8459C14.9288 16.7953 14.8769 16.7259 14.8477 16.6462C14.8186 16.5665 14.8135 16.4799 14.8331 16.3973C14.8526 16.3147 14.896 16.2397 14.9578 16.1815C15.0196 16.1233 15.0972 16.0845 15.1808 16.07C15.2645 16.0555 15.3505 16.0658 15.4283 16.0997C15.5062 16.1336 15.5723 16.1896 15.6186 16.2608C15.6649 16.332 15.6893 16.4151 15.6888 16.5C15.6879 16.6145 15.6418 16.7239 15.5606 16.8045C15.4793 16.8851 15.3695 16.9304 15.2551 16.9304H15.2315Z" fill="white"/>
<path d="M20.5739 19.9293H11.0928C10.9145 19.9293 10.7435 20.0002 10.6174 20.1263C10.4913 20.2524 10.4204 20.4234 10.4204 20.6017V22.0037C10.4204 22.1821 10.4913 22.3531 10.6174 22.4792C10.7435 22.6053 10.9145 22.6761 11.0928 22.6761H20.5739C20.7522 22.6761 20.9232 22.6053 21.0493 22.4792C21.1754 22.3531 21.2463 22.1821 21.2463 22.0037V20.6051C21.2467 20.5165 21.2296 20.4287 21.1961 20.3467C21.1625 20.2648 21.113 20.1902 21.0505 20.1275C20.988 20.0647 20.9138 20.0148 20.832 19.9808C20.7502 19.9468 20.6624 19.9293 20.5739 19.9293ZM11.8695 21.7348C11.7843 21.7348 11.7011 21.7095 11.6304 21.6622C11.5596 21.6149 11.5044 21.5477 11.4719 21.4691C11.4393 21.3905 11.4308 21.3039 11.4474 21.2205C11.464 21.137 11.505 21.0603 11.5652 21.0001C11.6253 20.9399 11.702 20.8989 11.7855 20.8823C11.869 20.8657 11.9555 20.8743 12.0341 20.9068C12.1128 20.9394 12.18 20.9946 12.2273 21.0653C12.2746 21.1361 12.2998 21.2193 12.2998 21.3044C12.2998 21.4185 12.2545 21.528 12.1738 21.6087C12.0931 21.6894 11.9836 21.7348 11.8695 21.7348ZM13.5505 21.7348C13.4654 21.7348 13.3822 21.7095 13.3114 21.6622C13.2406 21.6149 13.1855 21.5477 13.1529 21.4691C13.1203 21.3905 13.1118 21.3039 13.1284 21.2205C13.145 21.137 13.186 21.0603 13.2462 21.0001C13.3064 20.9399 13.3831 20.8989 13.4665 20.8823C13.55 20.8657 13.6365 20.8743 13.7152 20.9068C13.7938 20.9394 13.861 20.9946 13.9083 21.0653C13.9556 21.1361 13.9808 21.2193 13.9808 21.3044C13.9809 21.4157 13.9379 21.5227 13.8608 21.6029C13.7837 21.6832 13.6785 21.7304 13.5673 21.7348H13.5505ZM15.2315 21.7348C15.1466 21.7341 15.0637 21.7083 14.9934 21.6606C14.923 21.6129 14.8684 21.5455 14.8363 21.4668C14.8043 21.3881 14.7962 21.3017 14.8132 21.2184C14.8302 21.1352 14.8715 21.0588 14.9318 20.9989C14.9921 20.9391 15.0688 20.8984 15.1522 20.8821C15.2356 20.8658 15.3219 20.8745 15.4003 20.9072C15.4788 20.9398 15.5458 20.995 15.5929 21.0657C15.6401 21.1364 15.6652 21.2194 15.6652 21.3044C15.6654 21.4151 15.6228 21.5216 15.5464 21.6018C15.47 21.6819 15.3657 21.7296 15.2551 21.7348H15.2315Z" fill="white"/>
<path d="M20.3083 13.6355H11.3618V14.5601H20.3083V13.6355Z" fill="white"/>
<path d="M20.3083 18.4365H11.3618V19.3645H20.3083V18.4365Z" fill="white"/>
<defs>
<linearGradient id="paint0_linear_2020_2673" x1="31.5122" y1="0.821374" x2="-1.64077" y2="1.49908" gradientUnits="userSpaceOnUse">
<stop stop-color="#BD89FF"/>
<stop offset="1" stop-color="#4034CC"/>
</linearGradient>
</defs>
</svg>
