<svg width="11" height="11" viewBox="0 0 11 11" fill="none" xmlns="http://www.w3.org/2000/svg">
<path fill-rule="evenodd" clip-rule="evenodd" d="M10.1473 5.25743C10.3588 5.04589 10.3588 4.70293 10.1473 4.4914L9.04862 3.39276L9.47385 2.9685C9.68579 2.75703 9.68599 2.41374 9.47428 2.20203L8.75451 1.48226C8.54315 1.2709 8.20052 1.27071 7.98892 1.48183L7.56282 1.90696L6.5086 0.852742C6.29707 0.641208 5.9541 0.641208 5.74257 0.852742L4.53977 2.05554C4.32823 2.26708 4.32823 2.61004 4.53977 2.82157L5.59351 3.87532L3.87495 5.59389L2.8212 4.54014C2.60967 4.3286 2.2667 4.32861 2.05517 4.54014L0.852498 5.74281C0.640964 5.95434 0.640964 6.29731 0.852498 6.50884L1.89882 7.55517L1.41742 8.03548C1.20548 8.24694 1.20529 8.59024 1.41699 8.80194L2.13676 9.52171C2.34812 9.73308 2.69075 9.73327 2.90235 9.52215L3.38462 9.04097L4.49115 10.1475C4.70269 10.359 5.04565 10.359 5.25718 10.1475L6.45985 8.94482C6.67139 8.73329 6.67139 8.39033 6.45985 8.17879L5.36074 7.07968L7.07931 5.36112L8.17842 6.46023C8.38995 6.67176 8.73292 6.67176 8.94445 6.46023L10.1473 5.25743ZM9.57273 4.87441L6.12558 1.42727L5.11429 2.43856L8.56144 5.8857L9.57273 4.87441ZM2.90585 8.5622L2.37759 8.03394L1.99162 8.41904L2.51988 8.9473L2.90585 8.5622ZM8.89965 2.58494L8.56985 2.91399L8.04159 2.38573L8.37139 2.05668L8.89965 2.58494ZM4.35372 6.07266L6.07228 4.35409L6.60054 4.88235L4.88197 6.60091L4.35372 6.07266ZM4.87417 9.57297L1.42702 6.12583L2.43818 5.11466L5.88533 8.56181L4.87417 9.57297Z" fill="#1F1F1F"/>
</svg>
