<svg width="38" height="37" viewBox="0 0 38 37" fill="none" xmlns="http://www.w3.org/2000/svg">
<path d="M8.94866 28.3845C11.0466 33.4041 14.6877 36.7292 18.8331 36.7292C22.9786 36.7292 26.6197 33.4041 28.7176 28.3845C33.7372 26.2866 37.0623 22.6454 37.0623 18.5C37.0623 14.3546 33.7372 10.7135 28.7176 8.61553C26.6197 3.59596 22.9786 0.270874 18.8331 0.270874C14.6877 0.270874 11.0466 3.59596 8.94866 8.61553C3.92909 10.7135 0.604004 14.3546 0.604004 18.5C0.604004 22.6454 3.92909 26.2866 8.94866 28.3845Z" fill="url(#paint0_linear_2020_122)"/>
<path d="M14.0151 14.3007C13.8661 14.1781 13.7288 14.0419 13.6049 13.8939C13.5673 13.8505 13.5466 13.795 13.5466 13.7376C13.5466 13.6802 13.5673 13.6247 13.6049 13.5813C14.146 13.0122 14.7762 12.5352 15.4709 12.1692C15.8306 11.9809 15.8878 11.9372 15.9248 11.9809C15.9618 12.0246 15.8474 12.1188 15.6256 12.3575C15.4944 12.4987 15.3633 12.6433 15.2725 12.7576C14.9174 13.2022 14.6223 13.6916 14.395 14.2133C14.3789 14.2472 14.3554 14.2769 14.3261 14.3004C14.2969 14.3239 14.2627 14.3404 14.2262 14.3488C14.1897 14.3572 14.1517 14.3573 14.1152 14.349C14.0786 14.3406 14.0444 14.3241 14.0151 14.3007Z" fill="white"/>
<path d="M12.9595 14.8756C13.2071 15.1127 13.4786 15.3234 13.7698 15.5043C13.8135 15.5298 13.8477 15.5689 13.8671 15.6157C13.8865 15.6624 13.8901 15.7142 13.8774 15.7632C13.8101 16.0187 13.753 16.2742 13.6992 16.5331C13.3537 17.8938 13.2987 19.312 13.5378 20.6953C13.5479 20.7837 13.5339 20.8731 13.4975 20.9542C13.4698 21.0316 13.4148 21.0962 13.3428 21.1358C13.1915 21.2299 12.9293 21.4115 12.5762 21.667C12.5465 21.6882 12.5125 21.7025 12.4766 21.7091C12.4407 21.7156 12.4038 21.7142 12.3685 21.7049C12.3332 21.6956 12.3004 21.6787 12.2724 21.6553C12.2444 21.6318 12.2218 21.6026 12.2064 21.5695C11.7883 20.5983 11.5797 19.5499 11.5942 18.4926C11.6087 17.4354 11.8459 16.3931 12.2905 15.4337C12.3779 15.2555 12.472 15.0975 12.5762 14.916C12.596 14.8846 12.6227 14.8581 12.6542 14.8385C12.6857 14.8189 12.7212 14.8067 12.7581 14.8029C12.795 14.799 12.8323 14.8035 12.8672 14.8161C12.902 14.8287 12.9336 14.849 12.9595 14.8756Z" fill="white"/>
<path d="M15.3264 24.6794C15.4475 24.8005 15.5752 24.9148 15.7063 25.0157C15.8375 25.1165 15.8509 25.1367 15.8341 25.1602C15.8173 25.1838 15.7467 25.1602 15.5954 25.0896C14.9306 24.7891 14.3205 24.3801 13.79 23.8793C13.527 23.626 13.2852 23.3517 13.0671 23.0589C13.047 23.0346 13.0319 23.0065 13.0229 22.9763C13.0138 22.9461 13.0109 22.9144 13.0144 22.883C13.0178 22.8516 13.0275 22.8213 13.0429 22.7937C13.0584 22.7662 13.0792 22.7421 13.1041 22.7227C13.2701 22.5807 13.4441 22.4483 13.6252 22.326C13.6564 22.3041 13.6922 22.2896 13.7299 22.2837C13.7676 22.2779 13.8061 22.2807 13.8425 22.2921C13.8789 22.3035 13.9122 22.323 13.9398 22.3493C13.9674 22.3756 13.9886 22.4079 14.0018 22.4437C14.2745 23.2768 14.7267 24.04 15.3264 24.6794Z" fill="white"/>
<path d="M15.1718 21.5527C16.1 21.2541 17.0651 21.0855 18.0396 21.0517C18.0725 21.0494 18.1055 21.0539 18.1366 21.0648C18.1677 21.0757 18.1963 21.0929 18.2205 21.1153C18.2448 21.1376 18.2642 21.1647 18.2776 21.1948C18.291 21.2249 18.2981 21.2575 18.2985 21.2904L18.275 24.8879C18.2735 24.9294 18.2615 24.9698 18.2401 25.0055C18.2187 25.0411 18.1887 25.0707 18.1527 25.0916C18.1168 25.1124 18.0761 25.1238 18.0346 25.1246C17.993 25.1254 17.952 25.1157 17.9152 25.0963C17.068 24.6458 16.2342 24.1381 15.7433 23.3581C15.4451 22.8892 15.2025 22.3871 15.0205 21.862C15 21.8009 15.0045 21.7342 15.0328 21.6764C15.0611 21.6185 15.111 21.5741 15.1718 21.5527Z" fill="white"/>
<path d="M14.5868 18.658C14.6298 17.8696 14.748 17.0872 14.9399 16.3213C14.9475 16.2893 14.9617 16.2592 14.9816 16.2329C15.0015 16.2066 15.0266 16.1848 15.0553 16.1687C15.084 16.1526 15.1158 16.1426 15.1486 16.1393C15.1814 16.1361 15.2145 16.1397 15.2458 16.1499C16.1723 16.3908 17.1261 16.5106 18.0834 16.5063C18.1473 16.5071 18.2084 16.5329 18.2536 16.5781C18.2988 16.6233 18.3246 16.6844 18.3255 16.7483L18.3053 19.6767C18.3044 19.7383 18.2798 19.7971 18.2366 19.841C18.1934 19.8848 18.1349 19.9103 18.0733 19.912C17.0211 19.9517 15.9782 20.1257 14.9701 20.4298C14.9366 20.4416 14.9008 20.4458 14.8654 20.4422C14.8301 20.4386 14.7959 20.4272 14.7654 20.4089C14.7349 20.3906 14.7089 20.3659 14.689 20.3363C14.6692 20.3068 14.6561 20.2733 14.6507 20.2382C14.5891 19.7138 14.5678 19.1856 14.5868 18.658Z" fill="white"/>
<path d="M15.824 13.9612C16.3792 13.112 17.1137 12.3948 17.9758 11.8599C18.0127 11.8365 18.0552 11.8234 18.0989 11.822C18.1426 11.8206 18.1859 11.8309 18.2243 11.8518C18.2627 11.8727 18.2948 11.9035 18.3173 11.941C18.3398 11.9784 18.3519 12.0212 18.3523 12.065C18.3523 13.0736 18.3523 14.1158 18.3523 15.1379C18.3519 15.1697 18.3452 15.2011 18.3326 15.2303C18.32 15.2595 18.3018 15.2859 18.279 15.3081C18.2563 15.3302 18.2293 15.3477 18.1998 15.3595C18.1702 15.3712 18.1387 15.377 18.1069 15.3766C17.2572 15.3894 16.4095 15.2911 15.5853 15.0841C15.5537 15.075 15.5243 15.0595 15.4989 15.0386C15.4736 15.0176 15.4529 14.9916 15.438 14.9623C15.4232 14.9329 15.4146 14.9008 15.4127 14.868C15.4109 14.8351 15.4159 14.8023 15.4273 14.7714C15.5327 14.489 15.6656 14.2176 15.824 13.9612Z" fill="white"/>
<path d="M23.708 14.3008C23.8529 14.177 23.9868 14.0409 24.1081 13.8939C24.1444 13.85 24.1643 13.7947 24.1643 13.7376C24.1643 13.6805 24.1444 13.6253 24.1081 13.5813C23.5829 13.0145 22.9685 12.5375 22.2892 12.1692C21.953 11.9809 21.8824 11.9372 21.8454 11.9809C21.8084 12.0246 21.9194 12.1188 22.1379 12.3575C22.2657 12.4987 22.3934 12.6433 22.4741 12.7576C22.8206 13.2044 23.1087 13.6936 23.3314 14.2133C23.3466 14.2476 23.3696 14.2778 23.3985 14.3017C23.4274 14.3256 23.4614 14.3424 23.4979 14.3509C23.5344 14.3594 23.5724 14.3592 23.6089 14.3505C23.6453 14.3418 23.6792 14.3248 23.708 14.3008Z" fill="white"/>
<path d="M24.7367 14.8756C24.4975 15.114 24.2325 15.3248 23.9466 15.5044C23.9039 15.5307 23.8707 15.5701 23.852 15.6167C23.8332 15.6633 23.8299 15.7146 23.8424 15.7632C23.9063 16.0188 23.9634 16.2743 24.0172 16.5331C24.3515 17.8955 24.4053 19.3116 24.1752 20.6954C24.1652 20.7834 24.1779 20.8726 24.2122 20.9543C24.239 21.0311 24.2928 21.0956 24.3635 21.1358C24.5148 21.23 24.7703 21.4115 25.1099 21.667C25.1391 21.6882 25.1726 21.7025 25.208 21.709C25.2434 21.7156 25.2799 21.7141 25.3147 21.7048C25.3495 21.6954 25.3817 21.6784 25.4091 21.655C25.4365 21.6316 25.4583 21.6024 25.473 21.5695C25.8819 20.5961 26.0857 19.5489 26.0719 18.4932C26.058 17.4375 25.8266 16.396 25.3923 15.4338C25.3083 15.2556 25.2141 15.0975 25.1133 14.916C25.0942 14.8847 25.0682 14.8583 25.0373 14.8387C25.0063 14.8191 24.9713 14.8069 24.9349 14.803C24.8985 14.7991 24.8617 14.8036 24.8273 14.8162C24.793 14.8288 24.762 14.8492 24.7367 14.8756Z" fill="white"/>
<path d="M22.427 24.6794C22.306 24.8004 22.1816 24.9125 22.0538 25.0156C21.9462 25.1064 21.9126 25.1366 21.9328 25.1601C21.953 25.1837 22.0168 25.1601 22.1648 25.0895C22.8191 24.7883 23.418 24.3791 23.9366 23.8792C24.1942 23.6257 24.4303 23.3513 24.6426 23.0589C24.6628 23.0346 24.6778 23.0065 24.6869 22.9762C24.6959 22.946 24.6988 22.9143 24.6954 22.8829C24.6919 22.8515 24.6822 22.8212 24.6668 22.7937C24.6514 22.7661 24.6306 22.742 24.6056 22.7226C24.4442 22.5808 24.2747 22.4483 24.098 22.3259C24.0676 22.3039 24.0325 22.2894 23.9955 22.2835C23.9585 22.2776 23.9206 22.2805 23.8849 22.2919C23.8492 22.3034 23.8168 22.3231 23.7901 22.3494C23.7635 22.3758 23.7434 22.408 23.7315 22.4436C23.464 23.2747 23.0189 24.0376 22.427 24.6794Z" fill="white"/>
<path d="M22.5751 21.5527C21.6711 21.2541 20.7292 21.0855 19.7778 21.0518C19.7452 21.0494 19.7125 21.0539 19.6818 21.0649C19.651 21.0759 19.6229 21.0931 19.5992 21.1156C19.5755 21.138 19.5567 21.1652 19.544 21.1953C19.5314 21.2254 19.5251 21.2578 19.5257 21.2905L19.5458 24.8879C19.547 24.9288 19.5585 24.9688 19.5793 25.0041C19.6001 25.0394 19.6295 25.0688 19.6647 25.0897C19.7 25.1105 19.74 25.122 19.7809 25.1232C19.8219 25.1244 19.8625 25.1151 19.8989 25.0963C20.7259 24.6458 21.5395 24.1381 22.0203 23.3581C22.3122 22.8886 22.548 22.3865 22.723 21.862C22.7336 21.832 22.7383 21.8002 22.7366 21.7684C22.7349 21.7366 22.727 21.7054 22.7132 21.6767C22.6995 21.6479 22.6802 21.6222 22.6565 21.6009C22.6328 21.5796 22.6051 21.5633 22.5751 21.5527Z" fill="white"/>
<path d="M23.1499 18.6579C23.112 17.8701 22.9994 17.0877 22.8136 16.3213C22.8068 16.2895 22.7933 16.2595 22.7741 16.2332C22.7549 16.207 22.7304 16.1851 22.7022 16.1689C22.674 16.1527 22.6427 16.1427 22.6103 16.1394C22.578 16.1361 22.5453 16.1396 22.5144 16.1498C21.6108 16.3908 20.6792 16.5106 19.7441 16.5062C19.681 16.5079 19.6212 16.5342 19.5772 16.5794C19.5333 16.6246 19.5087 16.6852 19.5087 16.7482L19.5054 19.6766C19.5053 19.7379 19.5292 19.7967 19.5719 19.8407C19.6146 19.8846 19.6727 19.9102 19.734 19.9119C20.7608 19.9527 21.7779 20.1268 22.7599 20.4297C22.793 20.4409 22.8282 20.4447 22.863 20.4408C22.8977 20.4369 22.9312 20.4254 22.9611 20.4071C22.9909 20.3888 23.0163 20.3642 23.0356 20.335C23.0549 20.3058 23.0675 20.2727 23.0725 20.2381C23.1353 19.7138 23.1611 19.1858 23.1499 18.6579Z" fill="white"/>
<path d="M21.9395 13.9611C21.4032 13.1149 20.6869 12.3975 19.8416 11.8598C19.8052 11.8368 19.7633 11.824 19.7203 11.8228C19.6773 11.8217 19.6348 11.8321 19.5972 11.8532C19.5597 11.8742 19.5285 11.9049 19.507 11.9422C19.4855 11.9795 19.4745 12.0219 19.4751 12.0649C19.4751 13.0892 19.4807 14.1135 19.4919 15.1379C19.4919 15.2012 19.5171 15.2619 19.5618 15.3066C19.6066 15.3514 19.6673 15.3766 19.7306 15.3766C20.5615 15.3892 21.3903 15.2908 22.195 15.0841C22.2263 15.0747 22.2554 15.059 22.2803 15.0378C22.3051 15.0166 22.3253 14.9905 22.3396 14.9611C22.3538 14.9316 22.3618 14.8996 22.3629 14.8669C22.3641 14.8343 22.3584 14.8017 22.3463 14.7714C22.238 14.4884 22.1017 14.217 21.9395 13.9611Z" fill="white"/>
<path d="M15.5348 6.15117C15.5798 6.16553 15.6273 6.17025 15.6742 6.16504C15.7211 6.15983 15.7664 6.14479 15.8072 6.12091L16.6342 5.72418C16.8536 5.64 17.0368 5.48185 17.152 5.27703C17.1983 5.18708 17.2225 5.08738 17.2225 4.98621C17.2225 4.88504 17.1983 4.78534 17.152 4.69539C17.0938 4.55503 16.9844 4.44204 16.846 4.37936C16.728 4.33478 16.5999 4.3243 16.4762 4.3491C16.5553 4.27134 16.6122 4.17383 16.641 4.06668C16.6737 3.93199 16.657 3.79001 16.5939 3.6666C16.5444 3.55138 16.4597 3.45484 16.3518 3.39091C16.2413 3.32897 16.115 3.30091 15.9887 3.31022C15.8297 3.32167 15.6744 3.36392 15.5315 3.43462L14.7246 3.80781C14.6804 3.82497 14.6402 3.85075 14.6061 3.88366C14.5721 3.91656 14.5449 3.95592 14.5262 3.99944C14.5007 4.09072 14.5116 4.18832 14.5565 4.27177L15.3432 5.95281C15.3593 5.99754 15.3847 6.03835 15.4177 6.07254C15.4508 6.10673 15.4907 6.13353 15.5348 6.15117ZM16.3854 4.76599C16.4235 4.778 16.4584 4.79844 16.4875 4.8258C16.5167 4.85316 16.5392 4.88673 16.5535 4.92401C16.5715 4.95883 16.5809 4.99745 16.5809 5.03664C16.5809 5.07583 16.5715 5.11445 16.5535 5.14927C16.5058 5.23279 16.4293 5.29612 16.3384 5.32746L15.8475 5.55944L15.6189 5.05177L16.1098 4.82315C16.1918 4.77161 16.2897 4.75132 16.3854 4.76599ZM15.6189 3.92884C15.7026 3.88169 15.799 3.86172 15.8946 3.87168C15.9304 3.88181 15.9633 3.90015 15.9907 3.92525C16.0181 3.95035 16.0393 3.98151 16.0526 4.01625C16.0689 4.04976 16.0774 4.08656 16.0774 4.12384C16.0774 4.16112 16.0689 4.19792 16.0526 4.23143C15.9993 4.31066 15.9231 4.37167 15.8341 4.40625L15.4037 4.60798L15.1818 4.13056L15.6189 3.92884Z" fill="white"/>
<path d="M18.3152 5.15261C18.5447 5.27138 18.7999 5.33145 19.0583 5.32744C19.1922 5.33031 19.326 5.32131 19.4583 5.30054C19.584 5.28401 19.7078 5.25587 19.8282 5.21649C19.8869 5.1976 19.9378 5.15977 19.9727 5.1089C20.0053 5.05408 20.0217 4.99111 20.0198 4.92735V4.12382C20.0257 4.05184 20.0027 3.98049 19.9559 3.92546C19.9303 3.90174 19.9 3.88354 19.8671 3.87198C19.8341 3.86041 19.7991 3.85573 19.7643 3.85821H19.2297C19.1601 3.85449 19.0913 3.87466 19.0347 3.91537C19.0116 3.93798 18.9937 3.9653 18.9821 3.99546C18.9705 4.02563 18.9655 4.05794 18.9675 4.0902C18.9636 4.12181 18.9674 4.15389 18.9785 4.18374C18.9896 4.21358 19.0077 4.24031 19.0314 4.26166C19.0574 4.28461 19.0878 4.30209 19.1207 4.31307C19.1536 4.32404 19.1884 4.32828 19.223 4.32554H19.4718V4.7189C19.4268 4.73365 19.3807 4.74489 19.3339 4.75252C19.2557 4.76053 19.1768 4.76053 19.0986 4.75252C19.0009 4.75828 18.9031 4.74394 18.8111 4.7104C18.7192 4.67686 18.6351 4.62483 18.564 4.55752C18.4341 4.4007 18.3713 4.19893 18.3892 3.99606C18.397 3.85669 18.4336 3.72045 18.4968 3.59597C18.5481 3.48598 18.6344 3.3961 18.7422 3.34046C18.8722 3.28277 19.0136 3.25519 19.1558 3.25977C19.2452 3.26211 19.3342 3.27337 19.4214 3.29339C19.5014 3.31167 19.5792 3.33873 19.6533 3.37408C19.7098 3.40485 19.7754 3.41439 19.8383 3.40097C19.892 3.38659 19.9393 3.35463 19.9727 3.3102C20.0079 3.26519 20.0311 3.21197 20.04 3.15554C20.0475 3.09951 20.0394 3.04248 20.0164 2.9908C19.9919 2.93648 19.949 2.89248 19.8954 2.8664C19.7794 2.80368 19.6548 2.75837 19.5256 2.73192C19.4039 2.70598 19.2801 2.69135 19.1558 2.68821C18.9538 2.68241 18.7524 2.712 18.5607 2.77563C18.3945 2.83041 18.2412 2.9185 18.1102 3.03451C17.9859 3.1512 17.8884 3.29343 17.8244 3.4514C17.755 3.62577 17.7197 3.81178 17.7202 3.99942C17.7116 4.23248 17.7626 4.46387 17.8681 4.67184C17.9668 4.87249 18.1223 5.03968 18.3152 5.15261Z" fill="white"/>
<path d="M23.1061 4.13393C23.0089 3.91129 22.8276 3.73607 22.6018 3.64643L21.7949 3.26315C21.7555 3.24068 21.712 3.22641 21.6669 3.22121C21.6218 3.21601 21.5762 3.21998 21.5327 3.2329C21.4892 3.24979 21.4497 3.27556 21.4167 3.30855C21.3837 3.34154 21.3579 3.38104 21.341 3.42453L20.514 5.14591C20.4709 5.22762 20.4613 5.32284 20.4871 5.41152C20.5246 5.49396 20.59 5.56047 20.6719 5.59924C20.7537 5.63801 20.8467 5.64655 20.9342 5.62333C20.9759 5.60529 21.0134 5.57901 21.0446 5.54607C21.0758 5.51314 21.1 5.47423 21.1158 5.43169L21.3646 4.91393L21.8756 5.156C22.0875 5.27464 22.3376 5.30484 22.5716 5.24005C22.6791 5.2032 22.7774 5.14357 22.8598 5.06524C22.9422 4.98691 23.0067 4.89172 23.049 4.78617C23.1038 4.68756 23.1371 4.57851 23.147 4.46614C23.1568 4.35376 23.1429 4.24057 23.1061 4.13393ZM22.4841 4.51721C22.467 4.55959 22.4406 4.59759 22.4069 4.62843C22.3731 4.65927 22.3329 4.68215 22.2891 4.6954C22.1877 4.71262 22.0833 4.69484 21.9933 4.64496L21.5898 4.45333L21.8588 3.8616L22.2589 4.05324C22.3555 4.09125 22.4362 4.16127 22.4875 4.2516C22.5065 4.29341 22.516 4.33887 22.5154 4.38478C22.5149 4.43068 22.5042 4.4759 22.4841 4.51721Z" fill="white"/>
<path d="M17.0849 30.7312L16.3116 30.3042C16.2728 30.2774 16.2288 30.2591 16.1825 30.2504C16.1361 30.2417 16.0885 30.2429 16.0426 30.2538C15.9979 30.2687 15.9568 30.2929 15.9221 30.3248C15.8873 30.3566 15.8597 30.3954 15.8409 30.4387L14.9365 32.0626C14.9103 32.1016 14.8925 32.1457 14.8844 32.1921C14.8763 32.2384 14.878 32.2859 14.8894 32.3315C14.9209 32.421 14.986 32.4946 15.071 32.5366L15.8745 32.9804C16.0748 33.1061 16.3121 33.1595 16.5469 33.1317C16.6461 33.1161 16.7403 33.0776 16.822 33.0193C16.9037 32.9609 16.9707 32.8843 17.0176 32.7955C17.097 32.6658 17.1246 32.5109 17.0949 32.3618C17.0606 32.2412 16.9944 32.132 16.9033 32.0458C17.0164 32.0643 17.1323 32.0527 17.2395 32.0121C17.3685 31.9598 17.4746 31.8633 17.5387 31.7398C17.6003 31.6316 17.6284 31.5076 17.6194 31.3834C17.6035 31.2595 17.5522 31.1427 17.4715 31.0472C17.3658 30.9163 17.2342 30.8087 17.0849 30.7312ZM16.4797 32.4391C16.4637 32.4747 16.4395 32.5061 16.4091 32.5306C16.3788 32.5551 16.343 32.5722 16.3049 32.5803C16.2097 32.5885 16.1147 32.5636 16.0359 32.5097L15.5585 32.2475L15.8342 31.7533L16.3082 32.0155C16.3958 32.0555 16.467 32.1243 16.5099 32.2105C16.5227 32.2484 16.5265 32.2887 16.5213 32.3283C16.5161 32.3679 16.5018 32.4058 16.4797 32.4391ZM16.9235 31.5011C16.9073 31.5347 16.8838 31.5642 16.8547 31.5875C16.8256 31.6107 16.7917 31.6272 16.7554 31.6356C16.6588 31.6384 16.5637 31.6114 16.483 31.5583L16.0695 31.3296L16.325 30.869L16.7386 31.101C16.8255 31.1397 16.8983 31.2042 16.947 31.2859C16.9603 31.3211 16.9651 31.3589 16.961 31.3963C16.9569 31.4337 16.9441 31.4696 16.9235 31.5011Z" fill="white"/>
<path d="M20.1545 32.3753C20.1276 32.3528 20.0966 32.3359 20.0631 32.3255C20.0296 32.3151 19.9944 32.3115 19.9595 32.3147L19.425 32.3349C19.3551 32.3337 19.2871 32.3576 19.2333 32.4022C19.2106 32.4255 19.1934 32.4536 19.1829 32.4844C19.1724 32.5152 19.169 32.548 19.1728 32.5804C19.1726 32.612 19.1791 32.6433 19.1919 32.6723C19.2046 32.7012 19.2233 32.7272 19.2468 32.7485C19.303 32.7896 19.3724 32.8087 19.4418 32.8022H19.6939V33.199L19.5561 33.2393C19.4785 33.2554 19.3999 33.2655 19.3207 33.2696C19.2238 33.2799 19.1258 33.2703 19.0328 33.2414C18.9397 33.2124 18.8535 33.1649 18.7795 33.1015C18.6411 32.9519 18.5674 32.7537 18.5744 32.5501C18.5645 32.4067 18.5875 32.263 18.6416 32.1298C18.6862 32.0173 18.7681 31.9236 18.8736 31.8642C18.9993 31.7989 19.1387 31.7643 19.2804 31.7634C19.3687 31.7546 19.4577 31.7546 19.546 31.7634C19.6265 31.7793 19.7054 31.8029 19.7813 31.834C19.8424 31.855 19.9086 31.855 19.9696 31.834C20.0229 31.8169 20.0691 31.7826 20.1007 31.7365C20.1363 31.702 20.1629 31.6592 20.1781 31.6121C20.1849 31.5554 20.1743 31.4979 20.1478 31.4473C20.1199 31.3955 20.0747 31.355 20.0201 31.333C19.901 31.2755 19.7741 31.2359 19.6435 31.2154C19.5201 31.196 19.3952 31.1881 19.2703 31.1918C19.0677 31.1958 18.8673 31.2356 18.6786 31.3095C18.5167 31.3739 18.3693 31.4699 18.2449 31.5919C18.1284 31.7142 18.039 31.8597 17.9826 32.0189C17.9218 32.1972 17.8955 32.3855 17.9053 32.5736C17.908 32.81 17.9717 33.0416 18.0902 33.246C18.2037 33.4369 18.3709 33.5901 18.571 33.6865C18.8055 33.7944 19.0632 33.8418 19.3207 33.8243C19.4553 33.8207 19.5892 33.8049 19.7208 33.7772C19.8446 33.753 19.9661 33.7181 20.0839 33.673C20.1434 33.6535 20.1937 33.6128 20.2251 33.5587C20.2549 33.5019 20.2677 33.4377 20.2621 33.3738L20.2352 32.5703C20.2367 32.5339 20.2302 32.4976 20.2163 32.4639C20.2023 32.4303 20.1813 32.4 20.1545 32.3753Z" fill="white"/>
<path d="M22.2758 30.5462C22.0427 30.5046 21.8025 30.5526 21.6034 30.6807L20.8267 31.1178C20.7854 31.1377 20.7485 31.1659 20.7184 31.2006C20.6884 31.2353 20.6657 31.2757 20.6519 31.3195C20.6415 31.3641 20.6403 31.4104 20.6484 31.4555C20.6564 31.5006 20.6737 31.5436 20.699 31.5818L21.637 33.2628C21.6565 33.3038 21.6842 33.3405 21.7183 33.3705C21.7524 33.4006 21.7922 33.4234 21.8354 33.4376C21.8797 33.4485 21.9259 33.4503 21.971 33.4428C22.0161 33.4353 22.0592 33.4186 22.0976 33.3939C22.1374 33.3737 22.1727 33.3457 22.2016 33.3116C22.2305 33.2776 22.2523 33.2381 22.2657 33.1955C22.2756 33.1507 22.2763 33.1043 22.2676 33.0592C22.259 33.0141 22.2411 32.9713 22.2153 32.9333L21.9329 32.4324L22.4237 32.1567C22.6368 32.0397 22.796 31.8444 22.8675 31.612C22.8979 31.5025 22.9049 31.3879 22.8881 31.2755C22.8713 31.1632 22.8311 31.0556 22.77 30.9598C22.7198 30.8611 22.6501 30.7735 22.5652 30.7024C22.4803 30.6314 22.3818 30.5782 22.2758 30.5462ZM22.2758 31.5549C22.2323 31.649 22.1574 31.725 22.064 31.77L21.674 31.9886L21.3378 31.4204L21.7278 31.2018C21.8135 31.1436 21.9174 31.1185 22.0203 31.1312C22.0646 31.1415 22.1061 31.1616 22.1416 31.1902C22.1772 31.2187 22.2058 31.2549 22.2254 31.296C22.2492 31.331 22.2652 31.3708 22.2721 31.4126C22.2791 31.4544 22.2769 31.4972 22.2657 31.538L22.2758 31.5549Z" fill="white"/>
<defs>
<linearGradient id="paint0_linear_2020_122" x1="37.0623" y1="0.271257" x2="-1.48303" y2="1.05919" gradientUnits="userSpaceOnUse">
<stop stop-color="#39E5B6"/>
<stop offset="1" stop-color="#0499F2"/>
</linearGradient>
</defs>
</svg>
