<svg width="33" height="33" viewBox="0 0 33 33" fill="none" xmlns="http://www.w3.org/2000/svg">
<path d="M30.8325 2.16751C28.2404 -0.42464 22.5114 0.856308 16.5 4.89079C10.4886 0.856308 4.75967 -0.42464 2.16751 2.16751C-0.42464 4.75967 0.856308 10.4886 4.89079 16.5C0.856308 22.5114 -0.42464 28.2404 2.16751 30.8325C4.75967 33.4247 10.4886 32.1437 16.5 28.1092C22.5114 32.1437 28.2404 33.4247 30.8325 30.8325C33.4247 28.2404 32.1437 22.5114 28.1092 16.5C32.1437 10.4886 33.4247 4.75967 30.8325 2.16751Z" fill="url(#paint0_linear_2020_1439)"/>
<path d="M21.1397 19.9831H15.088C14.5485 19.9813 14.0317 19.766 13.6505 19.3842C13.2693 19.0024 13.0548 18.4852 13.054 17.9457V11.894C13.0548 11.3545 13.2693 10.8373 13.6505 10.4555C14.0317 10.0737 14.5485 9.85834 15.088 9.85657H21.1397C21.6798 9.85746 22.1975 10.0724 22.5794 10.4543C22.9613 10.8362 23.1763 11.3539 23.1771 11.894V17.9457C23.1763 18.4858 22.9613 19.0035 22.5794 19.3854C22.1975 19.7673 21.6798 19.9822 21.1397 19.9831ZM20.9851 11.551H15.2292C15.1008 11.551 14.9777 11.6021 14.8869 11.6929C14.7961 11.7836 14.7451 11.9068 14.7451 12.0352V17.791C14.7451 17.8545 14.7576 17.9173 14.782 17.9758C14.8064 18.0344 14.8421 18.0875 14.8871 18.1322C14.9321 18.1769 14.9855 18.2122 15.0442 18.2362C15.1029 18.2602 15.1658 18.2723 15.2292 18.2718H20.9918C21.1202 18.2718 21.2433 18.2208 21.3341 18.13C21.4249 18.0392 21.4759 17.9161 21.4759 17.7877V12.0318C21.4755 11.968 21.4624 11.9048 21.4375 11.846C21.4125 11.7872 21.3762 11.734 21.3306 11.6893C21.285 11.6446 21.2309 11.6094 21.1716 11.5856C21.1123 11.5619 21.0489 11.5502 20.9851 11.551Z" fill="white"/>
<path d="M17.9221 23.1502H11.8704C11.3303 23.1493 10.8126 22.9344 10.4307 22.5525C10.0488 22.1706 9.8339 21.6529 9.83301 21.1128V15.0611C9.8339 14.521 10.0488 14.0033 10.4307 13.6214C10.8126 13.2395 11.3303 13.0246 11.8704 13.0237H17.9221C18.4616 13.0255 18.9785 13.2408 19.3597 13.6226C19.7408 14.0044 19.9553 14.5216 19.9562 15.0611V21.1128C19.9553 21.6523 19.7408 22.1695 19.3597 22.5513C18.9785 22.9331 18.4616 23.1485 17.9221 23.1502ZM17.7641 14.7215H12.0083C11.9448 14.7215 11.8821 14.7341 11.8235 14.7584C11.765 14.7828 11.7118 14.8185 11.6671 14.8635C11.6224 14.9085 11.5871 14.9619 11.5631 15.0206C11.5392 15.0794 11.527 15.1422 11.5275 15.2057V20.9649C11.5275 21.0933 11.5785 21.2164 11.6693 21.3072C11.7601 21.398 11.8832 21.449 12.0116 21.449H17.7675C17.8312 21.4495 17.8943 21.4373 17.9533 21.4131C18.0122 21.3889 18.0658 21.3533 18.1108 21.3082C18.1559 21.2632 18.1915 21.2096 18.2157 21.1507C18.2399 21.0917 18.2521 21.0286 18.2516 20.9649V15.209C18.2525 15.1448 18.2405 15.081 18.2164 15.0214C18.1922 14.9618 18.1563 14.9077 18.1109 14.8623C18.0654 14.8168 18.0113 14.781 17.9518 14.7568C17.8922 14.7326 17.8284 14.7206 17.7641 14.7215Z" fill="white"/>
<defs>
<linearGradient id="paint0_linear_2020_1439" x1="32.179" y1="0.821374" x2="-0.974021" y2="1.49908" gradientUnits="userSpaceOnUse">
<stop stop-color="#009FFD"/>
<stop offset="1" stop-color="#163DA8"/>
</linearGradient>
</defs>
</svg>
