<svg width="33" height="33" viewBox="0 0 33 33" fill="none" xmlns="http://www.w3.org/2000/svg">
<path d="M30.8325 2.16743C28.2418 -0.42311 22.5098 0.855519 16.5 4.89131C10.4903 0.855519 4.75831 -0.42311 2.16754 2.16743C-0.423241 4.75797 0.855623 10.4902 4.89142 16.4999C0.855623 22.5097 -0.423006 28.2416 2.16754 30.8324C4.75808 33.4232 10.4903 32.1443 16.5 28.1085C22.5098 32.1443 28.2418 33.423 30.8325 30.8323C33.4233 28.2416 32.1444 22.5097 28.1087 16.4999C32.1444 10.4902 33.4231 4.75821 30.8325 2.16743Z" fill="url(#paint0_linear_2020_247)"/>
<path d="M22.9966 11.2122C23.0041 10.9701 22.9315 10.7323 22.7901 10.5356C22.6837 10.3724 22.5383 10.2382 22.3671 10.1452C22.1959 10.0521 22.0042 10.0032 21.8094 10.0027C18.2672 10.0032 14.7249 10.0037 11.1827 10.0042C11.0476 9.99907 10.9127 10.0208 10.786 10.068C10.5889 10.1474 10.4143 10.2737 10.2773 10.4361C10.1206 10.6046 10.0259 10.8215 10.0089 11.051C10.0127 11.0804 10.0101 11.1102 10.0012 11.1385V21.8688C10.0128 21.8839 10.006 21.9013 10.0075 21.9176C10.0105 22.0168 10.0278 22.115 10.059 22.2092C10.1355 22.4045 10.2593 22.5778 10.4192 22.7135C10.5874 22.8736 10.8057 22.9709 11.0373 22.9889C11.0685 22.9848 11.1002 22.9877 11.1301 22.9975H21.8605C21.8759 22.9872 21.8933 22.9927 21.9098 22.9912C21.9941 22.9886 22.0779 22.9763 22.1594 22.9546C22.4006 22.8693 22.61 22.7127 22.76 22.5055C22.9099 22.2983 22.9932 22.0504 22.9988 21.7947C22.9924 18.2671 22.9917 14.7396 22.9966 11.2122ZM17.4772 17.2157C16.9784 17.2139 16.4797 17.2158 15.981 17.2129C15.9176 17.2126 15.9056 17.2318 15.9057 17.2909C15.9073 18.785 15.9077 20.2791 15.9068 21.7732C15.9068 21.8695 15.914 21.8555 15.8272 21.8556C15.451 21.8561 15.0749 21.8543 14.6987 21.8572C14.6352 21.8577 14.6146 21.8449 14.615 21.7766C14.6177 21.0285 14.6167 20.2804 14.6167 19.5322V17.3133C14.6167 17.2147 14.6167 17.2147 14.5212 17.2147C14.033 17.2147 13.5448 17.214 13.0567 17.2157C13.0078 17.2157 12.9928 17.2044 12.9934 17.1535C12.9959 16.8471 12.9954 16.5407 12.9938 16.2342C12.9936 16.1909 12.9989 16.1723 13.0505 16.1723C14.5277 16.1739 16.0049 16.174 17.4821 16.1726C17.529 16.1726 17.5366 16.1886 17.5363 16.2304C17.5348 16.539 17.5348 16.8475 17.5366 17.1561C17.5368 17.2032 17.5249 17.2158 17.4772 17.2157ZM21.922 20.3462C21.9198 20.5401 21.8789 20.7317 21.8018 20.9097C21.7247 21.0877 21.6129 21.2486 21.473 21.3829C21.2529 21.5859 20.9855 21.7304 20.6951 21.8033C19.9464 21.9847 19.1637 21.9719 18.4214 21.7661C18.3041 21.7307 18.1898 21.6862 18.0795 21.633C18.0677 21.6292 18.0575 21.6216 18.0505 21.6113C18.0436 21.601 18.0403 21.5887 18.0412 21.5763C18.0422 21.1767 18.0426 20.7772 18.0422 20.3777C18.0433 20.3692 18.045 20.3608 18.0475 20.3526C18.0919 20.3861 18.1328 20.4178 18.1746 20.4482C18.6457 20.7989 19.229 20.9647 19.8142 20.9143C20.0075 20.9071 20.1952 20.8475 20.3574 20.742C20.4139 20.7053 20.4621 20.6571 20.4988 20.6005C20.5354 20.5439 20.5597 20.4802 20.5701 20.4136C20.5805 20.347 20.5767 20.2789 20.559 20.2139C20.5412 20.1488 20.51 20.0883 20.4673 20.0361C20.3492 19.8943 20.2022 19.7794 20.0361 19.699C19.7927 19.5666 19.5338 19.4686 19.2803 19.3582C18.976 19.2351 18.6974 19.0561 18.459 18.8304C18.2963 18.6703 18.1724 18.475 18.097 18.2596C18.0215 18.0441 17.9965 17.8143 18.0237 17.5876C18.0451 17.2682 18.1665 16.9636 18.3707 16.717C18.5748 16.4704 18.8514 16.2943 19.1612 16.2137C19.5988 16.0721 20.0597 16.0171 20.5183 16.0517C20.8438 16.0606 21.1669 16.1099 21.4802 16.1985C21.6724 16.2561 21.6727 16.2551 21.6727 16.4523V17.4495C21.5309 17.3538 21.3777 17.2759 21.2168 17.2178C20.8048 17.0577 20.3561 17.0164 19.9217 17.0985C19.8244 17.1189 19.7308 17.154 19.6442 17.2028C19.5697 17.2364 19.5051 17.2888 19.4568 17.3547C19.4085 17.4207 19.3781 17.4981 19.3685 17.5793C19.3589 17.6605 19.3705 17.7428 19.4021 17.8182C19.4338 17.8936 19.4844 17.9596 19.5491 18.0097C19.7247 18.1592 19.9234 18.2793 20.1374 18.3654C20.4422 18.4899 20.7402 18.6306 21.03 18.7868C21.2617 18.9153 21.4662 19.0875 21.6322 19.294C21.8537 19.5977 21.9567 19.9718 21.922 20.3462Z" fill="white"/>
<defs>
<linearGradient id="paint0_linear_2020_247" x1="-1.06398" y1="28.5957" x2="32.942" y2="5.17689" gradientUnits="userSpaceOnUse">
<stop stop-color="#297BCE"/>
<stop offset="0.1425" stop-color="#2089D1"/>
<stop offset="0.4877" stop-color="#0FA7D6"/>
<stop offset="0.7855" stop-color="#04B9DA"/>
<stop offset="1" stop-color="#00BFDB"/>
</linearGradient>
</defs>
</svg>
