<svg width="38" height="37" viewBox="0 0 38 37" fill="none" xmlns="http://www.w3.org/2000/svg">
<path d="M9.02263 28.4583C11.1206 33.4779 14.7617 36.803 18.9071 36.803C23.0525 36.803 26.6937 33.4779 28.7916 28.4583C33.8112 26.3604 37.1363 22.7193 37.1363 18.5739C37.1363 14.4284 33.8112 10.7873 28.7916 8.68938C26.6937 3.66981 23.0525 0.344727 18.9071 0.344727C14.7617 0.344727 11.1206 3.66981 9.02263 8.68938C4.00306 10.7873 0.677979 14.4284 0.677979 18.5739C0.677979 22.7193 4.00306 26.3604 9.02263 28.4583Z" fill="url(#paint0_linear_2020_1142)"/>
<path d="M26.3035 17.9013L19.5794 11.1772C19.4913 11.0885 19.3865 11.0182 19.2711 10.9702C19.1557 10.9222 19.032 10.8975 18.907 10.8975C18.782 10.8975 18.6582 10.9222 18.5428 10.9702C18.4274 11.0182 18.3227 11.0885 18.2346 11.1772L16.688 12.7237L18.4968 14.5291C18.6271 14.4748 18.7659 14.4441 18.907 14.4384C19.2113 14.4393 19.5029 14.5608 19.7178 14.7763C19.9328 14.9919 20.0534 15.2838 20.0534 15.5882C20.0538 15.7297 20.0275 15.8699 19.9761 16.0017L21.6571 17.6828C21.8857 17.5944 22.1366 17.5815 22.373 17.6462C22.6095 17.7108 22.8189 17.8495 22.9707 18.042C23.1225 18.2344 23.2087 18.4704 23.2165 18.7154C23.2244 18.9603 23.1535 19.2013 23.0143 19.4031C22.8752 19.6048 22.675 19.7567 22.4432 19.8363C22.2114 19.9159 21.9602 19.9192 21.7264 19.8456C21.4927 19.772 21.2886 19.6255 21.1442 19.4274C20.9998 19.2294 20.9227 18.9903 20.9242 18.7452C20.9231 18.6 20.9505 18.4561 21.0049 18.3216L19.3978 16.7179V20.8801C19.6367 20.9939 19.829 21.1865 19.9423 21.4255C20.0556 21.6646 20.0831 21.9354 20.02 22.1923C19.957 22.4492 19.8072 22.6765 19.5961 22.8359C19.3849 22.9953 19.1253 23.077 18.8609 23.0672C18.5966 23.0575 18.3437 22.9568 18.1448 22.7823C17.946 22.6078 17.8135 22.3701 17.7695 22.1092C17.7255 21.8484 17.7729 21.5803 17.9035 21.3503C18.0342 21.1203 18.2401 20.9423 18.4867 20.8465V16.6573C18.3449 16.6025 18.2154 16.5199 18.1058 16.4145C17.9962 16.3091 17.9087 16.183 17.8483 16.0435C17.7879 15.9039 17.7559 15.7537 17.7541 15.6017C17.7523 15.4497 17.7808 15.2988 17.8378 15.1579L16.0358 13.3558L11.5104 17.9013C11.4218 17.9894 11.3514 18.0942 11.3034 18.2096C11.2554 18.325 11.2307 18.4487 11.2307 18.5737C11.2307 18.6987 11.2554 18.8225 11.3034 18.9378C11.3514 19.0532 11.4218 19.158 11.5104 19.2461L18.2346 25.9703C18.3227 26.0589 18.4274 26.1293 18.5428 26.1773C18.6582 26.2253 18.782 26.25 18.907 26.25C19.032 26.25 19.1557 26.2253 19.2711 26.1773C19.3865 26.1293 19.4913 26.0589 19.5794 25.9703L26.3035 19.2461C26.3922 19.158 26.4625 19.0532 26.5105 18.9378C26.5585 18.8225 26.5832 18.6987 26.5832 18.5737C26.5832 18.4487 26.5585 18.325 26.5105 18.2096C26.4625 18.0942 26.3922 17.9894 26.3035 17.9013Z" fill="white"/>
<defs>
<linearGradient id="paint0_linear_2020_1142" x1="3.78789" y1="30.0688" x2="32.8126" y2="8.00352" gradientUnits="userSpaceOnUse">
<stop stop-color="#F15233"/>
<stop offset="0.05" stop-color="#EF5033"/>
<stop offset="0.64" stop-color="#D53F37"/>
<stop offset="1" stop-color="#CC3939"/>
</linearGradient>
</defs>
</svg>
