<svg width="32" height="33" viewBox="0 0 32 33" fill="none" xmlns="http://www.w3.org/2000/svg">
<path d="M1.83426 30.8325C4.42642 33.4247 10.1554 32.1437 16.1668 28.1092C22.1781 32.1437 27.9071 33.4247 30.4993 30.8325C33.0914 28.2404 31.8105 22.5114 27.776 16.5C31.8105 10.4886 33.0914 4.75967 30.4993 2.16751C27.9071 -0.42464 22.1781 0.856308 16.1668 4.89079C10.1554 0.856308 4.42642 -0.42464 1.83426 2.16751C-0.757892 4.75967 0.523056 10.4886 4.55754 16.5C0.523056 22.5114 -0.757892 28.2404 1.83426 30.8325Z" fill="url(#paint0_linear_2020_558)"/>
<path d="M16.5602 23.1535C16.3753 20.7833 16.2609 18.2617 16.2475 15.609C16.234 12.9564 16.3248 10.4281 16.4828 8.04775H16.4492C16.4046 8.04713 16.3609 8.05995 16.3237 8.08454C16.2866 8.10913 16.2576 8.14434 16.2408 8.1856C16.0477 8.64567 15.7369 9.04686 15.3397 9.34887C14.354 10.0926 13.5198 11.0181 12.8821 12.0755C12.1424 13.3128 10.6093 16.5471 12.3273 19.8083C13.0769 21.1647 14.1915 22.284 15.5448 23.0392C15.6299 23.0865 15.7201 23.1237 15.8138 23.1502V23.2611C15.8138 23.9335 15.7062 24.6967 15.8743 25.3725C15.8912 25.4203 15.9227 25.4616 15.9643 25.4905C16.0059 25.5195 16.0556 25.5347 16.1063 25.5339C16.4728 25.5641 16.7787 25.4196 16.7585 25.0632C16.7585 24.6228 16.6678 24.1722 16.624 23.7184L16.5602 23.1535Z" fill="white"/>
<path d="M17.5116 10.4987C18.3254 11.2436 18.9599 12.1632 19.3675 13.1883C20.5509 15.841 20.5005 18.3424 19.2229 20.2487C18.8418 20.8024 18.378 21.2945 17.8478 21.7078C17.7762 21.7653 17.6902 21.802 17.5992 21.8139C17.5082 21.8258 17.4156 21.8125 17.3316 21.7754C17.2477 21.7382 17.1755 21.6787 17.1231 21.6034C17.0706 21.528 17.0399 21.4397 17.0342 21.3481C16.9031 19.4351 16.8392 17.5086 16.8392 15.6057C16.8392 14.0961 16.8594 12.5798 16.9165 11.0534C16.9165 10.687 16.9165 10.4146 17.1082 10.381C17.1798 10.3617 17.2553 10.3624 17.3264 10.3832C17.3976 10.4039 17.4617 10.4439 17.5116 10.4987ZM16.503 8.04773C16.345 10.4281 16.2542 12.953 16.2677 15.609C16.2811 18.2651 16.3954 20.7832 16.5803 23.1535C16.6569 23.1314 16.7312 23.1021 16.8022 23.0661C17.9686 22.4948 18.9697 21.6349 19.7104 20.5681C21.1057 18.5038 21.1763 15.8007 19.9054 12.9563C19.353 11.7515 18.5641 10.6699 17.5856 9.77583C17.2934 9.50346 17.0639 9.17076 16.9132 8.80083L16.6577 8.17549C16.642 8.14192 16.618 8.11289 16.588 8.09113C16.558 8.06936 16.523 8.05559 16.4862 8.05109L16.503 8.04773Z" fill="white"/>
<defs>
<linearGradient id="paint0_linear_2020_558" x1="31.8457" y1="0.821374" x2="-1.30727" y2="1.49908" gradientUnits="userSpaceOnUse">
<stop stop-color="#F99AB8"/>
<stop offset="1" stop-color="#9C6CEF"/>
</linearGradient>
</defs>
</svg>
