<svg width="38" height="37" viewBox="0 0 38 37" fill="none" xmlns="http://www.w3.org/2000/svg">
<path d="M37.3959 18.5C37.3959 14.3546 34.0708 10.7135 29.0512 8.61553C26.9533 3.59596 23.3122 0.270874 19.1668 0.270874C15.0213 0.270874 11.3802 3.59596 9.28228 8.61553C4.26271 10.7135 0.937622 14.3546 0.937622 18.5C0.937622 22.6454 4.26271 26.2866 9.28228 28.3845C11.3802 33.4041 15.0213 36.7292 19.1668 36.7292C23.3122 36.7292 26.9533 33.4041 29.0512 28.3845C34.0708 26.2866 37.3959 22.6454 37.3959 18.5Z" fill="url(#paint0_linear_2020_1458)"/>
<path d="M25.1344 19.0212C23.097 19.0414 21.0528 19.075 19.0154 19.0952C18.9631 19.0969 18.9135 19.1189 18.8771 19.1566C18.8407 19.1942 18.8204 19.2445 18.8204 19.2969C18.8204 21.1628 18.8473 23.0322 18.8978 24.8208C18.899 24.8675 18.917 24.9122 18.9485 24.9468C18.98 24.9813 19.0228 25.0034 19.0692 25.0091C21.0663 25.2982 23.0331 25.6109 25.121 25.8765C25.1492 25.8803 25.1779 25.8781 25.2051 25.8698C25.2324 25.8616 25.2576 25.8476 25.279 25.8288C25.3003 25.81 25.3174 25.7868 25.329 25.7608C25.3406 25.7348 25.3465 25.7066 25.3462 25.6781V19.2196C25.3463 19.1923 25.3407 19.1654 25.3299 19.1404C25.3191 19.1154 25.3033 19.0929 25.2834 19.0743C25.2636 19.0557 25.2401 19.0414 25.2144 19.0323C25.1888 19.0231 25.1616 19.0194 25.1344 19.0212Z" fill="white"/>
<path d="M17.7445 12.7408C17.7916 14.4218 17.8051 16.1567 17.8185 17.9049C17.819 17.9304 17.8143 17.9557 17.8049 17.9793C17.7955 18.0029 17.7814 18.0245 17.7636 18.0426C17.7457 18.0608 17.7245 18.0752 17.701 18.085C17.6775 18.0949 17.6523 18.0999 17.6269 18.0999C15.9929 18.0999 14.1539 18.0999 12.5233 18.0999C12.4715 18.0999 12.4219 18.0794 12.3854 18.0428C12.3488 18.0063 12.3282 17.9567 12.3282 17.9049V13.1577C12.328 13.1093 12.3457 13.0625 12.3781 13.0265C12.4104 12.9904 12.4549 12.9677 12.5031 12.9627C14.1572 12.8047 15.9425 12.6635 17.5462 12.5525C17.5973 12.5516 17.6468 12.5708 17.6839 12.6061C17.721 12.6413 17.7428 12.6897 17.7445 12.7408Z" fill="white"/>
<path d="M19.0927 18.1033C21.1099 18.0831 23.1272 18.0226 25.1444 18.0024C25.1956 18.0016 25.2443 17.9806 25.2801 17.9442C25.316 17.9077 25.3361 17.8586 25.3361 17.8074V12.3743C25.3361 12.3479 25.3307 12.3216 25.3203 12.2973C25.3099 12.273 25.2946 12.251 25.2754 12.2328C25.2562 12.2145 25.2335 12.2004 25.2087 12.1912C25.1839 12.182 25.1574 12.178 25.131 12.1793C22.9288 12.2869 21.0629 12.3844 19.0053 12.5155C18.955 12.5182 18.9078 12.5404 18.8739 12.5775C18.8399 12.6146 18.8219 12.6636 18.8237 12.7139C18.8708 14.3949 18.8843 16.1466 18.8977 17.9016C18.8973 17.9276 18.9019 17.9535 18.9115 17.9777C18.9211 18.002 18.9353 18.0241 18.9534 18.0428C18.9715 18.0616 18.9931 18.0765 19.017 18.0869C19.0409 18.0973 19.0667 18.1029 19.0927 18.1033Z" fill="white"/>
<path d="M17.5966 24.9687C15.8719 24.7199 14.1741 24.4845 12.4997 24.2962C12.4522 24.2905 12.4085 24.2674 12.3768 24.2314C12.3452 24.1955 12.3279 24.1491 12.3283 24.1013V19.3069C12.3278 19.2815 12.3325 19.2562 12.3419 19.2326C12.3513 19.2089 12.3654 19.1874 12.3832 19.1693C12.401 19.1511 12.4223 19.1367 12.4458 19.1268C12.4693 19.117 12.4945 19.1119 12.5199 19.1119C14.1505 19.1119 15.919 19.1422 17.563 19.1119C17.6147 19.1119 17.6643 19.1325 17.7009 19.1691C17.7375 19.2056 17.758 19.2552 17.758 19.3069C17.7748 21.1292 17.795 22.8875 17.8353 24.7535C17.8387 24.7847 17.8346 24.8162 17.8234 24.8455C17.8122 24.8748 17.7942 24.901 17.7709 24.922C17.7476 24.943 17.7197 24.9582 17.6894 24.9663C17.6591 24.9744 17.6273 24.9752 17.5966 24.9687Z" fill="white"/>
<defs>
<linearGradient id="paint0_linear_2020_1458" x1="37.3959" y1="0.271257" x2="-1.14941" y2="1.05919" gradientUnits="userSpaceOnUse">
<stop stop-color="#27E3CD"/>
<stop offset="1" stop-color="#00A4EB"/>
</linearGradient>
</defs>
</svg>
