<svg width="9" height="11" viewBox="0 0 9 11" fill="none" xmlns="http://www.w3.org/2000/svg">
<path d="M6.77074 4.00931C6.90295 4.14152 6.90295 4.35587 6.77074 4.48808L4.73949 6.51933C4.60729 6.65154 4.39293 6.65154 4.26072 6.51933L4.25791 6.51648L2.90656 5.16513C2.77435 5.03292 2.77435 4.81857 2.90656 4.68636C3.03877 4.55415 3.25312 4.55415 3.38533 4.68636L4.50013 5.80116L6.29197 4.00931C6.42418 3.8771 6.63854 3.8771 6.77074 4.00931Z" fill="#1F1F1F"/>
<path fill-rule="evenodd" clip-rule="evenodd" d="M3.5251 1.38057C3.5251 0.982698 3.84764 0.660156 4.24552 0.660156H4.75468C5.15256 0.660156 5.4751 0.982698 5.4751 1.38057V1.92314C5.92046 2.02731 6.33898 2.20128 6.71847 2.43289L7.09839 2.05297C7.37973 1.77162 7.83587 1.77162 8.11721 2.05296L8.47725 2.413C8.75858 2.69434 8.75859 3.15048 8.47725 3.43182L8.10792 3.80114C8.52373 4.45938 8.76438 5.23931 8.76438 6.07544C8.76438 8.43053 6.8552 10.3397 4.50011 10.3397C2.14502 10.3397 0.23584 8.43053 0.23584 6.07544C0.23584 4.0558 1.63987 2.3641 3.5251 1.92314V1.38057ZM7.69757 3.25396L7.99848 2.95305C8.0154 2.93613 8.0154 2.90869 7.99848 2.89177L7.63844 2.53174C7.62152 2.51481 7.59408 2.51481 7.57716 2.53174L7.27309 2.8358C7.4241 2.96518 7.56596 3.10494 7.69757 3.25396ZM4.79802 1.38057V1.82141C4.6996 1.81462 4.60026 1.81116 4.50011 1.81116C4.39996 1.81116 4.30061 1.81462 4.20218 1.82141V1.38057C4.20218 1.35664 4.22158 1.33724 4.24552 1.33724H4.75468C4.77861 1.33724 4.79802 1.35664 4.79802 1.38057ZM4.50011 9.66262C6.48126 9.66262 8.0873 8.05658 8.0873 6.07544C8.0873 4.09429 6.48126 2.48825 4.50011 2.48825C2.51896 2.48825 0.912923 4.09429 0.912923 6.07544C0.912923 8.05658 2.51896 9.66262 4.50011 9.66262Z" fill="#1F1F1F"/>
</svg>
