<svg width="35" height="35" viewBox="0 0 35 35" fill="none" xmlns="http://www.w3.org/2000/svg">
<path d="M22.7281 34.8482C13.9262 34.8482 4.46529 27.5492 1.25115 18.401C-2.02014 9.09479 2.22615 0.871169 11.1121 0.195393C20.3477 -0.507279 30.7499 7.17169 33.9439 17.194C37.0639 27.0213 31.8762 34.8482 22.7281 34.8482Z" fill="url(#paint0_linear_2020_2533)"/>
<path d="M24.4058 17.7017C24.8707 16.4722 24.8991 15.1203 24.4864 13.8723C23.5518 11.112 20.768 9.663 17.9506 10.2009C15.234 10.722 12.4301 12.2552 10.9508 14.6557C10.7341 15.0128 10.5474 15.3873 10.3927 15.7752C9.82772 16.8475 9.59447 18.0635 9.72259 19.2686C9.85071 20.4738 10.3344 21.6136 11.1121 22.5431C13.4152 25.2764 17.3656 24.9806 20.257 23.4239C20.284 23.4091 20.3098 23.3922 20.3343 23.3735L22.8289 24.0762C22.8705 24.0901 22.9133 24.1003 22.9567 24.1064C23.0979 24.1064 23.3333 24.1064 23.3938 23.982C23.4051 23.9464 23.4086 23.9087 23.4039 23.8715C23.3993 23.8344 23.3867 23.7987 23.3669 23.7669C23.0845 23.1684 22.6608 22.4489 22.5096 22.1363L22.3347 21.8001C22.291 21.716 22.2137 21.6084 22.1464 21.5042L22.1902 21.4672C23.1924 20.3871 23.9483 19.1024 24.4058 17.7017ZM23.0946 13.6941C23.5813 14.813 23.6399 16.0717 23.2593 17.231C22.8794 18.4615 22.207 19.8702 21.2757 20.7713C21.2273 20.8073 21.1874 20.8535 21.1588 20.9066C21.1301 20.9597 21.1135 21.0185 21.11 21.0787C21.1064 21.1389 21.1161 21.1992 21.1384 21.2553C21.1606 21.3114 21.1949 21.3619 21.2387 21.4033C21.5435 21.9144 21.8394 22.4299 22.1263 22.9499C22.1333 22.9631 22.1362 22.9782 22.1345 22.9931C22.1328 23.0079 22.1266 23.022 22.1168 23.0333C22.1069 23.0446 22.0939 23.0526 22.0794 23.0563C22.0649 23.0601 22.0496 23.0593 22.0355 23.0541L19.9846 22.2506C19.8918 22.2135 19.7883 22.2135 19.6955 22.2506C19.6378 22.2578 19.5813 22.2725 19.5274 22.2943C17.3286 23.1583 14.6524 23.4576 12.7158 21.8337C10.9407 20.3376 10.7759 17.7084 11.7341 15.7181C13.5328 11.9458 20.8319 8.56696 23.0946 13.6941Z" fill="white"/>
<path d="M13.6169 18.6767L14.3196 19.7727C14.3348 19.7974 14.355 19.8186 14.3789 19.835C14.4027 19.8514 14.4298 19.8627 14.4583 19.868C14.4867 19.8734 14.516 19.8728 14.5442 19.8662C14.5724 19.8596 14.599 19.8473 14.6222 19.8299C15.1366 19.4567 15.6745 19.0801 16.2292 18.7002C16.2615 18.6767 16.2998 18.6628 16.3397 18.6601C16.3795 18.6574 16.4194 18.6661 16.4545 18.6851C16.4897 18.7041 16.5187 18.7326 16.5384 18.7674C16.558 18.8022 16.5674 18.8418 16.5654 18.8818C16.552 19.5542 16.5341 20.2165 16.5116 20.8687C16.5107 20.8971 16.5156 20.9254 16.5258 20.9519C16.536 20.9783 16.5515 21.0025 16.5712 21.0229C16.591 21.0433 16.6147 21.0595 16.6408 21.0705C16.667 21.0816 16.6951 21.0873 16.7234 21.0873H18.0279C18.0566 21.0873 18.085 21.0815 18.1114 21.0702C18.1378 21.059 18.1616 21.0425 18.1814 21.0217C18.2012 21.001 18.2166 20.9764 18.2266 20.9495C18.2366 20.9227 18.2411 20.894 18.2397 20.8654C18.2028 20.2165 18.1725 19.5474 18.1557 18.8481C18.1544 18.8084 18.1641 18.7691 18.1837 18.7346C18.2034 18.7001 18.2322 18.6717 18.2671 18.6525C18.3019 18.6334 18.3413 18.6242 18.381 18.6261C18.4207 18.628 18.4591 18.6408 18.4919 18.6632C19.0702 19.0353 19.6305 19.4062 20.1729 19.7761C20.1969 19.7915 20.2238 19.802 20.2519 19.807C20.28 19.812 20.3088 19.8114 20.3366 19.8051C20.3645 19.7988 20.3908 19.7871 20.4141 19.7706C20.4373 19.7541 20.4571 19.7331 20.4722 19.7088L21.1446 18.5993C21.1595 18.5745 21.1692 18.547 21.1732 18.5183C21.1772 18.4897 21.1754 18.4605 21.1678 18.4326C21.1603 18.4046 21.1472 18.3785 21.1294 18.3558C21.1115 18.333 21.0892 18.3141 21.0639 18.3001C20.4217 17.9639 19.7661 17.5874 19.0971 17.194C19.0658 17.1747 19.0399 17.1478 19.022 17.1157C19.0041 17.0836 18.9947 17.0475 18.9947 17.0108C18.9947 16.974 19.0041 16.9379 19.022 16.9058C19.0399 16.8737 19.0658 16.8468 19.0971 16.8275C19.7695 16.4241 20.4184 16.0442 21.0437 15.6878C21.0688 15.6736 21.0908 15.6544 21.1083 15.6315C21.1257 15.6085 21.1383 15.5822 21.1453 15.5541C21.1522 15.5261 21.1533 15.497 21.1486 15.4685C21.1438 15.44 21.1333 15.4128 21.1177 15.3886C20.8823 15.0221 20.647 14.6556 20.415 14.2892C20.3994 14.2655 20.3792 14.2451 20.3557 14.2292C20.3322 14.2133 20.3058 14.2023 20.278 14.1967C20.2502 14.191 20.2215 14.191 20.1937 14.1965C20.1658 14.2019 20.1394 14.2129 20.1158 14.2287C19.5812 14.6018 19.0298 14.975 18.4717 15.3482C18.4394 15.3717 18.4011 15.3856 18.3613 15.3883C18.3214 15.391 18.2816 15.3823 18.2464 15.3633C18.2113 15.3444 18.1822 15.3158 18.1626 15.281C18.143 15.2462 18.1336 15.2066 18.1355 15.1667C18.1557 14.4943 18.1837 13.8398 18.2196 13.2032C18.2209 13.1746 18.2165 13.1459 18.2064 13.1191C18.1964 13.0922 18.181 13.0676 18.1612 13.0469C18.1414 13.0261 18.1176 13.0096 18.0912 12.9984C18.0648 12.9871 18.0364 12.9813 18.0078 12.9813H16.7201C16.6917 12.9813 16.6636 12.987 16.6374 12.9981C16.6113 13.0091 16.5876 13.0253 16.5679 13.0457C16.5481 13.0661 16.5327 13.0903 16.5224 13.1167C16.5122 13.1432 16.5074 13.1715 16.5083 13.1999C16.5318 13.8723 16.552 14.5447 16.5621 15.2171C16.564 15.257 16.5546 15.2966 16.535 15.3314C16.5154 15.3662 16.4863 15.3948 16.4512 15.4138C16.416 15.4328 16.3762 15.4414 16.3363 15.4387C16.2965 15.4361 16.2582 15.4222 16.2259 15.3987C15.6509 15.0255 15.0996 14.6489 14.565 14.2757C14.5415 14.2592 14.5149 14.2477 14.4867 14.2419C14.4586 14.2361 14.4295 14.2363 14.4014 14.2423C14.3733 14.2483 14.3468 14.26 14.3234 14.2768C14.3001 14.2935 14.2805 14.3149 14.2658 14.3396L13.5934 15.4491C13.5783 15.4732 13.5682 15.5002 13.5638 15.5283C13.5593 15.5564 13.5606 15.5851 13.5675 15.6127C13.5744 15.6403 13.5868 15.6663 13.6039 15.689C13.6211 15.7117 13.6427 15.7307 13.6673 15.7449C14.2927 16.1013 14.9281 16.4678 15.5703 16.8511C15.6015 16.8703 15.6274 16.8973 15.6453 16.9294C15.6632 16.9614 15.6726 16.9976 15.6726 17.0343C15.6726 17.071 15.6632 17.1072 15.6453 17.1392C15.6274 17.1713 15.6015 17.1983 15.5703 17.2175C14.9348 17.6109 14.3095 17.9908 13.6875 18.3573C13.6592 18.371 13.6343 18.391 13.6148 18.4156C13.5953 18.4403 13.5816 18.4691 13.5748 18.4999C13.5681 18.5306 13.5683 18.5625 13.5756 18.5931C13.5829 18.6237 13.597 18.6523 13.6169 18.6767Z" fill="white"/>
<path d="M26.3523 28.884C26.1276 28.819 25.8863 28.8443 25.6799 28.9546L24.8965 29.3076C24.8131 29.3386 24.7454 29.4015 24.7083 29.4824C24.6948 29.525 24.69 29.5698 24.694 29.6142C24.698 29.6587 24.7109 29.7019 24.7318 29.7413L25.4883 31.4223C25.5209 31.5051 25.5849 31.5716 25.6665 31.6072C25.7075 31.6218 25.7512 31.6276 25.7947 31.6241C25.8382 31.6206 25.8804 31.608 25.9186 31.5871C25.959 31.5723 25.9959 31.549 26.0266 31.5189C26.0573 31.4887 26.0813 31.4524 26.0968 31.4122C26.1231 31.3273 26.1146 31.2354 26.0733 31.1567L25.8447 30.6524L26.3389 30.4305C26.5578 30.3467 26.736 30.1817 26.8365 29.9699C26.8743 29.8676 26.8903 29.7585 26.8833 29.6496C26.8764 29.5407 26.8467 29.4345 26.7961 29.3378C26.759 29.2348 26.7002 29.1409 26.6236 29.0626C26.5471 28.9843 26.4545 28.9233 26.3523 28.884ZM26.2582 29.8321C26.2079 29.9183 26.1296 29.9848 26.0363 30.0203L25.6463 30.1952L25.3874 29.6236L25.7774 29.4488C25.8644 29.4006 25.9658 29.3851 26.0632 29.4051C26.1049 29.4182 26.143 29.4408 26.1745 29.4711C26.2061 29.5015 26.2301 29.5387 26.2447 29.5799C26.2657 29.6183 26.2777 29.6608 26.2801 29.7045C26.2824 29.7481 26.2749 29.7917 26.2582 29.8321Z" fill="white"/>
<path d="M29.5059 28.5948L29.1697 28.4839C29.0772 28.4506 28.9777 28.4414 28.8806 28.457C28.8346 28.4673 28.7905 28.4843 28.7495 28.5074C28.7779 28.466 28.8026 28.4221 28.8234 28.3763C28.8744 28.2505 28.8861 28.1122 28.857 27.9796C28.8223 27.8417 28.7501 27.716 28.6486 27.6165C28.581 27.5361 28.4966 27.4715 28.4013 27.4273C28.3061 27.3832 28.2022 27.3605 28.0972 27.361C27.8655 27.3774 27.6489 27.4821 27.492 27.6535L26.8667 28.2586C26.8324 28.2859 26.8042 28.32 26.7839 28.3588C26.7637 28.3976 26.7518 28.4402 26.749 28.4839C26.7501 28.528 26.7598 28.5716 26.7777 28.6119C26.7956 28.6523 26.8213 28.6888 26.8532 28.7192L28.114 30.0641C28.1708 30.1313 28.2517 30.1735 28.3393 30.1817C28.3834 30.1807 28.4269 30.1709 28.4673 30.153C28.5077 30.1352 28.5442 30.1095 28.5746 30.0775C28.6077 30.0505 28.6348 30.0167 28.6539 29.9785C28.673 29.9402 28.6838 29.8983 28.6856 29.8556C28.6885 29.8096 28.682 29.7635 28.6664 29.7201C28.6508 29.6767 28.6264 29.637 28.5948 29.6035L28.1678 29.1496L28.3057 29.0185C28.3434 28.9845 28.3866 28.9572 28.4334 28.9378C28.4816 28.9228 28.5332 28.9228 28.5813 28.9378L29.2168 29.1462C29.2902 29.1712 29.3684 29.1793 29.4454 29.1698C29.5207 29.1522 29.5894 29.1137 29.6438 29.0588C29.7007 29.0102 29.7397 28.9439 29.7547 28.8705C29.7566 28.8407 29.7525 28.8107 29.7427 28.7824C29.7329 28.7541 29.7176 28.7281 29.6976 28.7058C29.6468 28.6498 29.5798 28.611 29.5059 28.5948ZM28.1611 28.5242L27.8551 28.8134L27.445 28.383L27.7543 28.0905C27.821 28.0176 27.9094 27.9681 28.0064 27.9493C28.0492 27.9475 28.0919 27.9556 28.131 27.9731C28.1701 27.9907 28.2046 28.017 28.2317 28.0502C28.2632 28.0787 28.2872 28.1143 28.3019 28.1541C28.3165 28.194 28.3213 28.2367 28.3157 28.2788C28.2904 28.3815 28.2312 28.4727 28.1476 28.5377L28.1611 28.5242Z" fill="white"/>
<path d="M31.1265 25.9287C31.0737 25.7778 30.9888 25.6402 30.8777 25.5253C30.7539 25.4031 30.6093 25.3041 30.4507 25.2328C30.243 25.1263 30.0116 25.0743 29.7783 25.0815C29.5674 25.0908 29.3634 25.1596 29.1899 25.2798C29.0051 25.4138 28.858 25.5933 28.763 25.8009C28.6856 25.9567 28.6377 26.1254 28.6217 26.2985C28.6111 26.4579 28.6317 26.6178 28.6823 26.7692C28.7338 26.9199 28.8175 27.0576 28.9277 27.1727C29.0504 27.3011 29.1964 27.405 29.358 27.4786C29.565 27.5869 29.7971 27.638 30.0305 27.6266C30.2405 27.6124 30.4421 27.5389 30.6121 27.4147C30.7983 27.288 30.9488 27.1155 31.0492 26.9138C31.1268 26.7584 31.1736 26.5894 31.187 26.4162C31.2037 26.2512 31.1831 26.0846 31.1265 25.9287ZM30.565 26.6616C30.5318 26.7362 30.4817 26.802 30.4187 26.8539C30.3557 26.9059 30.2815 26.9425 30.2019 26.9609C30.0128 26.9942 29.8179 26.9609 29.6505 26.8667C29.5231 26.8129 29.4085 26.7327 29.3143 26.6314C29.2403 26.5501 29.1933 26.4479 29.1799 26.3389C29.1681 26.2302 29.188 26.1205 29.237 26.0228C29.2696 25.9475 29.3195 25.8809 29.3825 25.8283C29.4456 25.7758 29.5201 25.7388 29.6001 25.7203C29.7885 25.6901 29.9817 25.7245 30.1481 25.8178C30.2756 25.8716 30.3902 25.9518 30.4843 26.0531C30.5578 26.1325 30.6058 26.232 30.6222 26.3389C30.6357 26.4498 30.6158 26.5621 30.565 26.6616Z" fill="white"/>
<path d="M5.30245 9.51163L4.80822 9.26284L5.06038 8.77534C5.1787 8.57227 5.21365 8.33123 5.15788 8.10293C5.12217 7.9995 5.06511 7.90474 4.99039 7.8248C4.91566 7.74487 4.82496 7.68155 4.72417 7.63896C4.62946 7.5854 4.52455 7.55233 4.41625 7.5419C4.30794 7.53148 4.19865 7.54393 4.09546 7.57844C3.88008 7.66738 3.70851 7.83774 3.61805 8.0525L3.23141 8.81905C3.20759 8.85665 3.19245 8.89909 3.1871 8.94328C3.18176 8.98747 3.18634 9.03229 3.20051 9.07449C3.21468 9.11668 3.23809 9.15518 3.26903 9.18719C3.29996 9.21919 3.33765 9.24389 3.37934 9.25948L5.02003 10.0832C5.09644 10.127 5.18698 10.1391 5.27219 10.1168C5.35435 10.085 5.42075 10.0222 5.4571 9.94198C5.47907 9.90483 5.49284 9.8634 5.49747 9.82049C5.50211 9.77758 5.49752 9.73417 5.484 9.69318C5.46831 9.6518 5.44401 9.61421 5.41272 9.58291C5.38142 9.55162 5.34383 9.52732 5.30245 9.51163ZM4.56279 8.65767L4.38796 9.04094L3.80969 8.75853L4.00469 8.37525C4.04272 8.28389 4.11178 8.20889 4.19969 8.16344C4.24039 8.14697 4.28438 8.14022 4.32815 8.14372C4.37192 8.14722 4.41427 8.16088 4.45184 8.18362C4.49212 8.20141 4.52803 8.22777 4.55706 8.26087C4.5861 8.29397 4.60756 8.333 4.61995 8.37525C4.63448 8.47318 4.61426 8.5731 4.56279 8.65767Z" fill="white"/>
<path d="M7.50126 6.42869L7.16505 6.33455C7.07048 6.30816 6.97049 6.30816 6.87591 6.33455C6.82964 6.34545 6.78539 6.3636 6.74479 6.38834C6.77052 6.34525 6.793 6.3003 6.81204 6.25386C6.85193 6.12463 6.85193 5.98637 6.81204 5.85713C6.76981 5.7213 6.69341 5.59858 6.59014 5.50075C6.51776 5.42454 6.42991 5.36471 6.33248 5.32527C6.23506 5.28584 6.13032 5.26772 6.02531 5.27213C5.79477 5.29991 5.58332 5.41405 5.43359 5.59153L4.8385 6.20679C4.80406 6.23485 4.7763 6.27023 4.75723 6.31035C4.73816 6.35048 4.72827 6.39435 4.72827 6.43877C4.72827 6.4832 4.73816 6.52707 4.75723 6.56719C4.7763 6.60732 4.80406 6.6427 4.8385 6.67076L6.15979 7.94498C6.21911 8.0092 6.30112 8.04779 6.38841 8.05257C6.43271 8.04977 6.47602 8.03823 6.51584 8.01861C6.55565 7.99899 6.59119 7.97168 6.6204 7.93826C6.65252 7.90953 6.67814 7.87427 6.69553 7.83484C6.71292 7.79542 6.7217 7.75273 6.72126 7.70963C6.71136 7.62254 6.66942 7.54225 6.60359 7.48438L6.15643 7.05067L6.28755 6.91282C6.32251 6.87621 6.36494 6.84755 6.41195 6.82877C6.46005 6.81334 6.51178 6.81334 6.55988 6.82877L7.2054 7.01032C7.28054 7.02832 7.35887 7.02832 7.43402 7.01032C7.5074 6.98924 7.57365 6.94856 7.62566 6.89265C7.68304 6.84299 7.71915 6.77318 7.72652 6.69765C7.7281 6.66803 7.72354 6.63841 7.71312 6.61064C7.70271 6.58287 7.68667 6.55755 7.666 6.53627C7.62192 6.48606 7.56495 6.44886 7.50126 6.42869ZM6.15643 6.42869L5.86057 6.73463L5.43023 6.3211L5.72609 6.01515C5.78929 5.93777 5.87709 5.88437 5.97488 5.86386C6.0172 5.85903 6.06007 5.86445 6.09986 5.87966C6.13965 5.89487 6.1752 5.91944 6.2035 5.95127C6.23585 5.97873 6.26124 6.01346 6.2776 6.05261C6.29396 6.09175 6.30083 6.13422 6.29764 6.17653C6.26936 6.26613 6.21563 6.34557 6.14298 6.40515L6.15643 6.42869Z" fill="white"/>
<path d="M9.71689 4.21642C9.61465 4.00848 9.4621 3.82936 9.2731 3.6953C9.10055 3.57315 8.89602 3.50419 8.68474 3.49694C8.45057 3.48921 8.21854 3.54374 8.01233 3.65495C7.85671 3.73174 7.71742 3.83791 7.60215 3.96762C7.50053 4.09127 7.42504 4.23423 7.38026 4.38788C7.33231 4.53986 7.31628 4.70011 7.33319 4.85857C7.3542 5.03501 7.40778 5.20601 7.4912 5.36288C7.59171 5.57196 7.7446 5.75148 7.935 5.884C8.1103 6.0027 8.3152 6.07022 8.52672 6.079C8.75468 6.0863 8.98061 6.03416 9.18232 5.92771C9.33794 5.85093 9.47723 5.74475 9.5925 5.61504C9.69993 5.49584 9.78022 5.35475 9.82784 5.2015C9.87466 5.04929 9.88954 4.88905 9.87155 4.73081C9.85138 4.55144 9.79899 4.37718 9.71689 4.21642ZM9.1756 5.22504C9.12038 5.3215 9.03712 5.39889 8.93689 5.44694C8.86536 5.48652 8.78561 5.50895 8.70392 5.51245C8.62224 5.51595 8.54086 5.50043 8.4662 5.46711C8.29637 5.37947 8.16212 5.23572 8.08629 5.0603C8.0234 4.94128 7.98456 4.81104 7.97198 4.67702C7.96134 4.56765 7.98509 4.45768 8.03994 4.36245C8.09478 4.26723 8.17798 4.19149 8.27793 4.14581C8.34902 4.10519 8.42868 4.08189 8.51046 4.0778C8.59224 4.07371 8.67383 4.08895 8.74862 4.12228C8.9162 4.21182 9.04882 4.3551 9.12517 4.52909C9.19043 4.64736 9.2305 4.77785 9.24284 4.91237C9.2506 5.01764 9.22722 5.12287 9.1756 5.21495V5.22504Z" fill="white"/>
<defs>
<linearGradient id="paint0_linear_2020_2533" x1="34.8539" y1="0.151121" x2="-1.83463" y2="0.9012" gradientUnits="userSpaceOnUse">
<stop stop-color="#CA6DFE"/>
<stop offset="1" stop-color="#8B8EFC"/>
</linearGradient>
</defs>
</svg>
